<svg xmlns="http://www.w3.org/2000/svg" preserveAspectRatio="xMinYMin meet" viewBox="0 0 22 16"><path fill="rgb(255,255,255,0)" d="M0 0h2v2H0V0z"/><path fill="#252525" d="M2 0h14v2H2V0z"/><path fill="rgb(255,255,255,0)" d="M16 0h6v4h-2V2h-4V0z"/><path fill="#252525" d="M0 2h2v10H0V2z"/><path fill="#FFF" d="M2 2h14v2h4v4h-2V6h-2v2h2v2h-2v2H2V2z"/><path fill="#252525" d="M16 2h4v2h-4V2zM5 3h2v2H5V3zM11 3h2v2h-2V3zM20 4h2v4h-2V4zM8 6h2v2H8V6zM16 6h2v2h-2V6zM18 8h2v2h-2V8z"/><path fill="rgb(255,255,255,0)" d="M20 8h2v8h-8v-2h2v-2h2v-2h2V8z"/><path fill="#252525" d="M5 9h2v2H5V9zM11 9h2v2h-2V9zM16 10h2v2h-2v-2z"/><path fill="rgb(255,255,255,0)" d="M0 12h2v2h2v2H0v-4z"/><path fill="#252525" d="M2 12h2v2H2v-2z"/><path fill="silver" d="M4 12h10v2H4v-2z"/><path fill="#252525" d="M14 12h2v2h-2v-2zM4 14h10v2H4v-2z"/></svg>