<svg xmlns="http://www.w3.org/2000/svg" preserveAspectRatio="xMinYMin meet" viewBox="0 0 27 19"><path fill="rgb(255,255,255,0)" d="M0 0h6v1H5v1H4V1H3v3h1v1H3v5H2V7H1v1H0V0z"/><path fill="#1E0D09" d="M6 0h8v1h5v1h1v1h2v1h1v1h-4V3h-6V1h-1v1h-1v1H5V1h1V0z"/><path fill="rgb(255,255,255,0)" d="M14 0h13v9h-1V8h-1V7h-2V4h-1V3h-2V2h-1V1h-5V0z"/><path fill="#852622" d="M3 1h1v1H3V1zM12 1h1v1h-1V1z"/><path fill="#862A24" d="M3 2h1v2H3V2z"/><path fill="#852622" d="M4 2h1v3H4V2zM11 2h1v3h-1V2z"/><path fill="#862A24" d="M12 2h1v2h-1V2z"/><path fill="#500707" d="M5 3h6v2H5V3zM13 3h6v2h-7V4h1V3zM3 5h2v5H4v3h1v2H3V5z"/><path fill="#F9C157" d="M5 5h2v1H6v1H5V5z"/><path fill="#872823" d="M7 5h2v2h2V5h8v2h4v4h-2V9h-2v2h2v2h-2v2h-8v-2h-1v-3H9V9H8V8H6v1H5V7h2V5z"/><path fill="#F9C157" d="M9 5h2v2h-1V6H9V5z"/><path fill="#500707" d="M19 5h4v2h-4V5z"/><path fill="#1E0C0B" d="M6 6h1v1H6V6zM9 6h1v1H9V6z"/><path fill="#F8BA78" d="M1 7h1v3h1v2H0V8h1V7zM12 7h1v1h1v4h-3v-2h1V7z"/><path fill="#1E0C0B" d="M23 7h2v1h1v1h1v2h-4V7z"/><path fill="#E46255" d="M6 8h2v1h1v1h1v3H4v-3h1V9h1V8z"/><path fill="#500707" d="M19 9h2v2h-2V9z"/><path fill="#400102" d="M5 11h1v1H5v-1zM8 11h1v1H8v-1z"/><path fill="#500707" d="M21 11h2v2h-2v-2z"/><path fill="rgb(255,255,255,0)" d="M23 11h4v8H17v-2h2v-2h2v-2h2v-2zM0 12h3v3h2v2h2v2H0v-7z"/><path fill="#A74554" d="M5 13h6v2H7v-1H5v-1z"/><path fill="#500707" d="M19 13h2v2h-2v-2z"/><path fill="#F8B97A" d="M5 14h2v1H5v-1z"/><path fill="#500707" d="M5 15h2v2H5v-2z"/><path fill="#621D15" d="M7 15h10v2H7v-2z"/><path fill="#500707" d="M17 15h2v2h-2v-2zM7 17h10v2H7v-2z"/></svg>