<svg xmlns="http://www.w3.org/2000/svg" width="22" height="18" preserveAspectRatio="xMinYMin meet"><path fill="rgba(255,255,255,0)" d="M0 0h2v2H0V0z"/><path fill="#311F13" d="M2 0h2v2H2V0z"/><path fill="#3B281B" d="M4 0h10v2H4V0z"/><path fill="#311F13" d="M14 0h2v2h-2V0z"/><path fill="rgba(255,255,255,0)" d="M16 0h6v4h-2V2h-4V0z"/><path fill="#29180D" d="M0 2h2v2H0V2z"/><path fill="#F7EFE9" d="M2 2h2v2H2V2z"/><path fill="#FFF7F2" d="M4 2h2v2H4V2z"/><path fill="#FBF3ED" d="M6 2h2v2H6V2z"/><path fill="#FFF7F2" d="M8 2h4v2H8V2z"/><path fill="#FBF3ED" d="M12 2h2v2h-2V2z"/><path fill="#FFF7F2" d="M14 2h2v2h-2V2z"/><path fill="#29180D" d="M16 2h2v2h-2V2z"/><path fill="#3B281B" d="M18 2h2v2h-2V2z"/><path fill="#311F13" d="M0 4h2v2H0V4z"/><path fill="#F0E8E2" d="M2 4h14v2H2V4z"/><path fill="#FFF7F2" d="M16 4h2v2h-2V4z"/><path fill="#F7EFE9" d="M18 4h2v2h-2V4z"/><path fill="#3B281B" d="M20 4h2v4h-2V4zM0 6h2v6H0V6z"/><path fill="#FFF7F2" d="M2 6h4v2H2V6z"/><path fill="#FBF3ED" d="M6 6h2v2H6V6z"/><path fill="#FFF7F2" d="M8 6h2v2H8V6z"/><path fill="#FBF3ED" d="M10 6h2v2h-2V6z"/><path fill="#FFF7F2" d="M12 6h4v2h-4V6z"/><path fill="#E2DAD3" d="M16 6h2v2h-2V6z"/><path fill="#FFF7F2" d="M18 6h2v2h-2V6z"/><path fill="#F0E8E2" d="M2 8h14v2H2V8z"/><path fill="#FBF3ED" d="M16 8h2v2h-2V8z"/><path fill="#29180D" d="M18 8h2v2h-2V8z"/><path fill="#8C857F" d="M20 8h2v2h-2V8z"/><path fill="#FBF3ED" d="M2 10h2v2H2v-2z"/><path fill="#FFF7F2" d="M4 10h8v4H8v-2H4v-2z"/><path fill="#FBF3ED" d="M12 10h2v2h-2v-2z"/><path fill="#FFF7F2" d="M14 10h2v2h-2v-2z"/><path fill="#3B281B" d="M16 10h2v2h-2v-2z"/><path fill="rgba(255,255,255,0)" d="M18 10h4v8h-6v-2h2v-6z"/><path fill="#311F13" d="M0 12h2v2H0v-2z"/><path fill="#FFF7F2" d="M2 12h2v2H2v-2z"/><path fill="#F7EFE9" d="M4 12h2v2H4v-2z"/><path fill="#F0E8E2" d="M6 12h2v2H6v-2z"/><path fill="#F7EFE9" d="M12 12h2v2h-2v-2z"/><path fill="#3B281B" d="M14 12h2v2h-2v-2z"/><path fill="#190A00" d="M16 12h2v2h-2v-2z"/><path fill="#29180D" d="M0 14h2v2H0v-2z"/><path fill="#F0E8E2" d="M2 14h2v2H2v-2z"/><path fill="#29180D" d="M4 14h2v2H4v-2z"/><path fill="#3B281B" d="M6 14h2v2H6v-2z"/><path fill="#E2DAD3" d="M8 14h2v2H8v-2z"/><path fill="#29180D" d="M10 14h2v2h-2v-2z"/><path fill="#F0E8E2" d="M12 14h2v2h-2v-2z"/><path fill="#29180D" d="M14 14h2v2h-2v-2z"/><path fill="#F1F0EF" d="M16 14h2v2h-2v-2z"/><path fill="#8C857F" d="M0 16h2v2H0v-2z"/><path fill="#190A00" d="M2 16h2v2H2v-2z"/><path fill="rgba(255,255,255,0)" d="M4 16h2v2H4v-2z"/><path fill="#F1F0EF" d="M6 16h2v2H6v-2z"/><path fill="#190A00" d="M8 16h2v2H8v-2z"/><path fill="#F1F0EF" d="M10 16h2v2h-2v-2z"/><path fill="#190A00" d="M12 16h2v2h-2v-2z"/><path fill="#8C857F" d="M14 16h2v2h-2v-2z"/></svg>