<svg xmlns="http://www.w3.org/2000/svg" preserveAspectRatio="xMinYMin meet" viewBox="0 0 22 16"><path fill="rgb(255,255,255,0)" d="M0 0h2v2H0V0z"/><path fill="#252525" d="M2 0h14v1H2V0z"/><path fill="rgb(255,255,255,0)" d="M16 0h6v4h-2V2h-4V0z"/><path fill="#0A0032" d="M2 1h1v1H2V1z"/><path fill="#1C0453" d="M3 1h1v1H3V1z"/><path fill="#0A0032" d="M4 1h1v1H4V1z"/><path fill="#1C0453" d="M5 1h1v1H5V1z"/><path fill="#0A0032" d="M6 1h1v1H6V1z"/><path d="M7 1h2v1h2v1h2v1h-2v1h2v1h-2v1h2v1h-2v1h2v1h-2v1H6v-1H5V9h1V8H5V7h1V6H5V5h1V4H5V3h1V2h1V1z"/><path fill="#0A0032" d="M9 1h2v1H9V1z"/><path fill="#1C0453" d="M11 1h1v1h-1V1z"/><path fill="#0A0032" d="M12 1h1v1h-1V1z"/><path fill="#1C0453" d="M13 1h1v1h-1V1z"/><path fill="#0A0032" d="M14 1h2v1h-2V1z"/><path fill="#252525" d="M0 2h1v10H0V2z"/><path d="M1 2h1v1H1V2z"/><path fill="#1F3FD3" d="M2 2h1v1H2V2z"/><path fill="#24129B" d="M3 2h1v1H3V2z"/><path fill="#18133B" d="M4 2h1v1H4V2z"/><path fill="#0C0B15" d="M5 2h1v1H5V2z"/><path fill="#0D0A10" d="M11 2h1v1h-1V2z"/><path fill="#160E1D" d="M12 2h2v1h-2V2z"/><path fill="#280749" d="M14 2h1v1h-1V2z"/><path fill="#6E3357" d="M15 2h1v1h-1V2z"/><path fill="#1C0453" d="M16 2h1v1h-1V2z"/><path fill="#0A0032" d="M17 2h1v1h-1V2z"/><path fill="#1C0453" d="M18 2h1v1h-1V2z"/><path fill="#252525" d="M19 2h1v2h-1V2z"/><path fill="#1B1034" d="M1 3h1v1H1V3z"/><path fill="#24129B" d="M2 3h1v1H2V3z"/><path fill="#1C0453" d="M3 3h1v1H3V3z"/><path fill="#0C0B15" d="M4 3h1v1H4V3z"/><path fill="#0D0A10" d="M13 3h1v1h-1V3z"/><path fill="#0A0032" d="M14 3h1v1h-1V3z"/><path fill="#24129B" d="M15 3h1v1h-1V3z"/><path fill="#1B1034" d="M16 3h1v1h-1V3z"/><path fill="#280749" d="M17 3h1v1h-1V3z"/><path fill="#5F336E" d="M18 3h1v1h-1V3z"/><path d="M1 4h1v1H1V4z"/><path fill="#2F32C1" d="M2 4h1v1H2V4z"/><path fill="#24129B" d="M3 4h1v1H3V4z"/><path fill="#18133B" d="M4 4h1v1H4V4z"/><path fill="#0C0B15" d="M5 4h1v1H5V4z"/><path fill="#0D0A10" d="M11 4h1v1h-1V4z"/><path fill="#160E1D" d="M12 4h2v1h-2V4z"/><path fill="#280749" d="M14 4h1v1h-1V4z"/><path fill="#6E336D" d="M15 4h1v1h-1V4z"/><path fill="#1C0453" d="M16 4h1v1h-1V4z"/><path fill="#160E1D" d="M17 4h1v1h-1V4z"/><path fill="#251337" d="M18 4h1v1h-1V4z"/><path fill="#0A0032" d="M19 4h1v1h-1V4z"/><path fill="#1C0453" d="M20 4h1v1h-1V4z"/><path fill="#252525" d="M21 4h1v4h-1V4z"/><path fill="#1B1034" d="M1 5h1v1H1V5z"/><path fill="#24129B" d="M2 5h1v1H2V5z"/><path fill="#1C0453" d="M3 5h1v1H3V5z"/><path fill="#0C0B15" d="M4 5h1v1H4V5z"/><path fill="#0D0A10" d="M13 5h1v1h-1V5z"/><path fill="#0A0032" d="M14 5h1v1h-1V5z"/><path fill="#24129B" d="M15 5h1v1h-1V5z"/><path fill="#1B1034" d="M16 5h1v1h-1V5z"/><path fill="#252525" d="M17 5h1v1h-1V5z"/><path fill="#160E1D" d="M18 5h1v1h-1V5z"/><path fill="#2A2357" d="M19 5h1v1h-1V5z"/><path fill="#0D0A10" d="M20 5h1v1h-1V5z"/><path d="M1 6h1v1H1V6z"/><path fill="#402DB6" d="M2 6h1v1H2V6z"/><path fill="#24129B" d="M3 6h1v1H3V6z"/><path fill="#18133B" d="M4 6h1v1H4V6z"/><path fill="#0C0B15" d="M5 6h1v1H5V6z"/><path fill="#0D0A10" d="M11 6h1v1h-1V6z"/><path fill="#160E1D" d="M12 6h2v1h-2V6z"/><path fill="#280749" d="M14 6h1v1h-1V6z"/><path fill="#5F336E" d="M15 6h1v1h-1V6z"/><path fill="#1C0453" d="M16 6h1v1h-1V6z"/><path fill="rgb(255,255,255,0)" d="M17 6h1v1h-1V6z"/><path fill="#0D0A10" d="M18 6h1v2h1v1h-1v1h-1V6z"/><path fill="#201B43" d="M19 6h1v1h-1V6z"/><path d="M20 6h1v2h-1V6z"/><path fill="#1B1034" d="M1 7h1v1H1V7z"/><path fill="#24129B" d="M2 7h1v1H2V7z"/><path fill="#1C0453" d="M3 7h1v1H3V7z"/><path fill="#0C0B15" d="M4 7h1v1H4V7z"/><path fill="#0D0A10" d="M13 7h1v1h-1V7z"/><path fill="#0A0032" d="M14 7h1v1h-1V7z"/><path fill="#24129B" d="M15 7h1v1h-1V7z"/><path fill="#1B1034" d="M16 7h1v1h-1V7z"/><path d="M17 7h1v1h-1V7z"/><path fill="#160E1D" d="M19 7h1v1h-1V7z"/><path fill="#1C0453" d="M1 8h1v1H1V8z"/><path fill="#4D2DB6" d="M2 8h1v1H2V8z"/><path fill="#24129B" d="M3 8h1v1H3V8z"/><path fill="#18133B" d="M4 8h1v1H4V8z"/><path fill="#0C0B15" d="M5 8h1v1H5V8z"/><path fill="#0D0A10" d="M11 8h1v1h-1V8z"/><path fill="#160E1D" d="M12 8h2v1h-2V8z"/><path fill="#280749" d="M14 8h1v1h-1V8z"/><path fill="#4B336E" d="M15 8h1v1h-1V8z"/><path fill="#1C0453" d="M16 8h1v1h-1V8z"/><path fill="#0A0032" d="M17 8h1v1h-1V8z"/><path fill="rgb(255,255,255,0)" d="M20 8h2v8h-7v-1h1v-3h2v-2h2V8z"/><path d="M1 9h1v1H1V9z"/><path fill="#24129B" d="M2 9h1v1H2V9z"/><path fill="#1C0453" d="M3 9h1v1H3V9z"/><path fill="#0C0B15" d="M4 9h1v1H4V9z"/><path fill="#0D0A10" d="M13 9h1v1h-1V9z"/><path fill="#0A0032" d="M14 9h1v1h-1V9z"/><path fill="#24129B" d="M15 9h1v1h-1V9z"/><path fill="#1B1034" d="M16 9h1v1h-1V9z"/><path fill="#1C0453" d="M17 9h1v1h-1V9z"/><path d="M19 9h1v1h-1V9z"/><path fill="#1C0453" d="M1 10h1v2H1v-2z"/><path fill="#562799" d="M2 10h1v1H2v-1z"/><path fill="#24129B" d="M3 10h1v1H3v-1z"/><path fill="#18133B" d="M4 10h1v1H4v-1z"/><path fill="#0C0B15" d="M5 10h1v1H5v-1z"/><path fill="#0D0A10" d="M11 10h1v1h-1v-1z"/><path fill="#160E1D" d="M12 10h2v1h-1v1h-2v-1h1v-1z"/><path fill="#280749" d="M14 10h1v1h-1v-1z"/><path fill="#3B336E" d="M15 10h1v1h-1v-1z"/><path fill="#1C0453" d="M16 10h1v1h-1v-1z"/><path fill="#0D0A10" d="M17 10h1v1h-1v-1z"/><path d="M2 11h1v1H2v-1z"/><path fill="#3C2078" d="M3 11h1v1H3v-1z"/><path fill="#24129B" d="M4 11h1v1H4v-1z"/><path fill="#18133B" d="M5 11h1v1H5v-1z"/><path fill="#0C0B15" d="M6 11h2v1H6v-1z"/><path fill="#18133B" d="M8 11h1v1H8v-1z"/><path fill="#160E1D" d="M9 11h1v1H9v-1z"/><path fill="#0D0A10" d="M10 11h1v1h-1v-1z"/><path fill="#280749" d="M13 11h1v1h-1v-1z"/><path fill="#363B51" d="M14 11h1v1h-1v-1z"/><path fill="#1C0453" d="M15 11h1v1h-1v-1z"/><path fill="#1B1034" d="M16 11h1v1h-1v-1z"/><path d="M17 11h1v1h-1v-1z"/><path fill="rgb(255,255,255,0)" d="M0 12h1v1h1v2h1v1H0v-4z"/><path fill="#1B1034" d="M1 12h1v1H1v-1z"/><path fill="#0A0032" d="M2 12h1v1H2v-1z"/><path fill="#1C0453" d="M3 12h1v1H3v-1z"/><path fill="#0A0032" d="M4 12h1v1H4v-1z"/><path fill="#0C0B15" d="M5 12h1v1H5v-1z"/><path d="M6 12h6v1h-2v1h3v1H5v-1h2v-1H6v-1z"/><path fill="#0D0A10" d="M12 12h1v1h-1v-1z"/><path fill="#0A0032" d="M13 12h1v1h1v1h-2v-2z"/><path fill="#1C0453" d="M14 12h1v1h-1v-1z"/><path fill="#0A0032" d="M15 12h1v1h-1v-1z"/><path fill="#252525" d="M2 13h1v2H2v-2z"/><path fill="#0A0032" d="M3 13h1v1H3v-1z"/><path fill="#1C0453" d="M4 13h2v1H5v1H4v-2z"/><path fill="#0A0032" d="M6 13h1v1H6v-1zM8 13h1v1H8v-1zM10 13h2v1h-2v-1z"/><path fill="#1C0453" d="M12 13h1v1h-1v-1z"/><path fill="#252525" d="M15 13h1v2h-1v-2z"/><path d="M3 14h1v1H3v-1z"/><path fill="#1C0453" d="M13 14h1v1h-1v-1z"/><path d="M14 14h1v1h-1v-1z"/><path fill="#252525" d="M3 15h12v1H3v-1z"/></svg>