<svg xmlns="http://www.w3.org/2000/svg" width="22" height="16" preserveAspectRatio="xMinYMin meet"><path fill="rgba(255,255,255,0)" d="M0 0h2v2H0V0z"/><path fill="#2C5A97" d="M2 0h6v2H2V0z"/><path fill="#1B4B8B" d="M8 0h2v2H8V0z"/><path fill="#124285" d="M10 0h6v2h-6V0z"/><path fill="rgba(255,255,255,0)" d="M16 0h6v4h-2V2h-4V0z"/><path fill="#2C5A97" d="M0 2h2v4H0V2z"/><path fill="#ADD2F3" d="M2 2h2v2H2V2z"/><path fill="#A5CCF3" d="M4 2h2v2H4V2z"/><path fill="#9AC3F1" d="M6 2h4v2H6V2z"/><path fill="#8DB8F0" d="M10 2h2v2h-2V2z"/><path fill="#82B0EE" d="M12 2h4v2h-4V2z"/><path fill="#124285" d="M16 2h4v2h-4V2z"/><path fill="#156DE6" d="M2 4h4v2H2V4z"/><path fill="#005FE5" d="M6 4h10v2H6V4z"/><path fill="#5A81BD" d="M16 4h2v2h-2V4z"/><path fill="#557BB5" d="M18 4h2v2h-2V4z"/><path fill="#124285" d="M20 4h2v4h-2V4z"/><path fill="#1B4B8B" d="M0 6h2v2H0V6z"/><path fill="#A5CCF3" d="M2 6h2v2H2V6z"/><path fill="#9AC3F1" d="M4 6h2v2H4V6z"/><path fill="#8DB8F0" d="M6 6h4v2H6V6z"/><path fill="#6E9FEC" d="M10 6h4v2h-4V6z"/><path fill="#8DB8F0" d="M14 6h2v2h-2V6z"/><path fill="#124285" d="M16 6h2v2h-2V6z"/><path fill="#608AC8" d="M18 6h2v2h-2V6z"/><path fill="#124285" d="M0 8h2v4H0V8z"/><path fill="#156DE6" d="M2 8h2v2H2V8z"/><path fill="#005FE5" d="M4 8h10v2H4V8z"/><path fill="#156DE6" d="M14 8h2v2h-2V8z"/><path fill="#6491D8" d="M16 8h2v2h-2V8z"/><path fill="#1B4B8B" d="M18 8h2v2h-2V8z"/><path fill="rgba(255,255,255,0)" d="M20 8h2v8h-8v-2h2v-2h2v-2h2V8z"/><path fill="#9AC3F1" d="M2 10h2v2H2v-2z"/><path fill="#8DB8F0" d="M4 10h2v2H4v-2z"/><path fill="#7CA9EE" d="M6 10h2v2H6v-2z"/><path fill="#6E9FEC" d="M8 10h4v2H8v-2z"/><path fill="#8DB8F0" d="M12 10h2v2h-2v-2z"/><path fill="#9AC3F1" d="M14 10h2v2h-2v-2z"/><path fill="#2C5A97" d="M16 10h2v2h-2v-2z"/><path fill="rgba(255,255,255,0)" d="M0 12h2v2h2v2H0v-4z"/><path fill="#124285" d="M2 12h2v2H2v-2z"/><path fill="#2F4769" d="M4 12h4v2H4v-2z"/><path fill="#445C7B" d="M8 12h2v2H8v-2z"/><path fill="#576F8B" d="M10 12h2v2h-2v-2z"/><path fill="#677F99" d="M12 12h2v2h-2v-2z"/><path fill="#2C5A97" d="M14 12h2v2h-2v-2z"/><path fill="#124285" d="M4 14h6v2H4v-2z"/><path fill="#1B4B8B" d="M10 14h4v2h-4v-2z"/></svg>