<svg xmlns="http://www.w3.org/2000/svg" width="22" height="16" preserveAspectRatio="xMinYMin meet"><path fill="rgba(255,255,255,0)" d="M0 0h2v2H0V0z"/><path fill="#AD8908" d="M2 0h2v2H2V0z"/><path fill="#B78E09" d="M4 0h2v2H4V0z"/><path fill="#AD8908" d="M6 0h6v2H6V0z"/><path fill="#B78E09" d="M12 0h2v2h-2V0z"/><path fill="#AD8908" d="M14 0h2v2h-2V0z"/><path fill="rgba(255,255,255,0)" d="M16 0h6v4h-2V2h-4V0z"/><path fill="#AD8908" d="M0 2h2v6H0V2z"/><path fill="#F8D249" d="M2 2h2v2H2V2z"/><path fill="#FFD84C" d="M4 2h2v2H4V2z"/><path fill="#F1CC46" d="M6 2h4v2H6V2z"/><path fill="#F8D249" d="M10 2h2v2h-2V2z"/><path fill="#FFD84C" d="M12 2h2v2h-2V2z"/><path fill="#F1CC46" d="M14 2h2v2h-2V2z"/><path fill="#AD8908" d="M16 2h2v2h-2V2z"/><path fill="#B78E09" d="M18 2h2v2h-2V2z"/><path fill="#FFE97F" d="M2 4h2v2H2V4z"/><path fill="#FFF200" d="M4 4h4v2H4V4z"/><path fill="#FFF33F" d="M8 4h2v2H8V4z"/><path fill="#FFE97F" d="M10 4h2v2h-2V4z"/><path fill="#FFF200" d="M12 4h4v2h-4V4z"/><path fill="#F1CC46" d="M16 4h2v2h-2V4z"/><path fill="#FFD84C" d="M18 4h2v2h-2V4z"/><path fill="#B78E09" d="M20 4h2v2h-2V4z"/><path fill="#FFD84C" d="M2 6h2v2H2V6z"/><path fill="#F1CC46" d="M4 6h4v2H4V6z"/><path fill="#F8D249" d="M8 6h2v2H8V6z"/><path fill="#FFD84C" d="M10 6h2v2h-2V6z"/><path fill="#F1CC46" d="M12 6h4v2h-4V6z"/><path fill="#B78E09" d="M16 6h2v2h-2V6z"/><path fill="#F8D249" d="M18 6h2v2h-2V6z"/><path fill="#AD8908" d="M20 6h2v2h-2V6z"/><path fill="#B78E09" d="M0 8h2v4H0V8z"/><path fill="#FFF200" d="M2 8h4v2H2V8z"/><path fill="#FFF33F" d="M6 8h2v2H6V8z"/><path fill="#FFE97F" d="M8 8h2v2H8V8z"/><path fill="#FFF200" d="M10 8h6v2h-6V8z"/><path fill="#F8D249" d="M16 8h2v2h-2V8z"/><path fill="#AD8908" d="M18 8h2v2h-2V8z"/><path fill="rgba(255,255,255,0)" d="M20 8h2v8h-8v-2h2v-2h2v-2h2V8z"/><path fill="#F1CC46" d="M2 10h4v2H2v-2z"/><path fill="#F8D249" d="M6 10h2v2H6v-2z"/><path fill="#FFD84C" d="M8 10h2v2H8v-2z"/><path fill="#F1CC46" d="M10 10h6v2h-6v-2z"/><path fill="#AD8908" d="M16 10h2v2h-2v-2z"/><path fill="rgba(255,255,255,0)" d="M0 12h2v2h2v2H0v-4z"/><path fill="#AD8908" d="M2 12h2v2H2v-2z"/><path fill="#CEA40A" d="M4 12h4v2H4v-2z"/><path fill="#EFBE0B" d="M8 12h2v2H8v-2z"/><path fill="#DDB00B" d="M10 12h2v2h-2v-2z"/><path fill="#CEA40A" d="M12 12h2v2h-2v-2z"/><path fill="#AD8908" d="M14 12h2v2h-2v-2zM4 14h2v2H4v-2z"/><path fill="#B78E09" d="M6 14h2v2H6v-2z"/><path fill="#AD8908" d="M8 14h6v2H8v-2z"/></svg>