<svg xmlns="http://www.w3.org/2000/svg" preserveAspectRatio="xMinYMin meet" viewBox="0 0 22 16"><path fill="rgb(255,255,255,0)" d="M0 0h2v2H0V0z"/><path fill="#52361B" d="M2 0h14v2H2V0z"/><path fill="rgb(255,255,255,0)" d="M16 0h6v4h-2V2h-4V0z"/><path fill="#52361B" d="M0 2h2v10H0V2z"/><path fill="#DA6C00" d="M2 2h14v2h4v4h-2V6h-2v2h2v2h-2v2H2V2z"/><path fill="#52361B" d="M16 2h4v2h-4V2z"/><path fill="#B75E06" d="M7 4h1v1H7V4z"/><path fill="#52361B" d="M8 4h2v1h1v2h-1v1H8V7H7V5h1V4z"/><path fill="#B75E06" d="M10 4h1v1h-1V4z"/><path fill="#52361B" d="M20 4h2v4h-2V4z"/><path fill="#B75E06" d="M6 5h1v1H6V5zM11 5h1v1h-1V5z"/><path fill="#633C17" d="M6 6h1v1H6V6zM11 6h1v1h-1V6z"/><path fill="#52361B" d="M16 6h2v2h-2V6z"/><path fill="#714214" d="M6 7h1v1H6V7z"/><path fill="#633C17" d="M7 7h1v1H7V7zM10 7h1v1h-1V7z"/><path fill="#714214" d="M11 7h1v1h-1V7z"/><path fill="#B75E06" d="M6 8h1v1H6V8z"/><path fill="#714214" d="M7 8h1v1H7V8z"/><path fill="#633C17" d="M8 8h2v1H8V8z"/><path fill="#714214" d="M10 8h1v1h-1V8z"/><path fill="#B75E06" d="M11 8h1v1h-1V8z"/><path fill="#52361B" d="M18 8h2v2h-2V8z"/><path fill="rgb(255,255,255,0)" d="M20 8h2v8h-8v-2h2v-2h2v-2h2V8z"/><path fill="#B75E06" d="M7 9h1v1H7V9z"/><path fill="#714214" d="M8 9h2v1H8V9z"/><path fill="#B75E06" d="M10 9h1v1h-1V9z"/><path fill="#52361B" d="M16 10h2v2h-2v-2z"/><path fill="rgb(255,255,255,0)" d="M0 12h2v2h2v2H0v-4z"/><path fill="#52361B" d="M2 12h2v2H2v-2z"/><path fill="#A35000" d="M4 12h10v2H4v-2z"/><path fill="#52361B" d="M14 12h2v2h-2v-2zM4 14h10v2H4v-2z"/></svg>