<svg xmlns="http://www.w3.org/2000/svg" preserveAspectRatio="xMinYMin meet" viewBox="0 0 22 16"><path fill="rgb(255,255,255,0)" d="M0 0h2v2H0V0z"/><path fill="#205B7E" d="M2 0h14v2H2V0z"/><path fill="rgb(255,255,255,0)" d="M16 0h6v4h-2V2h-4V0z"/><path fill="#205B7E" d="M0 2h2v10H0V2z"/><path fill="#47A2DA" d="M2 2h2v2H2V2z"/><path fill="#1D91D8" d="M4 2h6v2H4V2z"/><path fill="#67AFDB" d="M10 2h2v2h-2V2z"/><path fill="#7FB9DD" d="M12 2h2v2h-2V2z"/><path fill="#1D91D8" d="M14 2h2v2h-2V2z"/><path fill="#205B7E" d="M16 2h4v2h-4V2z"/><path fill="#FFF" d="M2 4h2v2H2V4z"/><path fill="#7FC9F7" d="M4 4h2v2H4V4z"/><path fill="#1DA1F2" d="M6 4h2v2H6V4z"/><path fill="#9FD6F9" d="M8 4h2v2H8V4z"/><path fill="#FFF" d="M10 4h4v4h-2v2h-2v2H6v-2H4V8h4V6h2V4z"/><path fill="#B7E0FA" d="M14 4h2v2h-2V4z"/><path fill="#1D91D8" d="M16 4h4v4h-2V6h-2V4z"/><path fill="#205B7E" d="M20 4h2v4h-2V4z"/><path fill="#7FC9F7" d="M2 6h2v2H2V6z"/><path fill="#F1F8FC" d="M4 6h2v2H4V6z"/><path fill="#D6EDFC" d="M6 6h2v2H6V6z"/><path fill="#1DA1F2" d="M14 6h2v6h-4v-2h2V6z"/><path fill="#205B7E" d="M16 6h2v2h-2V6z"/><path fill="#1DA1F2" d="M2 8h2v2H2V8z"/><path fill="#B7E0FA" d="M12 8h2v2h-2V8z"/><path fill="#1D91D8" d="M16 8h2v2h-2V8z"/><path fill="#205B7E" d="M18 8h2v2h-2V8z"/><path fill="rgb(255,255,255,0)" d="M20 8h2v8h-8v-2h2v-2h2v-2h2V8z"/><path fill="#55B8F5" d="M2 10h2v2H2v-2z"/><path fill="#9FD6F9" d="M4 10h2v2H4v-2z"/><path fill="#E0F1FC" d="M10 10h2v2h-2v-2z"/><path fill="#205B7E" d="M16 10h2v2h-2v-2z"/><path fill="rgb(255,255,255,0)" d="M0 12h2v2h2v2H0v-4z"/><path fill="#205B7E" d="M2 12h2v2H2v-2z"/><path fill="#39ACF3" d="M4 12h2v2H4v-2z"/><path fill="#6AC0F6" d="M6 12h2v2H6v-2z"/><path fill="#8FCFF8" d="M8 12h2v2H8v-2z"/><path fill="#39ACF3" d="M10 12h4v2h-4v-2z"/><path fill="#205B7E" d="M14 12h2v2h-2v-2zM4 14h10v2H4v-2z"/></svg>