<svg xmlns="http://www.w3.org/2000/svg" preserveAspectRatio="xMinYMin meet" viewBox="0 0 22 16"><path fill="rgb(255,255,255,0)" d="M0 0h2v2H0V0z"/><path fill="#3D5521" d="M2 0h14v2H2V0z"/><path fill="rgb(255,255,255,0)" d="M16 0h6v4h-2V2h-4V0z"/><path fill="#3D5521" d="M0 2h2v10H0V2z"/><path fill="#85E516" d="M2 2h14v2h4v4h-2V6h-2v2h2v2h-2v2H2V2z"/><path fill="#3D5521" d="M16 2h4v2h-4V2zM6 4h2v1h2v2H8v1H6V4z"/><path fill="#72C018" d="M8 4h1v1H8V4z"/><path fill="#7BD217" d="M9 4h1v1H9V4z"/><path fill="#3D5521" d="M20 4h2v4h-2V4z"/><path fill="#72C018" d="M10 5h1v1h-1V5z"/><path fill="#7BD217" d="M11 5h1v1h-1V5z"/><path fill="#46671F" d="M10 6h2v1h-2V6z"/><path fill="#3D5521" d="M16 6h2v2h-2V6z"/><path fill="#46671F" d="M8 7h2v1H8V7z"/><path fill="#4D761D" d="M10 7h2v1h-2V7z"/><path fill="#46671F" d="M6 8h2v1H6V8z"/><path fill="#4D761D" d="M8 8h2v1H8V8z"/><path fill="#72C018" d="M10 8h1v1h-1V8z"/><path fill="#7BD217" d="M11 8h1v1h-1V8z"/><path fill="#3D5521" d="M18 8h2v2h-2V8z"/><path fill="rgb(255,255,255,0)" d="M20 8h2v8h-8v-2h2v-2h2v-2h2V8z"/><path fill="#4D761D" d="M6 9h2v1H6V9z"/><path fill="#72C018" d="M8 9h1v1H8V9z"/><path fill="#7BD217" d="M9 9h1v1H9V9z"/><path fill="#3D5521" d="M16 10h2v2h-2v-2z"/><path fill="rgb(255,255,255,0)" d="M0 12h2v2h2v2H0v-4z"/><path fill="#3D5521" d="M2 12h2v2H2v-2z"/><path fill="#6CB419" d="M4 12h10v2H4v-2z"/><path fill="#3D5521" d="M14 12h2v2h-2v-2zM4 14h10v2H4v-2z"/></svg>