<svg xmlns="http://www.w3.org/2000/svg" preserveAspectRatio="xMinYMin meet" viewBox="0 0 24 18"><path fill="rgb(255,255,255,0)" d="M0 0h4v2H2v4H0V0z"/><path fill="#252525" d="M4 0h14v2H4V0z"/><path fill="rgb(255,255,255,0)" d="M18 0h6v4h-2V2h-4V0z"/><path fill="#252525" d="M2 2h2v2h4v2H2V2z"/><path fill="#ED1C24" d="M4 2h14v8h-4v2H8v-2h2V6H8V4H4V2z"/><path fill="#252525" d="M18 2h4v2h-4V2z"/><path fill="#982630" d="M18 4h4v4h-2V6h-2V4z"/><path fill="#252525" d="M22 4h2v4h-2V4zM0 6h2v4H0V6z"/><path fill="#99D9EA" d="M2 6h2v2h4v2H2V6z"/><path fill="#FFF" d="M4 6h4v2H4V6z"/><path fill="#252525" d="M8 6h2v4H8V6zM18 6h2v2h-2V6z"/><path fill="#982630" d="M18 8h2v2h-2V8z"/><path fill="#252525" d="M20 8h2v2h-2V8z"/><path fill="rgb(255,255,255,0)" d="M22 8h2v10H14v-2h2v-2h2v-2h2v-2h2V8zM0 10h2v2h2v4h2v2H0v-8z"/><path fill="#252525" d="M2 10h6v2H6v4H4v-4H2v-2z"/><path fill="#982630" d="M14 10h4v2h-2v2h-2v2h-2v-2H8v2H6v-4h8v-2z"/><path fill="#252525" d="M18 10h2v2h-2v-2zM16 12h2v2h-2v-2zM8 14h4v2H8v-2zM14 14h2v2h-2v-2zM6 16h2v2H6v-2z"/><path fill="rgb(255,255,255,0)" d="M8 16h4v2H8v-2z"/><path fill="#252525" d="M12 16h2v2h-2v-2z"/></svg>