<svg xmlns="http://www.w3.org/2000/svg" width="22" height="16" preserveAspectRatio="xMinYMin meet"><path fill="rgba(255,255,255,0)" d="M0 0h2v2H0V0z"/><path fill="#252525" d="M2 0h6v2H2V0z"/><path fill="#993D00" d="M8 0h2v2H8V0z"/><path fill="#252525" d="M10 0h6v2h-6V0z"/><path fill="rgba(255,255,255,0)" d="M16 0h6v4h-2V2h-4V0z"/><path fill="#252525" d="M0 2h2v10H0V2z"/><path d="M2 2h6v2H2V2z"/><path fill="#7F3300" d="M8 2h2v2H8V2z"/><path d="M10 2h6v2h-6V2z"/><path fill="#252525" d="M16 2h4v2h-4V2z"/><path fill="#FC0" d="M2 4h8v2H2V4z"/><path fill="#993D00" d="M10 4h2v2h-2V4z"/><path fill="red" d="M12 4h2v2h-2V4z"/><path fill="#FC0" d="M14 4h2v2h-2V4z"/><path d="M16 4h4v4h-2V6h-2V4z"/><path fill="#252525" d="M20 4h2v4h-2V4z"/><path d="M2 6h8v2H2V6z"/><path fill="red" d="M10 6h2v2h-2V6z"/><path d="M12 6h4v2h-4V6z"/><path fill="#252525" d="M16 6h2v2h-2V6z"/><path fill="#FC0" d="M2 8h14v2H2V8z"/><path d="M16 8h2v2h-2V8z"/><path fill="#252525" d="M18 8h2v2h-2V8z"/><path fill="rgba(255,255,255,0)" d="M20 8h2v8h-8v-2h2v-2h2v-2h2V8z"/><path d="M2 10h14v2H2v-2z"/><path fill="#252525" d="M16 10h2v2h-2v-2z"/><path fill="rgba(255,255,255,0)" d="M0 12h2v2h2v2H0v-4z"/><path fill="#252525" d="M2 12h2v2H2v-2z"/><path fill="#333" d="M4 12h10v2H4v-2z"/><path fill="#252525" d="M14 12h2v2h-2v-2zM4 14h10v2H4v-2z"/></svg>