<svg xmlns="http://www.w3.org/2000/svg" preserveAspectRatio="xMinYMin meet" viewBox="0 0 22 16"><path fill="rgb(255,255,255,0)" d="M0 0h2v2H0V0z"/><path fill="#262626" d="M2 0h1v1H2V0z"/><path fill="#252525" d="M3 0h13v2H2V1h1V0z"/><path fill="rgb(255,255,255,0)" d="M16 0h6v4h-2V2h-4V0z"/><path fill="#262626" d="M0 2h1v1H0V2z"/><path fill="#252525" d="M1 2h1v10H0V3h1V2z"/><path fill="#7F7F7F" d="M2 2h14v2h-1V3h-3v6h1V6h2V5h1V4h4v4h-2v2h-2v2h-2v2H4v-2H2V2z"/><path fill="#252525" d="M16 2h4v2h-4V2z"/><path fill="#FFF" d="M3 3h3v1H4v2h1v1H4v2H3V3zM9 3h1v6H9V3zM12 3h3v1h-2v1h2v1h-2v3h-1V3z"/><path fill="#7F7F7F" d="M4 4h2v1H5v1H4V4z"/><path fill="#FFF" d="M6 4h1v1H6V4z"/><path fill="#7F7F7F" d="M13 4h2v1h-2V4z"/><path fill="#FFF" d="M15 4h1v1h-1V4z"/><path fill="#252525" d="M20 4h2v4h-2V4z"/><path fill="#FFF" d="M5 5h1v1H5V5z"/><path fill="#252525" d="M16 6h2v2h-2V6z"/><path fill="#FFF" d="M5 7h1v1H5V7zM6 8h1v1H6V8z"/><path fill="#252525" d="M18 8h2v2h-2V8z"/><path fill="rgb(255,255,255,0)" d="M20 8h2v8h-8v-2h2v-2h2v-2h2V8z"/><path fill="#252525" d="M16 10h2v2h-2v-2z"/><path fill="rgb(255,255,255,0)" d="M0 12h2v2h2v2H0v-4z"/><path fill="#252525" d="M2 12h2v2H2v-2zM14 12h2v2h-2v-2zM4 14h10v2H4v-2z"/></svg>