<svg xmlns="http://www.w3.org/2000/svg" width="22" height="16" preserveAspectRatio="xMinYMin meet"><path fill="rgba(255,255,255,0)" d="M0 0h2v2H0V0z"/><path fill="#352011" d="M2 0h14v2H2V0z"/><path fill="rgba(255,255,255,0)" d="M16 0h6v4h-2V2h-4V0z"/><path fill="#352011" d="M0 2h2v10H0V2z"/><path fill="#9D6F4E" d="M2 2h2v2H2V2z"/><path fill="#A57552" d="M4 2h2v2H4V2z"/><path fill="#9D6F4E" d="M6 2h6v2H6V2z"/><path fill="#A57552" d="M12 2h2v2h-2V2z"/><path fill="#9D6F4E" d="M14 2h2v2h-2V2z"/><path fill="#352011" d="M16 2h4v2h-4V2z"/><path fill="#FC0" d="M2 4h14v2H2V4z"/><path fill="#9D6F4E" d="M16 4h4v4h-2V6h-2V4z"/><path fill="#352011" d="M20 4h2v4h-2V4z"/><path fill="#A57552" d="M2 6h2v2H2V6z"/><path fill="#9D6F4E" d="M4 6h6v2H4V6z"/><path fill="#A57552" d="M10 6h2v2h-2V6z"/><path fill="#9D6F4E" d="M12 6h4v2h-4V6z"/><path fill="#352011" d="M16 6h2v2h-2V6z"/><path fill="#FC0" d="M2 8h14v2H2V8z"/><path fill="#9D6F4E" d="M16 8h2v2h-2V8z"/><path fill="#352011" d="M18 8h2v2h-2V8z"/><path fill="rgba(255,255,255,0)" d="M20 8h2v8h-8v-2h2v-2h2v-2h2V8z"/><path fill="#9D6F4E" d="M2 10h6v2H2v-2z"/><path fill="#A57552" d="M8 10h2v2H8v-2z"/><path fill="#9D6F4E" d="M10 10h6v2h-6v-2z"/><path fill="#352011" d="M16 10h2v2h-2v-2z"/><path fill="rgba(255,255,255,0)" d="M0 12h2v2h2v2H0v-4z"/><path fill="#352011" d="M2 12h2v2H2v-2z"/><path fill="#7F4A24" d="M4 12h4v2H4v-2z"/><path fill="#7F5A3F" d="M8 12h2v2H8v-2z"/><path fill="#9B806C" d="M10 12h2v2h-2v-2z"/><path fill="#7F4A24" d="M12 12h2v2h-2v-2z"/><path fill="#352011" d="M14 12h2v2h-2v-2zM4 14h10v2H4v-2z"/></svg>