<svg xmlns="http://www.w3.org/2000/svg" width="16" height="26" preserveAspectRatio="xMinYMin meet"><path fill="rgba(255,255,255,0)" d="M0 0h8v4H4v2H2v4H0V0z"/><path fill="#6F4800" d="M8 0h2v2H8V0z"/><path fill="rgba(255,255,255,0)" d="M10 0h6v12h-2v-2h-2V8h-2V6H8V4h2V0z"/><path fill="#CF6F00" d="M8 2h2v2H8V2z"/><path fill="#5B1B1B" d="M4 4h2v2H4V4z"/><path fill="#CF8423" d="M6 4h2v2H6V4z"/><path fill="#6F3217" d="M2 6h2v2H2V6z"/><path fill="#FF0D00" d="M4 6h2v2H4V6z"/><path fill="#9F5C00" d="M6 6h2v2H6V6z"/><path fill="#5B1B1B" d="M8 6h2v2H8V6zM2 8h2v2H2V8z"/><path fill="red" d="M4 8h2v2H4V8z"/><path fill="#6F4800" d="M6 8h2v2H6V8z"/><path fill="#FF0D00" d="M8 8h2v2H8V8z"/><path fill="#6F3217" d="M10 8h2v2h-2V8z"/><path fill="#652619" d="M0 10h2v2H0v-2z"/><path fill="#FF1B00" d="M2 10h2v2H2v-2z"/><path fill="#FFF" d="M4 10h2v14H4V10z"/><path fill="red" d="M6 10h2v2H6v-2z"/><path fill="#FFF" d="M8 10h2v14H8V10z"/><path fill="red" d="M10 10h2v2h-2v-2z"/><path fill="#5B1B1B" d="M12 10h2v2h-2v-2z"/><path fill="#6F3217" d="M0 12h2v2H0v-2z"/><path fill="red" d="M2 12h2v2H2v-2z"/><path fill="#FF1B00" d="M6 12h2v2H6v-2zM10 12h2v2h-2v-2z"/><path fill="#DF5F5F" d="M12 12h2v2h-2v-2z"/><path fill="#5B1B1B" d="M14 12h2v2h-2v-2zM0 14h2v4H0v-4z"/><path fill="#FF1B00" d="M2 14h2v2H2v-2z"/><path fill="red" d="M6 14h2v2H6v-2zM10 14h2v4h-2v-4z"/><path fill="#E16659" d="M12 14h2v2h-2v-2z"/><path fill="#6F3217" d="M14 14h2v2h-2v-2z"/><path fill="#FF0D00" d="M2 16h2v2H2v-2zM6 16h2v2H6v-2z"/><path fill="#E36E53" d="M12 16h2v2h-2v-2z"/><path fill="#5B1B1B" d="M14 16h2v2h-2v-2z"/><path fill="#6F3217" d="M0 18h2v2H0v-2z"/><path fill="red" d="M2 18h2v2H2v-2z"/><path fill="#FF1B00" d="M6 18h2v2H6v-2z"/><path fill="#FF0D00" d="M10 18h2v2h-2v-2z"/><path fill="#DF5F5F" d="M12 18h2v4h-2v-4z"/><path fill="#652619" d="M14 18h2v2h-2v-2z"/><path fill="#5B1B1B" d="M0 20h2v4H0v-4z"/><path fill="#FF0D00" d="M2 20h2v2H2v-2z"/><path fill="red" d="M6 20h2v4H6v-4z"/><path fill="#FF1B00" d="M10 20h2v2h-2v-2z"/><path fill="#5B1B1B" d="M14 20h2v2h-2v-2z"/><path fill="red" d="M2 22h2v2H2v-2zM10 22h2v2h-2v-2z"/><path fill="#5B1B1B" d="M12 22h2v2h-2v-2z"/><path fill="rgba(255,255,255,0)" d="M14 22h2v4h-4v-2h2v-2zM0 24h2v2H0v-2z"/><path fill="#5B1B1B" d="M2 24h10v2H2v-2z"/></svg>