<svg xmlns="http://www.w3.org/2000/svg" width="22" height="16" preserveAspectRatio="xMinYMin meet"><path fill="rgba(255,255,255,0)" d="M0 0h2v2H0V0z"/><path fill="#6FBCFF" d="M2 0h2v2H2V0z"/><path fill="#52C7FF" d="M4 0h2v2H4V0z"/><path fill="#6FBCFF" d="M6 0h10v2H6V0z"/><path fill="rgba(255,255,255,0)" d="M16 0h6v4h-2V2h-4V0z"/><path fill="#52C7FF" d="M0 2h2v2H0V2z"/><path fill="#1E8FFF" d="M2 2h14v10h-6v-2H8v2H2V8h4V4H2V2z"/><path fill="#6FBCFF" d="M16 2h4v2h-4V2zM0 4h2v6H0V4z"/><path fill="#0F0FFF" d="M2 4h2v2H2V4z"/><path fill="#1D1DFF" d="M4 4h2v2H4V4z"/><path fill="#0F0FFF" d="M10 4h2v2h-2V4z"/><path fill="#1D1DFF" d="M12 4h2v2h-2V4z"/><path fill="#1B83E5" d="M16 4h2v2h-2V4z"/><path fill="#1D8BF2" d="M18 4h2v4h-2V4z"/><path fill="#6FBCFF" d="M20 4h2v4h-2V4z"/><path fill="#00F" d="M2 6h2v2H2V6z"/><path fill="#0F0FFF" d="M4 6h2v2H4V6z"/><path fill="#00F" d="M10 6h2v2h-2V6z"/><path fill="#0F0FFF" d="M12 6h2v2h-2V6z"/><path fill="#6AB5F2" d="M16 6h2v2h-2V6z"/><path fill="#1B83E5" d="M16 8h2v2h-2V8z"/><path fill="#6FBCFF" d="M18 8h2v2h-2V8z"/><path fill="rgba(255,255,255,0)" d="M20 8h2v8h-8v-2h2v-2h2v-2h2V8z"/><path fill="#6AB5F2" d="M0 10h2v2H0v-2z"/><path fill="#00F" d="M8 10h2v2H8v-2z"/><path fill="#52C7FF" d="M16 10h2v2h-2v-2z"/><path fill="rgba(255,255,255,0)" d="M0 12h2v2h2v2H0v-4z"/><path fill="#52C7FF" d="M2 12h2v2H2v-2z"/><path fill="#1B83E5" d="M4 12h10v2H4v-2z"/><path fill="#6AB5F2" d="M14 12h2v2h-2v-2z"/><path fill="#64ABE5" d="M4 14h10v2H4v-2z"/></svg>