<svg xmlns="http://www.w3.org/2000/svg" width="22" height="16" preserveAspectRatio="xMinYMin meet"><path fill="rgba(255,255,255,0)" d="M0 0h2v2H0V0z"/><path fill="#252525" d="M2 0h14v2H2V0z"/><path fill="rgba(255,255,255,0)" d="M16 0h6v4h-2V2h-4V0z"/><path fill="#252525" d="M0 2h2v10H0V2z"/><path fill="#C5D3DF" d="M2 2h1v1H2V2z"/><path fill="#BDD0E3" d="M3 2h1v1H3V2z"/><path fill="#B7D2E0" d="M4 2h1v1H4V2z"/><path fill="#C3D2DF" d="M5 2h1v1H5V2z"/><path fill="#B6D3E5" d="M6 2h1v1H6V2z"/><path fill="#B6DBDA" d="M7 2h1v1H7V2z"/><path fill="#BCDFDD" d="M8 2h1v1H8V2z"/><path fill="#B3DAE0" d="M9 2h1v1H9V2z"/><path fill="#BFD1E1" d="M10 2h1v1h-1V2z"/><path fill="#B5E2D8" d="M11 2h1v1h-1V2z"/><path fill="#B2DBD3" d="M12 2h1v1h-1V2z"/><path fill="#C5D5D6" d="M13 2h1v1h-1V2z"/><path fill="#B2E1DF" d="M14 2h1v1h-1V2z"/><path fill="#C2DBDB" d="M15 2h1v1h-1V2z"/><path fill="#252525" d="M16 2h4v2h-4V2z"/><path fill="#B9D4D7" d="M2 3h1v1H2V3z"/><path fill="#B7D5DC" d="M3 3h1v1H3V3z"/><path fill="#C4D2D5" d="M4 3h1v1H4V3z"/><path fill="#B7D6E0" d="M5 3h1v1H5V3z"/><path fill="#BFDDE0" d="M6 3h1v1H6V3z"/><path fill="#BEDCE3" d="M7 3h1v1H7V3z"/><path fill="#C5DAE4" d="M8 3h1v1H8V3z"/><path fill="#BED8E1" d="M9 3h1v1H9V3z"/><path fill="#B2D6D9" d="M10 3h1v1h-1V3z"/><path fill="#B7E0E5" d="M11 3h1v1h-1V3z"/><path fill="#FEFF08" d="M12 3h1v1h-1V3z"/><path fill="#BED6D4" d="M13 3h1v1h-1V3z"/><path fill="#BFD7D7" d="M14 3h1v1h-1V3z"/><path fill="#C3DEDA" d="M15 3h1v1h-1V3z"/><path fill="#C5D9D9" d="M2 4h1v1H2V4z"/><path fill="#BCE1E4" d="M3 4h1v1H3V4z"/><path fill="#C3D5D6" d="M4 4h1v1H4V4z"/><path fill="#C1D7DD" d="M5 4h1v1H5V4z"/><path fill="#B6E0E2" d="M6 4h1v1H6V4z"/><path fill="#C4D5E3" d="M7 4h1v1H7V4z"/><path fill="#B7D8DA" d="M8 4h1v1H8V4z"/><path fill="#B7DFDF" d="M9 4h1v1H9V4z"/><path fill="#FFF50E" d="M10 4h1v1h-1V4z"/><path fill="#FF0" d="M11 4h1v1h-1V4z"/><path fill="#FFFF05" d="M12 4h1v1h-1V4z"/><path fill="#F7F902" d="M13 4h1v1h-1V4z"/><path fill="#F4FF02" d="M14 4h1v1h-1V4z"/><path fill="#B7D6DC" d="M15 4h1v1h-1V4z"/><path fill="#BCDADD" d="M16 4h4v4h-2V6h-2V4z"/><path fill="#252525" d="M20 4h2v4h-2V4z"/><path fill="#BCE0D5" d="M2 5h1v1H2V5z"/><path fill="#C3E1E1" d="M3 5h1v1H3V5z"/><path fill="#C1D8E1" d="M4 5h1v1H4V5z"/><path fill="#B4D2DF" d="M5 5h1v1H5V5z"/><path fill="#FCFF04" d="M6 5h1v1H6V5z"/><path fill="#BCE0D9" d="M7 5h1v1H7V5z"/><path fill="#C4D3D6" d="M8 5h1v1H8V5z"/><path fill="#F8FF00" d="M9 5h1v1H9V5z"/><path fill="#F3FC03" d="M10 5h1v1h-1V5z"/><path fill="#F8FF0B" d="M11 5h1v1h-1V5z"/><path fill="#636B01" d="M12 5h1v1h-1V5z"/><path fill="#393204" d="M13 5h1v1h-1V5z"/><path fill="#F2F800" d="M14 5h1v1h-1V5z"/><path fill="#B3DBD7" d="M15 5h1v1h-1V5z"/><path fill="#C4DFE6" d="M2 6h1v1H2V6z"/><path fill="#B6DEE0" d="M3 6h1v1H3V6z"/><path fill="#B9D9D9" d="M4 6h1v1H4V6z"/><path fill="#B7DAD6" d="M5 6h1v1H5V6z"/><path fill="#F8F500" d="M6 6h1v1H6V6z"/><path fill="#F2F206" d="M7 6h1v1H7V6z"/><path fill="#F2C60F" d="M8 6h1v1H8V6z"/><path fill="#F6C10B" d="M9 6h1v1H9V6z"/><path fill="#F7B301" d="M10 6h1v1h-1V6z"/><path fill="#FDFF03" d="M11 6h1v1h-1V6z"/><path fill="#FDFF00" d="M12 6h1v1h-1V6z"/><path fill="#656900" d="M13 6h1v1h-1V6z"/><path fill="#FAFF00" d="M14 6h1v1h-1V6z"/><path fill="#BCD7DC" d="M15 6h1v1h-1V6z"/><path fill="#252525" d="M16 6h2v2h-2V6z"/><path fill="#B3D2DE" d="M2 7h1v1H2V7z"/><path fill="#BDE3E6" d="M3 7h1v1H3V7z"/><path fill="#BBD9D7" d="M4 7h1v1H4V7z"/><path fill="#C3D5DC" d="M5 7h1v1H5V7z"/><path fill="#FFF700" d="M6 7h1v1H6V7z"/><path fill="#FFFC00" d="M7 7h1v1H7V7z"/><path fill="#F7FF07" d="M8 7h1v1H8V7z"/><path fill="#F1C00B" d="M9 7h1v1H9V7z"/><path fill="#F8BA0C" d="M10 7h1v1h-1V7z"/><path fill="#FFBA0F" d="M11 7h1v1h-1V7z"/><path fill="#FAF906" d="M12 7h1v1h-1V7z"/><path fill="#F6F20B" d="M13 7h1v1h-1V7z"/><path fill="#BFE0E3" d="M14 7h1v1h-1V7z"/><path fill="#C4E0D7" d="M15 7h1v1h-1V7z"/><path fill="#C0DBD9" d="M2 8h1v1H2V8z"/><path fill="#B8D4D8" d="M3 8h1v1H3V8z"/><path fill="#BBD3E5" d="M4 8h1v1H4V8z"/><path fill="#B6DCD4" d="M5 8h1v1H5V8z"/><path fill="#FEF700" d="M6 8h1v1H6V8z"/><path fill="#F6FA0B" d="M7 8h1v1H7V8z"/><path fill="#FFF606" d="M8 8h1v1H8V8z"/><path fill="#F3F605" d="M9 8h1v1H9V8z"/><path fill="#F0BE0B" d="M10 8h1v1h-1V8z"/><path fill="#B7D8E3" d="M11 8h1v1h-1V8z"/><path fill="#BDD4E3" d="M12 8h1v1h-1V8z"/><path fill="#C1E1D5" d="M13 8h1v1h-1V8z"/><path fill="#C4D7E4" d="M14 8h1v1h-1V8z"/><path fill="#B7D3DF" d="M15 8h1v1h-1V8z"/><path fill="#BCDADD" d="M16 8h2v2h-2V8z"/><path fill="#252525" d="M18 8h2v2h-2V8z"/><path fill="rgba(255,255,255,0)" d="M20 8h2v8h-8v-2h2v-2h2v-2h2V8z"/><path fill="#BBD3DA" d="M2 9h1v1H2V9z"/><path fill="#BEE2DF" d="M3 9h1v1H3V9z"/><path fill="#BEE3D6" d="M4 9h1v1H4V9z"/><path fill="#B6D1DD" d="M5 9h1v1H5V9z"/><path fill="#FAFF00" d="M6 9h1v1H6V9z"/><path fill="#FAF900" d="M7 9h1v1H7V9z"/><path fill="#FFFF06" d="M8 9h1v1H8V9z"/><path fill="#FDF201" d="M9 9h1v1H9V9z"/><path fill="#F5F305" d="M10 9h1v1h-1V9z"/><path fill="#FCFF08" d="M11 9h1v1h-1V9z"/><path fill="#B9D0DF" d="M12 9h1v1h-1V9z"/><path fill="#B4E1E1" d="M13 9h1v1h-1V9z"/><path fill="#B8D8E3" d="M14 9h1v1h-1V9z"/><path fill="#C4D3DD" d="M15 9h1v1h-1V9z"/><path fill="#C0DAE4" d="M2 10h1v1H2v-1z"/><path fill="#B9D5D5" d="M3 10h1v1H3v-1z"/><path fill="#B5D8D6" d="M4 10h1v1H4v-1z"/><path fill="#F5F300" d="M5 10h1v1H5v-1z"/><path fill="#FFFF06" d="M6 10h1v1H6v-1z"/><path fill="#F5F300" d="M7 10h1v1H7v-1z"/><path fill="#F2F806" d="M8 10h1v1H8v-1z"/><path fill="#F5F400" d="M9 10h1v1H9v-1z"/><path fill="#FFFF0E" d="M10 10h1v1h-1v-1z"/><path fill="#FFF90C" d="M11 10h1v1h-1v-1z"/><path fill="#C2DAD4" d="M12 10h1v1h-1v-1z"/><path fill="#BDD4E2" d="M13 10h1v1h-1v-1z"/><path fill="#BEE3E4" d="M14 10h1v1h-1v-1z"/><path fill="#BED6D4" d="M15 10h1v1h-1v-1z"/><path fill="#252525" d="M16 10h2v2h-2v-2z"/><path fill="#BFDAE5" d="M2 11h1v1H2v-1z"/><path fill="#B8DAE3" d="M3 11h1v1H3v-1z"/><path fill="#BAD8D6" d="M4 11h1v1H4v-1z"/><path fill="#BEE0D6" d="M5 11h1v1H5v-1z"/><path fill="#BFD0E1" d="M6 11h1v1H6v-1z"/><path fill="#241F29" d="M7 11h1v1H7v-1z"/><path fill="#B6D4DC" d="M8 11h1v1H8v-1z"/><path fill="#B4D1D3" d="M9 11h1v1H9v-1z"/><path fill="#B3DFD7" d="M10 11h1v1h-1v-1z"/><path fill="#27222D" d="M11 11h1v1h-1v-1z"/><path fill="#26261B" d="M12 11h1v1h-1v-1z"/><path fill="#C5DFD7" d="M13 11h1v1h-1v-1z"/><path fill="#BBD4DA" d="M14 11h1v1h-1v-1z"/><path fill="#BAD4DC" d="M15 11h1v1h-1v-1z"/><path fill="rgba(255,255,255,0)" d="M0 12h2v2h2v2H0v-4z"/><path fill="#252525" d="M2 12h2v2H3v-1H2v-1z"/><path fill="#BEE1E3" d="M4 12h1v1H4v-1z"/><path fill="#C2E1D3" d="M5 12h1v1H5v-1z"/><path fill="#1F201C" d="M6 12h1v1H6v-1z"/><path fill="#C2E3E1" d="M7 12h1v1H7v-1z"/><path fill="#BEDFDF" d="M8 12h1v1H8v-1z"/><path fill="#B2E3DB" d="M9 12h1v1H9v-1z"/><path fill="#BEDEE6" d="M10 12h1v1h-1v-1z"/><path fill="#B3DBE4" d="M11 12h1v1h-1v-1z"/><path fill="#291D28" d="M12 12h1v1h-1v-1z"/><path fill="#C2D2DA" d="M13 12h1v1h-1v-1z"/><path fill="#272121" d="M14 12h1v1h-1v-1z"/><path fill="#2D2623" d="M15 12h1v1h-1v-1z"/><path fill="#1C1D1D" d="M2 13h1v1H2v-1z"/><path fill="#BDD4E6" d="M4 13h1v1H4v-1z"/><path fill="#C3D0D5" d="M5 13h1v1H5v-1z"/><path fill="#B3DBD4" d="M6 13h1v1H6v-1z"/><path fill="#C4E0DA" d="M7 13h1v1H7v-1z"/><path fill="#C0D8DD" d="M8 13h1v1H8v-1z"/><path fill="#BDD2DC" d="M9 13h1v1H9v-1z"/><path fill="#B2DFDA" d="M10 13h1v1h-1v-1z"/><path fill="#BEDEDE" d="M11 13h1v1h-1v-1z"/><path fill="#BBD8E3" d="M12 13h1v1h-1v-1z"/><path fill="#B3D9E1" d="M13 13h1v1h-1v-1z"/><path fill="#282C28" d="M14 13h1v1h-1v-1z"/><path fill="#29281F" d="M15 13h1v1h-1v-1z"/><path fill="#252525" d="M4 14h10v2H4v-2z"/></svg>