<svg xmlns="http://www.w3.org/2000/svg" preserveAspectRatio="xMinYMin meet" viewBox="0 0 22 18"><path fill="rgb(255,255,255,0)" d="M0 0h2v2H0V0z"/><path fill="#821B33" d="M2 0h4v2H2V0z"/><path fill="rgb(255,255,255,0)" d="M6 0h6v2h-2v2H8V2H6V0z"/><path fill="#821B33" d="M12 0h4v2h-4V0z"/><path fill="rgb(255,255,255,0)" d="M16 0h6v6h-2V4h-2V2h-2V0z"/><path fill="#821B33" d="M0 2h2v6H0V2z"/><path fill="#F2807D" d="M2 2h4v2H2V2z"/><path fill="#821B33" d="M6 2h2v2H6V2zM10 2h2v2h-2V2z"/><path fill="#F2807D" d="M12 2h4v2h-4V2z"/><path fill="#821B33" d="M16 2h2v4h-2V2z"/><path fill="#F2597D" d="M2 4h4v2h6V4h4v2h-2v2h-2v2h-2v2H8v-2H6V8H4V6H2V4z"/><path fill="#F2807D" d="M6 4h2v2H6V4z"/><path fill="#821B33" d="M8 4h2v2H8V4z"/><path fill="#F2807D" d="M10 4h2v2h-2V4z"/><path fill="#511120" d="M18 4h2v2h-2V4z"/><path fill="#DB5173" d="M2 6h2v2H2V6zM14 6h2v2h-2V6z"/><path fill="#C4294D" d="M16 6h4v4h-2V8h-2V6z"/><path fill="#511120" d="M20 6h2v4h-2V6zM0 8h2v6H0V8z"/><path fill="#821B33" d="M2 8h2v2H2V8z"/><path fill="#DB5173" d="M4 8h2v2H4V8zM12 8h2v2h-2V8z"/><path fill="#821B33" d="M14 8h2v2h-2V8z"/><path fill="#511120" d="M16 8h2v2h-2V8z"/><path fill="#C4294D" d="M2 10h2v2h2v2H2v-4z"/><path fill="#821B33" d="M4 10h2v2H4v-2z"/><path fill="#DB5173" d="M6 10h2v2H6v-2zM10 10h2v2h-2v-2z"/><path fill="#821B33" d="M12 10h2v2h-2v-2z"/><path fill="#C4294D" d="M14 10h4v2h-2v2h-4v-2h2v-2z"/><path fill="#511120" d="M18 10h2v2h-2v-2z"/><path fill="rgb(255,255,255,0)" d="M20 10h2v8h-8v-2h2v-2h2v-2h2v-2z"/><path fill="#821B33" d="M6 12h2v2H6v-2z"/><path fill="#DB5173" d="M8 12h2v2H8v-2z"/><path fill="#821B33" d="M10 12h2v2h-2v-2z"/><path fill="#511120" d="M16 12h2v2h-2v-2z"/><path fill="rgb(255,255,255,0)" d="M0 14h2v2h2v2H0v-4z"/><path fill="#511120" d="M2 14h2v2H2v-2z"/><path fill="#A82344" d="M4 14h4v2H4v-2z"/><path fill="#821B33" d="M8 14h2v2H8v-2z"/><path fill="#A82344" d="M10 14h4v2h-4v-2z"/><path fill="#511120" d="M14 14h2v2h-2v-2zM4 16h10v2H4v-2z"/></svg>