<svg xmlns="http://www.w3.org/2000/svg" width="22" height="16" preserveAspectRatio="xMinYMin meet"><path fill="rgba(255,255,255,0)" d="M0 0h2v2H0V0z"/><path fill="#252525" d="M2 0h14v2H2V0z"/><path fill="rgba(255,255,255,0)" d="M16 0h6v4h-2V2h-4V0z"/><path fill="#252525" d="M0 2h2v2H0V2z"/><path fill="red" d="M2 2h10v2H2V2z"/><path fill="#FFF" d="M12 2h2v4h-2V2z"/><path fill="red" d="M14 2h2v2h-2V2z"/><path fill="#252525" d="M16 2h4v2h-4V2z"/><path fill="#00137F" d="M0 4h2v6H0V4z"/><path fill="#004A7F" d="M2 4h2v4H2V4z"/><path fill="#0094FF" d="M4 4h2v4H4V4z"/><path fill="#FF5400" d="M6 4h6v2H6V4zM14 4h2v2h-2V4z"/><path fill="red" d="M16 4h4v4h-2V6h-2V4z"/><path fill="#252525" d="M20 4h2v4h-2V4z"/><path fill="#004A7F" d="M6 6h2v2H6V6z"/><path fill="red" d="M8 6h2v2H8V6z"/><path fill="#FFF" d="M10 6h2v2h-2V6z"/><path fill="red" d="M12 6h4v2h-4V6z"/><path fill="#252525" d="M16 6h2v2h-2V6z"/><path fill="#0094FF" d="M2 8h2v2H2V8z"/><path fill="#004A7F" d="M4 8h2v2H4V8z"/><path fill="#FFF" d="M6 8h4v2H6V8z"/><path fill="#FF5400" d="M10 8h6v2h-6V8z"/><path fill="red" d="M16 8h2v2h-2V8z"/><path fill="#252525" d="M18 8h2v2h-2V8z"/><path fill="rgba(255,255,255,0)" d="M20 8h2v8h-6v-4h2v-2h2V8z"/><path fill="#252525" d="M0 10h2v2H0v-2z"/><path fill="red" d="M2 10h14v2H2v-2z"/><path fill="#252525" d="M16 10h2v2h-2v-2z"/><path fill="rgba(255,255,255,0)" d="M0 12h2v4H0v-4z"/><path fill="#191919" d="M2 12h2v2H2v-2z"/><path fill="#404040" d="M4 12h2v2H4v-2z"/><path fill="#E00000" d="M6 12h6v2H6v-2z"/><path fill="#191919" d="M12 12h2v2h-2v-2z"/><path fill="#404040" d="M14 12h2v2h-2v-2z"/><path d="M2 14h2v2H2v-2z"/><path fill="#191919" d="M4 14h2v2H4v-2z"/><path fill="#252525" d="M6 14h6v2H6v-2z"/><path d="M12 14h2v2h-2v-2z"/><path fill="#191919" d="M14 14h2v2h-2v-2z"/></svg>