<svg xmlns="http://www.w3.org/2000/svg" width="22" height="16" preserveAspectRatio="xMinYMin meet"><path fill="rgba(255,255,255,0)" d="M0 0h2v2H0V0z"/><path fill="#5C5C5C" d="M2 0h14v2H2V0z"/><path fill="rgba(255,255,255,0)" d="M16 0h6v4h-2V2h-4V0z"/><path fill="#5C5C5C" d="M0 2h2v10H0V2z"/><path fill="silver" d="M2 2h14v2H2V2z"/><path fill="#5C5C5C" d="M16 2h4v2h-4V2z"/><path fill="#AFAFAF" d="M2 4h5v1H6v1H2V4z"/><path fill="#5C5C5C" d="M7 4h4v1h1v3h-1v1h-1v1H8V8h2V5H8v2H6V5h1V4z"/><path fill="#AFAFAF" d="M11 4h5v2h-4V5h-1V4z"/><path fill="silver" d="M16 4h4v4h-2V6h-2V4z"/><path fill="#5C5C5C" d="M20 4h2v4h-2V4z"/><path fill="#AFAFAF" d="M8 5h2v1H8V5z"/><path fill="silver" d="M2 6h4v1h2V6h2v2H2V6zM12 6h4v2h-4V6z"/><path fill="#5C5C5C" d="M16 6h2v2h-2V6z"/><path fill="#AFAFAF" d="M2 8h6v2H2V8zM11 8h5v2h-6V9h1V8z"/><path fill="silver" d="M16 8h2v2h-2V8z"/><path fill="#5C5C5C" d="M18 8h2v2h-2V8z"/><path fill="rgba(255,255,255,0)" d="M20 8h2v8h-8v-2h2v-2h2v-2h2V8z"/><path fill="silver" d="M2 10h14v2h-6v-1H8v1H2v-2z"/><path fill="#5C5C5C" d="M16 10h2v2h-2v-2zM8 11h2v1H8v-1z"/><path fill="rgba(255,255,255,0)" d="M0 12h2v2h2v2H0v-4z"/><path fill="#5C5C5C" d="M2 12h2v2H2v-2z"/><path fill="#A0A0A0" d="M4 12h10v2H4v-2z"/><path fill="#5C5C5C" d="M14 12h2v2h-2v-2zM4 14h10v2H4v-2z"/></svg>