<svg xmlns="http://www.w3.org/2000/svg" width="22" height="16" preserveAspectRatio="xMinYMin meet"><path fill="rgba(255,255,255,0)" d="M0 0h2v2H0V0z"/><path fill="rgba(64,64,64,0.8)" d="M2 0h14v2H2V0z"/><path fill="rgba(255,255,255,0)" d="M16 0h6v4h-2V2h-4V0z"/><path fill="rgba(64,64,64,0.8)" d="M0 2h2v10H0V2z"/><path fill="rgba(97,156,192,0.8)" d="M2 2h2v2H2V2z"/><path fill="rgba(111,165,197,0.8)" d="M4 2h2v2H4V2z"/><path fill="rgba(127,175,204,0.8)" d="M6 2h2v2H6V2z"/><path fill="rgba(111,165,197,0.8)" d="M8 2h2v2H8V2z"/><path fill="rgba(127,175,204,0.8)" d="M10 2h2v2h-2V2z"/><path fill="rgba(97,156,192,0.8)" d="M12 2h2v2h-2V2z"/><path fill="rgba(111,165,197,0.8)" d="M14 2h2v2h-2V2z"/><path fill="rgba(64,64,64,0.8)" d="M16 2h4v2h-4V2z"/><path fill="rgba(74,134,173,0.8)" d="M2 4h2v2H2V4z"/><path fill="rgba(80,136,174,0.8)" d="M4 4h2v2H4V4z"/><path fill="rgba(74,134,173,0.8)" d="M6 4h2v2H6V4z"/><path fill="rgba(69,132,172,0.8)" d="M8 4h2v2H8V4z"/><path fill="rgba(87,140,176,0.8)" d="M10 4h2v2h-2V4z"/><path fill="rgba(80,136,174,0.8)" d="M12 4h2v2h-2V4z"/><path fill="rgba(87,140,176,0.8)" d="M14 4h2v2h-2V4z"/><path fill="rgba(111,165,197,0.8)" d="M16 4h2v2h-2V4z"/><path fill="rgba(97,156,192,0.8)" d="M18 4h2v2h-2V4z"/><path fill="rgba(64,64,64,0.8)" d="M20 4h2v4h-2V4z"/><path fill="rgba(85,149,187,0.8)" d="M2 6h2v2H2V6z"/><path fill="rgba(111,165,197,0.8)" d="M4 6h2v2H4V6z"/><path fill="rgba(127,175,204,0.8)" d="M6 6h2v2H6V6z"/><path fill="rgba(111,165,197,0.8)" d="M8 6h2v2H8V6z"/><path fill="rgba(97,156,192,0.8)" d="M10 6h2v2h-2V6z"/><path fill="rgba(127,175,204,0.8)" d="M12 6h2v2h-2V6z"/><path fill="rgba(111,165,197,0.8)" d="M14 6h2v2h-2V6z"/><path fill="rgba(64,64,64,0.8)" d="M16 6h2v2h-2V6z"/><path fill="rgba(127,175,204,0.8)" d="M18 6h2v2h-2V6z"/><path fill="rgba(87,140,176,0.8)" d="M2 8h2v2H2V8z"/><path fill="rgba(69,132,172,0.8)" d="M4 8h2v2H4V8z"/><path fill="rgba(80,136,174,0.8)" d="M6 8h2v2H6V8z"/><path fill="rgba(69,132,172,0.8)" d="M8 8h2v2H8V8z"/><path fill="rgba(87,140,176,0.8)" d="M10 8h2v2h-2V8z"/><path fill="rgba(80,136,174,0.8)" d="M12 8h2v2h-2V8z"/><path fill="rgba(87,140,176,0.8)" d="M14 8h2v2h-2V8z"/><path fill="rgba(127,175,204,0.8)" d="M16 8h2v2h-2V8z"/><path fill="rgba(64,64,64,0.8)" d="M18 8h2v2h-2V8z"/><path fill="rgba(255,255,255,0)" d="M20 8h2v8h-8v-2h2v-2h2v-2h2V8z"/><path fill="rgba(111,165,197,0.8)" d="M2 10h2v2H2v-2z"/><path fill="rgba(97,156,192,0.8)" d="M4 10h2v2H4v-2z"/><path fill="rgba(127,175,204,0.8)" d="M6 10h2v2H6v-2z"/><path fill="rgba(97,156,192,0.8)" d="M8 10h2v2H8v-2z"/><path fill="rgba(111,165,197,0.8)" d="M10 10h2v2h-2v-2z"/><path fill="rgba(127,175,204,0.8)" d="M12 10h2v2h-2v-2z"/><path fill="rgba(111,165,197,0.8)" d="M14 10h2v2h-2v-2z"/><path fill="rgba(64,64,64,0.8)" d="M16 10h2v2h-2v-2z"/><path fill="rgba(255,255,255,0)" d="M0 12h2v2h2v2H0v-4z"/><path fill="rgba(64,64,64,0.8)" d="M2 12h2v2H2v-2z"/><path fill="rgba(95,150,184,0.8)" d="M4 12h2v2H4v-2z"/><path fill="rgba(83,142,180,0.8)" d="M6 12h2v2H6v-2z"/><path fill="rgba(73,137,176,0.8)" d="M8 12h2v2H8v-2z"/><path fill="rgba(95,150,184,0.8)" d="M10 12h2v2h-2v-2z"/><path fill="rgba(64,131,173,0.8)" d="M12 12h2v2h-2v-2z"/><path fill="rgba(64,64,64,0.8)" d="M14 12h2v2h-2v-2zM4 14h10v2H4v-2z"/></svg>