<svg xmlns="http://www.w3.org/2000/svg" width="22" height="16" preserveAspectRatio="xMinYMin meet"><path fill="rgba(255,255,255,0)" d="M0 0h2v2H0V0z"/><path fill="#252525" d="M2 0h14v2H2V0z"/><path fill="rgba(255,255,255,0)" d="M16 0h6v4h-2V2h-4V0z"/><path fill="#252525" d="M0 2h2v10H0V2z"/><path fill="#007F0E" d="M2 2h5v2H2V2z"/><path fill="#004406" d="M7 2h2v2H7V2z"/><path fill="#007F0E" d="M9 2h7v2H9V2z"/><path fill="#252525" d="M16 2h4v2h-4V2z"/><path fill="#FC0" d="M2 4h5v2H2V4z"/><path fill="#D8AD00" d="M7 4h2v2H7V4z"/><path fill="#FC0" d="M9 4h7v2H9V4z"/><path fill="#007F0E" d="M16 4h4v4h-2V6h-2V4z"/><path fill="#252525" d="M20 4h2v4h-2V4z"/><path fill="#004406" d="M2 6h2v2H2V6z"/><path fill="#006109" d="M4 6h2v2H4V6z"/><path fill="#007F0E" d="M6 6h6v2H6V6z"/><path fill="#006109" d="M12 6h2v2h-2V6z"/><path fill="#004406" d="M14 6h2v2h-2V6z"/><path fill="#252525" d="M16 6h2v2h-2V6z"/><path fill="#FC0" d="M2 8h7v2H2V8z"/><path fill="#D8AD00" d="M9 8h2v2H9V8z"/><path fill="#FC0" d="M11 8h5v2h-5V8z"/><path fill="#007F0E" d="M16 8h2v2h-2V8z"/><path fill="#252525" d="M18 8h2v2h-2V8z"/><path fill="rgba(255,255,255,0)" d="M20 8h2v8h-8v-2h2v-2h2v-2h2V8z"/><path fill="#007F0E" d="M2 10h7v2H2v-2z"/><path fill="#004406" d="M9 10h2v2H9v-2z"/><path fill="#007F0E" d="M11 10h5v2h-5v-2z"/><path fill="#252525" d="M16 10h2v2h-2v-2z"/><path fill="rgba(255,255,255,0)" d="M0 12h2v2h2v2H0v-4z"/><path fill="#252525" d="M2 12h2v2H2v-2z"/><path fill="#004C07" d="M4 12h10v2H4v-2z"/><path fill="#252525" d="M14 12h2v2h-2v-2zM4 14h10v2H4v-2z"/></svg>