<svg xmlns="http://www.w3.org/2000/svg" preserveAspectRatio="xMinYMin meet" viewBox="0 0 22 16"><path fill="rgb(255,255,255,0)" d="M0 0h2v2H0V0z"/><path fill="#45273B" d="M2 0h14v2H2V0z"/><path fill="rgb(255,255,255,0)" d="M16 0h6v4h-2V2h-4V0z"/><path fill="#45273B" d="M0 2h2v3H1v3h1v4H0V2z"/><path fill="#FFF" d="M2 2h14v2H2V2z"/><path fill="#45273B" d="M16 2h4v2h-4V2z"/><path fill="#D9A066" d="M2 4h14v2h-2V5H9v1H6V5H2V4z"/><path fill="#FFF" d="M16 4h4v4h-2V6h-2V4z"/><path fill="#45273B" d="M20 4h2v4h-2V4z"/><path fill="#3F3F74" d="M1 5h1v3H1V5z"/><path fill="#201F32" d="M2 5h4v1h3v1H6v1H5v1H3V8H2V5z"/><path fill="#3F3F74" d="M9 5h1v3H9V5z"/><path fill="#201F32" d="M10 5h4v1h4v2h-2V7h-2v1h-1v1h-2V8h-1V5z"/><path fill="#FFF" d="M4 6h1v1H4V6zM12 6h1v1h-1V6zM6 7h3v1H6V7zM14 7h2v1h-2V7z"/><path fill="#3F3F74" d="M2 8h1v1H2V8z"/><path fill="#D9A066" d="M5 8h5v1h3V8h3v2H2V9h3V8z"/><path fill="#3F3F74" d="M10 8h1v1h-1V8z"/><path fill="#FFF" d="M16 8h2v2h-2V8z"/><path fill="#45273B" d="M18 8h2v2h-2V8z"/><path fill="rgb(255,255,255,0)" d="M20 8h2v8h-8v-2h2v-2h2v-2h2V8z"/><path fill="#FFF" d="M2 10h14v2H2v-2z"/><path fill="#45273B" d="M16 10h2v2h-2v-2z"/><path fill="rgb(255,255,255,0)" d="M0 12h2v2h2v2H0v-4z"/><path fill="#45273B" d="M2 12h2v2H2v-2z"/><path fill="#D9A066" d="M4 12h10v2H4v-2z"/><path fill="#45273B" d="M14 12h2v2h-2v-2zM4 14h10v2H4v-2z"/></svg>