<svg xmlns="http://www.w3.org/2000/svg" preserveAspectRatio="xMinYMin meet" viewBox="0 0 23 21"><path fill="rgb(255,255,255,0)" d="M0 0h23v21h-9v-2h2v-2h2v-2h2v-2h2V9h-2V8h-2V7h1V6h1V4h-1V3h-2V2h-3V1h-3v1H8v1H5v1H4v1H3v1H2v1H0V0z"/><path d="M11 1h3v1h-3V1zM8 2h3v1H8V2z"/><path fill="#FFAEC9" d="M11 2h3v1h3v1h2v2h-3V5h-3v1h1v1h-2V6h-1v1h1v1h1v1h-2v4h-1v1h1v-1h2v1h1v-1h3v2h-2v2h-2v2h-3v-1h1v-3H7v3h1v1H5v-1h1v-2H5v-1H4v1h1v1H3v-1H2V8h1V6h1V5h1V4h3V3h3V2z"/><path d="M14 2h3v1h-3V2zM5 3h3v1H5V3zM17 3h2v1h-2V3zM4 4h1v1H4V4zM19 4h1v2h-1V4z"/><path fill="#252525" d="M3 5h1v1H3V5z"/><path d="M13 5h2v1h-2V5z"/><path fill="#252525" d="M15 5h1v1h-1V5zM2 6h1v1H2V6z"/><path d="M11 6h1v1h-1V6z"/><path fill="#FBACC7" d="M14 6h1v1h-1V6z"/><path fill="#FFAEC9" d="M15 6h1v1h-1V6z"/><path d="M16 6h3v1h-3V6z"/><path fill="#252525" d="M0 7h2v10H0V7z"/><path fill="#FFB6CF" d="M2 7h1v1H2V7z"/><path d="M12 7h2v1h-2V7z"/><path fill="#FFAEC9" d="M14 7h1v1h-1V7z"/><path fill="#FFB6CF" d="M15 7h1v1h-1V7z"/><path fill="#AD7B8C" d="M16 7h1v1h-1V7z"/><path fill="#252525" d="M17 7h1v1h-1V7z"/><path fill="#FFB0CA" d="M3 8h1v1H3V8z"/><path fill="#FFBDD3" d="M4 8h1v1H4V8z"/><path fill="#FFAFC9" d="M5 8h1v1H5V8z"/><path fill="#FFAFCA" d="M7 8h1v1H7V8z"/><path fill="#9F8B91" d="M13 8h1v1h-1V8z"/><path d="M14 8h1v1h2v1h-3V8z"/><path fill="#FFAEC9" d="M15 8h1v1h-1V8z"/><path fill="#F1A5BE" d="M16 8h1v1h-1V8z"/><path fill="#C88CA0" d="M17 8h1v1h-1V8z"/><path fill="#252525" d="M18 8h2v1h-2V8z"/><path fill="#60424C" d="M5 9h1v1H5V9z"/><path fill="#604249" d="M6 9h1v1H6V9z"/><path fill="#302126" d="M11 9h2v1h-2V9z"/><path fill="#FFAEC9" d="M13 9h1v1h1v1h1v1h-2v1h-1V9zM17 9h1v1h-1V9z"/><path d="M18 9h1v1h-1V9z"/><path fill="#FFBDD3" d="M19 9h1v1h-1V9z"/><path fill="#252525" d="M20 9h2v4h-2V9z"/><path d="M5 10h2v3H5v-3zM11 10h2v3h-2v-3z"/><path fill="#878284" d="M15 10h1v1h-1v-1z"/><path fill="#9F8B91" d="M16 10h1v1h-1v-1z"/><path d="M17 10h1v2h-1v1h-1v-2h1v-1z"/><path fill="#FFBDD3" d="M18 10h1v1h-1v-1z"/><path fill="#FFAEC9" d="M19 10h1v2h-2v-1h1v-1z"/><path fill="#FFB3CC" d="M3 12h1v1H3v-1zM8 12h1v1H8v-1zM14 12h2v1h-2v-1z"/><path fill="#252525" d="M17 12h1v1h-1v-1z"/><path fill="#FFB3CC" d="M18 12h2v1h-2v-1z"/><path fill="#FFAFC9" d="M4 13h1v1H4v-1zM7 13h1v1H7v-1zM10 13h1v1h-1v-1zM13 13h1v1h-1v-1z"/><path fill="#FFBDD3" d="M17 13h1v1h-1v-1z"/><path fill="#252525" d="M18 13h2v2h-2v-2z"/><path fill="#FFB3CC" d="M17 14h1v1h-1v-1z"/><path fill="#FFAFC9" d="M4 15h1v1H4v-1z"/><path fill="#F3D7B6" d="M7 15h1v3H7v-3z"/><path fill="#EFE4B0" d="M8 15h2v3H8v-3z"/><path fill="#F3D7B6" d="M10 15h1v3h-1v-3z"/><path fill="#FFBDD3" d="M15 15h1v1h-1v-1z"/><path fill="#252525" d="M16 15h2v2h-2v-2z"/><path fill="#FFB3CC" d="M2 16h1v1H2v-1z"/><path fill="#FFB1CB" d="M5 16h1v1H5v-1z"/><path fill="#FFB3CC" d="M15 16h1v1h-1v-1z"/><path fill="rgb(255,255,255,0)" d="M0 17h2v2h2v2H0v-4z"/><path fill="#252525" d="M2 17h2v2H2v-2z"/><path fill="#E7B5C6" d="M4 17h1v1H4v-1z"/><path fill="#FEAEC9" d="M5 17h1v1H5v-1z"/><path fill="#F3B1C7" d="M13 17h1v1h-1v-1z"/><path fill="#252525" d="M14 17h2v2h-2v-2z"/><path fill="#FBAFC8" d="M4 18h1v1H4v-1z"/><path fill="#F3D7B6" d="M8 18h2v1H8v-1z"/><path fill="#FBAFC8" d="M13 18h1v1h-1v-1z"/><path fill="#252525" d="M4 19h10v2H4v-2z"/></svg>