<svg xmlns="http://www.w3.org/2000/svg" preserveAspectRatio="xMinYMin meet" viewBox="0 0 22 16"><path fill="rgb(255,255,255,0)" d="M0 0h18v2h2v1h-2v2h1V4h1v2h-4V4h-2V2H2v2H0V0z"/><path fill="#5F6168" d="M18 0h4v8h-2V4h-1v1h-1V3h2V2h-2V0z"/><path fill="#252525" d="M2 2h12v2H2V2zM0 4h2v8H0V4z"/><path fill="#0094FF" d="M2 4h12v2H2V4z"/><path fill="#252525" d="M14 4h2v2h-2V4z"/><path fill="#FFF" d="M2 6h14v2H2V6z"/><path fill="#252525" d="M16 6h4v2h-4V6z"/><path fill="#0094FF" d="M2 8h14v2H2V8z"/><path fill="#FFF" d="M16 8h4v4h-2v-2h-2V8z"/><path fill="#252525" d="M20 8h2v4h-2V8z"/><path fill="#FFF" d="M2 10h14v2H2v-2z"/><path fill="#252525" d="M16 10h2v2h2v2h-6v-2h2v-2z"/><path fill="rgb(255,255,255,0)" d="M0 12h2v2h2v2H0v-4z"/><path fill="#252525" d="M2 12h2v2H2v-2z"/><path fill="#0094FF" d="M4 12h10v2H4v-2z"/><path fill="rgb(255,255,255,0)" d="M20 12h2v4h-8v-2h6v-2z"/><path fill="#252525" d="M4 14h10v2H4v-2z"/></svg>