<svg xmlns="http://www.w3.org/2000/svg" preserveAspectRatio="xMinYMin meet" viewBox="0 0 15 15"><path fill="#FFA60C" d="M0 0h2v1H1v3H0V0z"/><path fill="rgb(255,255,255,0)" d="M2 0h11v1h-1v1H4V1H2V0z"/><path fill="#FFA60C" d="M13 0h2v4h-1V1h-1V0z"/><path fill="#FFD07F" d="M1 1h1v1h1v2H1V1z"/><path fill="#FFA60C" d="M2 1h1v1H2V1z"/><path fill="#FCFBFA" d="M3 1h1v1H3V1z"/><path fill="#FFA60C" d="M12 1h1v1h-1V1z"/><path fill="#FFD07F" d="M13 1h1v3h-2V2h1V1z"/><path fill="#FFA60C" d="M3 2h1v1H3V2z"/><path d="M4 2h2v1H4V2z"/><path fill="#404040" d="M6 2h5v1H6V2z"/><path fill="#FFA60C" d="M11 2h1v1h-1V2z"/><path d="M3 3h1v1H3V3z"/><path fill="gray" d="M4 3h2v1H5v3h1v1H4V7H3V4h1V3z"/><path fill="#FFF" d="M6 3h5v1h1v5h-2V8H6V7h1V6h2v1h1V4H8v1H7V4H6V3z"/><path fill="#404040" d="M11 3h1v1h-1V3z"/><path fill="rgb(255,255,255,0)" d="M0 4h1v1h1v4h1v4h1v1h1v1H0V4z"/><path fill="#FFA60C" d="M1 4h1v1H1V4z"/><path d="M2 4h1v3H2V4z"/><path fill="#5B7F00" d="M5 4h1v1H5V4z"/><path fill="gray" d="M6 4h1v1h1v1H7v1H6V4z"/><path fill="#FEFFFF" d="M8 4h1v1H8V4z"/><path fill="#5B7F00" d="M9 4h1v1H9V4z"/><path fill="#404040" d="M12 4h1v5h-1V4z"/><path fill="#FFA60C" d="M13 4h1v1h-1V4z"/><path fill="rgb(255,255,255,0)" d="M14 4h1v11h-5v-1h1v-1h1V9h1V5h1V4z"/><path d="M5 5h1v2H5V5z"/><path fill="#F5F6F0" d="M8 5h1v1H8V5z"/><path d="M9 5h1v2H9V5z"/><path fill="#404040" d="M2 7h1v2H2V7z"/><path fill="#FFF" d="M3 7h1v1h1v1H3V7z"/><path fill="#FF5479" d="M5 8h5v1H5V8z"/><path fill="#404040" d="M3 9h1v1H3V9z"/><path fill="#FF5479" d="M4 9h1v1H4V9z"/><path fill="#FFB7FB" d="M5 9h5v1h1v3h-1v1H5v-1H4v-3h1V9z"/><path fill="#FF5479" d="M10 9h1v1h-1V9z"/><path fill="#404040" d="M11 9h1v1h-1V9z"/><path fill="#FF5479" d="M3 10h1v3H3v-3z"/><path fill="#7F0000" d="M6 10h1v2H6v-2zM8 10h1v2H8v-2z"/><path fill="#FF5479" d="M11 10h1v3h-1v-3zM4 13h1v1H4v-1zM10 13h1v1h-1v-1zM5 14h5v1H5v-1z"/></svg>