<svg xmlns="http://www.w3.org/2000/svg" preserveAspectRatio="xMinYMin meet" viewBox="0 0 15 15"><path fill="#FF9300" d="M0 0h1v1H0V0z"/><path fill="#FFAA42" d="M1 0h1v1H1V0z"/><path fill="#FF9300" d="M2 0h4v1H2V0z"/><path fill="#FFAA42" d="M6 0h1v1H6V0z"/><path fill="#FF9300" d="M7 0h1v1H7V0z"/><path fill="rgb(255,255,255,0)" d="M8 0h7v4h-2V2H9V1H8V0z"/><path fill="#FFFEFE" d="M0 1h1v1H0V1z"/><path fill="#FF9300" d="M1 1h1v1H1V1z"/><path fill="#FFFCF8" d="M2 1h1v1H2V1z"/><path fill="#FFF" d="M3 1h3v1H3V1z"/><path fill="#FF9300" d="M6 1h1v1H6V1z"/><path fill="#FFAA42" d="M7 1h1v2h2v1H3V3h3V2h1V1z"/><path fill="#FF9300" d="M8 1h1v1H8V1z"/><path fill="rgb(255,255,255,0)" d="M0 2h2v1H1v1H0V2z"/><path fill="#FFFEFE" d="M2 2h1v1H2V2z"/><path fill="#FF9300" d="M3 2h3v1H3V2z"/><path fill="#FFBE42" d="M8 2h1v1H8V2z"/><path fill="#FF9300" d="M9 2h3v1H9V2z"/><path fill="#FEFEFE" d="M12 2h1v1h-1V2zM1 3h1v1H1V3z"/><path fill="#FF9300" d="M2 3h1v1H2V3z"/><path fill="#FFBE42" d="M10 3h2v1h-2V3z"/><path fill="#FF9300" d="M12 3h1v1h-1V3z"/><path fill="#824C1A" d="M0 4h15v3h-1v5h1v3H0v-3h1V7H0V4z"/><path fill="#BC6E25" d="M1 5h3v1H1V5z"/><path fill="#D87F2B" d="M4 5h7v1H4V5z"/><path fill="#BC6E25" d="M11 5h3v1h-3V5z"/><path fill="rgb(255,255,255,0)" d="M0 7h1v4H0V7z"/><path fill="#BC6E25" d="M2 7h1v5H2V7z"/><path fill="#D87F2B" d="M3 7h9v5H3V7z"/><path fill="#BC6E25" d="M12 7h1v5h-1V7z"/><path fill="#FEFDFD" d="M14 7h1v1h-1V7z"/><path fill="#FFDE3D" d="M4 8h7v3H4V8z"/><path fill="rgb(255,255,255,0)" d="M14 8h1v3h-1V8z"/><path fill="#FFD800" d="M5 9h5v1H5V9z"/><path fill="#FEFDFC" d="M0 11h1v1H0v-1z"/><path fill="#FCF8F6" d="M14 11h1v1h-1v-1z"/><path fill="#BC6E25" d="M1 13h3v1H1v-1z"/><path fill="#D87F2B" d="M4 13h7v1H4v-1z"/><path fill="#BC6E25" d="M11 13h3v1h-3v-1z"/></svg>