<svg xmlns="http://www.w3.org/2000/svg" preserveAspectRatio="xMinYMin meet" viewBox="0 0 15 15"><path fill="rgb(255,255,255,0)" d="M0 0h4v1H1v1H0V0z"/><path d="M4 0h7v1H4V0z"/><path fill="#FEFEFE" d="M11 0h1v1h-1V0z"/><path fill="rgb(255,255,255,0)" d="M12 0h3v2h-1V1h-2V0z"/><path d="M1 1h3v1H1V1z"/><path fill="#FFF" d="M4 1h1v1h1V1h5v1h-1v2h2v1h1v2h-1V6h-1v1h1v3h-1V9h-1v1H9v1H7v-1H6V7H5V4H4V3H3V2h1V1z"/><path fill="#9E9E9E" d="M5 1h1v1H5V1z"/><path d="M11 1h3v1h-3V1zM0 2h1v2H0V2z"/><path fill="#FFF" d="M1 2h1v1h1v1h1v1H3v1H2V4H1V2z"/><path fill="#404040" d="M2 2h1v1H2V2z"/><path fill="#F9F9F9" d="M8 2h1v1H8V2z"/><path fill="#FCFCFC" d="M10 2h1v1h-1V2z"/><path fill="#FFF" d="M11 2h2v1h1v1h-2V3h-1V2z"/><path fill="#9E9E9E" d="M13 2h1v1h-1V2z"/><path d="M14 2h1v2h-1V2z"/><path fill="#404040" d="M3 3h1v1H3V3z"/><path fill="#F9F9F9" d="M7 3h1v1H7V3z"/><path fill="#9E9E9E" d="M10 3h1v1h-1V3z"/><path fill="#F9F9F9" d="M11 3h1v1h-1V3z"/><path fill="rgb(255,255,255,0)" d="M0 4h1v3h1v3h1v1h1v2h1v1h1v1H0V4z"/><path d="M1 4h1v3H1V4z"/><path fill="#404040" d="M4 4h1v3H4V6H3V5h1V4z"/><path fill="#9E9E9E" d="M6 4h1v1H6V4z"/><path fill="#FDFDFD" d="M7 4h1v1H7V4z"/><path fill="#FAFAFA" d="M12 4h1v1h-1V4z"/><path d="M13 4h1v3h-1V4z"/><path fill="rgb(255,255,255,0)" d="M14 4h1v11H9v-1h1v-1h1v-2h1v-1h1V8h1V4z"/><path fill="#404040" d="M2 6h1v1H2V6z"/><path fill="#FFF" d="M3 6h1v1h1v1H4v1H3V6z"/><path fill="#F9F9F9" d="M7 6h1v1H7V6z"/><path fill="#9E9E9E" d="M11 6h1v1h-1V6z"/><path d="M2 7h1v3H2V7z"/><path fill="#404040" d="M5 7h1v3H5V9H4V8h1V7z"/><path fill="#9E9E9E" d="M8 7h1v1H8V7z"/><path d="M12 7h1v3h-1V7z"/><path fill="#F6F6F6" d="M13 7h1v1h-1V7z"/><path fill="#FBFBFB" d="M7 8h1v1H7V8z"/><path fill="#FDFDFD" d="M8 8h1v1H8V8z"/><path fill="#404040" d="M3 9h1v1H3V9z"/><path fill="#FFF" d="M4 9h1v1h1v1H4V9z"/><path fill="#9E9E9E" d="M10 9h1v1h-1V9z"/><path d="M3 10h1v1H3v-1z"/><path fill="#404040" d="M6 10h1v1H6v-1z"/><path fill="#EF8C2F" d="M9 10h1v1H9v-1z"/><path fill="#FFF" d="M10 10h1v1h-1v-1z"/><path d="M11 10h1v1h-1v-1zM4 11h1v2H4v-2z"/><path fill="#404040" d="M5 11h1v1H5v-1z"/><path fill="#EF8C2F" d="M6 11h3v1H6v-1z"/><path fill="#FFF" d="M9 11h1v1H9v-1z"/><path d="M10 11h1v2h-1v-2z"/><path fill="#B76B24" d="M5 12h2v1H5v-1z"/><path fill="#8E531C" d="M7 12h1v1h1v1H6v-1h1v-1z"/><path fill="#B76B24" d="M8 12h2v1H8v-1z"/><path d="M5 13h1v1H5v-1zM9 13h1v1H9v-1zM6 14h3v1H6v-1z"/></svg>