<svg xmlns="http://www.w3.org/2000/svg" preserveAspectRatio="xMinYMin meet" viewBox="0 0 15 15"><path fill="rgb(255,255,255,0)" d="M0 0h5v1H4v1H3v1H2v3H1v4h1v3h2v1h1v1H0V0z"/><path fill="#700E00" d="M5 0h1v1H5V0z"/><path fill="#C46C40" d="M6 0h3v1H6V0z"/><path fill="#700E00" d="M9 0h1v1H9V0z"/><path fill="#FEFEFE" d="M10 0h1v1h-1V0z"/><path fill="rgb(255,255,255,0)" d="M11 0h4v15h-5v-1h1v-1h1v-1h1V9h1V6h-1V2h-2V0z"/><path fill="#700E00" d="M4 1h1v1H4V1z"/><path fill="#C46C40" d="M5 1h1v1H5V1z"/><path fill="#965431" d="M6 1h2v1H7v2H6v3h1v1h1v3H7v2H5v-1H4V9H3V6h1V3h1V2h1V1z"/><path fill="#700E00" d="M8 1h1v1H8V1z"/><path fill="#C46C40" d="M9 1h1v1H9V1z"/><path fill="#700E00" d="M10 1h1v1h-1V1zM3 2h1v1H3V2z"/><path fill="#C46C40" d="M4 2h1v1H4V2z"/><path fill="#700E00" d="M7 2h1v2H7V2z"/><path fill="#965431" d="M8 2h2v1h1v3h1v3h-1v3h-1v1H9v1H7v-1h1v-2h1V8H8V7H7V4h1V2z"/><path fill="#C46C40" d="M10 2h1v1h-1V2z"/><path fill="#700E00" d="M11 2h1v1h-1V2z"/><path fill="#FEFEFE" d="M12 2h1v1h-1V2z"/><path fill="#700E00" d="M2 3h1v3H2V3z"/><path fill="#C46C40" d="M3 3h1v3H3V3zM11 3h1v3h-1V3z"/><path fill="#700E00" d="M12 3h1v3h-1V3zM6 4h1v3H6V4zM1 6h1v3H1V6z"/><path fill="#C46C40" d="M2 6h1v3H2V6zM12 6h1v3h-1V6z"/><path fill="#700E00" d="M13 6h1v3h-1V6zM7 7h1v1H7V7zM8 8h1v3H8V8z"/><path fill="#FEFEFE" d="M1 9h1v1H1V9z"/><path fill="#700E00" d="M2 9h1v3H2V9z"/><path fill="#C46C40" d="M3 9h1v3H3V9zM11 9h1v3h-1V9z"/><path fill="#700E00" d="M12 9h1v3h-1V9zM7 11h1v2H7v-2z"/><path fill="#FEFDFD" d="M2 12h1v1H2v-1z"/><path fill="#700E00" d="M3 12h1v1H3v-1z"/><path fill="#C46C40" d="M4 12h1v1H4v-1zM10 12h1v1h-1v-1z"/><path fill="#700E00" d="M11 12h1v1h-1v-1zM4 13h1v1H4v-1z"/><path fill="#C46C40" d="M5 13h1v1H5v-1z"/><path fill="#700E00" d="M6 13h1v1H6v-1z"/><path fill="#C46C40" d="M9 13h1v1H9v-1z"/><path fill="#700E00" d="M10 13h1v1h-1v-1zM5 14h1v1H5v-1z"/><path fill="#C46C40" d="M6 14h3v1H6v-1z"/><path fill="#700E00" d="M9 14h1v1H9v-1z"/></svg>