<svg xmlns="http://www.w3.org/2000/svg" preserveAspectRatio="xMinYMin meet" viewBox="0 0 15 15"><path fill="rgb(255,255,255,0)" d="M0 0h1v1H0V0z"/><path d="M1 0h8v1H1V0z"/><path fill="#2D2D2D" d="M9 0h1v1H9V0z"/><path d="M10 0h4v1h-4V0z"/><path fill="rgb(255,255,255,0)" d="M14 0h1v1h-1V0z"/><path d="M0 1h1v1H0V1z"/><path fill="#FFF" d="M1 1h8v1H1V1z"/><path fill="#D8D8D8" d="M9 1h1v1H9V1z"/><path fill="#FFF" d="M10 1h4v1h-4V1z"/><path d="M14 1h1v1h-1V1z"/><path fill="rgb(255,255,255,0)" d="M0 2h1v3h1v5h1v4h1v1H0V2z"/><path d="M1 2h8v1H2v2H1V2z"/><path fill="#2D2D2D" d="M9 2h1v1H9V2z"/><path d="M10 2h4v3h-1V3h-3V2z"/><path fill="rgb(255,255,255,0)" d="M14 2h1v13h-4v-1h1v-4h1V5h1V2z"/><path fill="#C1C1C1" d="M2 3h11v1H2V3z"/><path fill="#FFF" d="M2 4h7v2H3V5H2V4z"/><path fill="#D8D8D8" d="M9 4h1v2H9V4z"/><path fill="#FFF" d="M10 4h3v1h-1v1h-2V4z"/><path d="M2 5h1v5H2V5zM12 5h1v5h-1V5z"/><path fill="#404040" d="M3 6h6v1H3V6z"/><path fill="gray" d="M9 6h1v1H9V6z"/><path fill="#404040" d="M10 6h2v1h-2V6z"/><path fill="#FFF" d="M3 7h6v1H3V7z"/><path fill="#D8D8D8" d="M9 7h1v1H9V7z"/><path fill="#FFF" d="M10 7h2v1h-2V7z"/><path fill="#404040" d="M3 8h6v1H3V8z"/><path fill="gray" d="M9 8h1v1H9V8z"/><path fill="#404040" d="M10 8h2v1h-2V8z"/><path fill="#FFF" d="M3 9h6v1H3V9z"/><path fill="#D8D8D8" d="M9 9h1v1H9V9z"/><path fill="#FFF" d="M10 9h2v1h-2V9z"/><path d="M3 10h1v4H3v-4z"/><path fill="#404040" d="M4 10h5v1H4v-1z"/><path fill="gray" d="M9 10h1v1H9v-1z"/><path fill="#404040" d="M10 10h1v1h-1v-1z"/><path d="M11 10h1v4h-1v-4z"/><path fill="#FFF" d="M4 11h5v3H4v-3z"/><path fill="#D8D8D8" d="M9 11h1v3H9v-3z"/><path fill="#FFF" d="M10 11h1v3h-1v-3z"/><path fill="#FEFEFE" d="M1 13h1v1H1v-1z"/><path d="M4 14h5v1H4v-1z"/><path fill="#2D2D2D" d="M9 14h1v1H9v-1z"/><path d="M10 14h1v1h-1v-1z"/></svg>