<svg xmlns="http://www.w3.org/2000/svg" preserveAspectRatio="xMinYMin meet" viewBox="0 0 15 15"><path fill="rgb(255,255,255,0)" d="M0 0h5v1H3v1H2v1H1v2H0V0z"/><path fill="#404040" d="M5 0h5v1H5V0z"/><path fill="#FEFEFE" d="M10 0h1v1h-1V0z"/><path fill="rgb(255,255,255,0)" d="M11 0h1v1h-1V0z"/><path fill="#404040" d="M12 0h1v1h-1V0z"/><path fill="#C1C1C1" d="M13 0h1v1h1v1h-1v1h-1V2h-1V1h1V0z"/><path fill="#404040" d="M14 0h1v1h-1V0zM3 1h2v1H3V1z"/><path fill="#C1C1C1" d="M5 1h5v1H5V1z"/><path fill="#404040" d="M10 1h2v1h-2V1zM2 2h1v1H2V2z"/><path fill="#C1C1C1" d="M3 2h2v1H3V2z"/><path d="M5 2h1v1H5V2z"/><path fill="#333" d="M6 2h1v1H6V2z"/><path fill="#FFF" d="M7 2h3v3h3v5h-1v2H9v1H7v-2H6v-1H5v2H3v-2H2V5h1V3h4V2z"/><path fill="#C1C1C1" d="M10 2h2v1h-2V2z"/><path fill="#404040" d="M12 2h1v1h-1V2zM14 2h1v1h-1V2zM1 3h1v2H1V3z"/><path fill="#C1C1C1" d="M2 3h1v2H2V3z"/><path d="M10 3h1v2h-1V3z"/><path fill="#FFF" d="M11 3h1v1h-1V3z"/><path fill="#C1C1C1" d="M12 3h1v2h-1V3z"/><path fill="#404040" d="M13 3h1v2h-1V3z"/><path fill="rgb(255,255,255,0)" d="M14 3h1v2h-1V3z"/><path d="M4 4h2v2h1V4h1v2h3v2h-1v1H9v2H8v-1H7V9H3V7h1V4z"/><path fill="#333" d="M8 4h1v2H8V4zM11 4h1v1h-1V4z"/><path fill="#404040" d="M0 5h1v5H0V5z"/><path fill="#C1C1C1" d="M1 5h1v5H1V5z"/><path fill="#010101" d="M6 5h1v1H6V5z"/><path fill="#C1C1C1" d="M13 5h1v5h-1V5z"/><path fill="#404040" d="M14 5h1v5h-1V5z"/><path fill="#FDFDFD" d="M3 6h1v1H3V6z"/><path fill="#333" d="M11 7h1v1h-1V7zM10 8h1v1h-1V8zM4 9h1v1H4V9zM9 9h1v2H9V9z"/><path fill="#FEFEFE" d="M0 10h1v1H0v-1z"/><path fill="#404040" d="M1 10h1v2H1v-2z"/><path fill="#C1C1C1" d="M2 10h1v2H2v-2z"/><path d="M5 10h1v3H5v-3z"/><path fill="#C1C1C1" d="M12 10h1v2h-1v-2z"/><path fill="#404040" d="M13 10h1v2h-1v-2z"/><path fill="rgb(255,255,255,0)" d="M14 10h1v5h-5v-1h2v-1h1v-1h1v-2zM0 11h1v1h1v1h1v1h2v1H0v-4z"/><path fill="#333" d="M6 11h1v2H6v-2z"/><path fill="#404040" d="M2 12h1v1H2v-1z"/><path fill="#C1C1C1" d="M3 12h2v1H3v-1z"/><path fill="#F9F9F9" d="M9 12h1v1H9v-1z"/><path fill="#C1C1C1" d="M10 12h2v1h-2v-1z"/><path fill="#404040" d="M12 12h1v1h-1v-1zM3 13h2v1H3v-1z"/><path fill="#C1C1C1" d="M5 13h5v1H5v-1z"/><path fill="#404040" d="M10 13h2v1h-2v-1zM5 14h5v1H5v-1z"/></svg>