<svg xmlns="http://www.w3.org/2000/svg" preserveAspectRatio="xMinYMin meet" viewBox="0 0 15 15"><path fill="rgb(255,255,255,0)" d="M0 0h7v1H6v4H5v1H4V5H3V4H2v1H1v1H0V4h1V3H0V0z"/><path fill="gray" d="M7 0h1v1H7V0z"/><path fill="rgb(255,255,255,0)" d="M8 0h7v2h-1v1h1v2H9V4h1V2H9V1H8V0z"/><path fill="gray" d="M6 1h1v4H6V1z"/><path fill="#5B5B5B" d="M7 1h1v1H7V1z"/><path fill="gray" d="M8 1h1v4H8V1z"/><path fill="#D3D3D3" d="M7 2h1v3H7V2z"/><path fill="#FEFEFE" d="M9 2h1v2H9V2z"/><path fill="#FEFEFB" d="M12 2h1v1h-1V2z"/><path fill="#FEFDF9" d="M14 2h1v1h-1V2z"/><path fill="#FEFEFD" d="M0 3h1v1H0V3z"/><path fill="gray" d="M2 4h1v1H2V4zM1 5h1v1H1V5z"/><path fill="#D3D3D3" d="M2 5h1v1H2V5z"/><path fill="gray" d="M3 5h1v1H3V5zM5 5h1v1H5V5z"/><path fill="#D3D3D3" d="M6 5h1v1h1v1h1v1h1v1h1v1h1v1h1v1H2v-1H1v-1h1V9h1V8h1V7h1V6h1V5z"/><path fill="#98B7B7" d="M7 5h1v1H7V5z"/><path fill="#D3D3D3" d="M8 5h1v1H8V5z"/><path fill="gray" d="M9 5h1v1H9V5z"/><path fill="#FEFDF7" d="M10 5h1v1h-1V5z"/><path fill="#FFFEFB" d="M11 5h1v1h-1V5z"/><path fill="#FFFFF7" d="M12 5h1v1h-1V5z"/><path fill="#FFFEFD" d="M13 5h1v1h-1V5z"/><path fill="#FEFEFE" d="M14 5h1v1h-1V5z"/><path fill="gray" d="M0 6h1v1H0V6z"/><path fill="#D3D3D3" d="M1 6h1v1H1V6z"/><path fill="gray" d="M2 6h1v1H2V6z"/><path fill="#D3D3D3" d="M3 6h1v1H3V6z"/><path fill="gray" d="M4 6h1v1H4V6z"/><path fill="#98B7B7" d="M8 6h1v1H8V6z"/><path fill="#D3D3D3" d="M9 6h1v1H9V6z"/><path fill="gray" d="M10 6h1v1h-1V6z"/><path fill="rgb(255,255,255,0)" d="M11 6h4v4h-1V9h-1V8h-1V7h-1V6zM0 7h1v1h1v1H1v1H0V7z"/><path fill="gray" d="M1 7h1v1H1V7z"/><path fill="#D3D3D3" d="M2 7h1v1H2V7z"/><path fill="gray" d="M3 7h1v1H3V7z"/><path fill="#98B7B7" d="M9 7h1v1H9V7z"/><path fill="#D3D3D3" d="M10 7h1v1h-1V7z"/><path fill="gray" d="M11 7h1v1h-1V7zM2 8h1v1H2V8z"/><path fill="#98B7B7" d="M10 8h1v1h-1V8z"/><path fill="#D3D3D3" d="M11 8h1v1h-1V8z"/><path fill="gray" d="M12 8h1v1h-1V8zM1 9h1v1H1V9z"/><path fill="#98B7B7" d="M11 9h1v1h-1V9z"/><path fill="#D3D3D3" d="M12 9h1v1h-1V9z"/><path fill="gray" d="M13 9h1v1h-1V9zM0 10h1v1h1v1H1v1H0v-3z"/><path fill="#98B7B7" d="M12 10h1v1h-1v-1z"/><path fill="#D3D3D3" d="M13 10h1v1h-1v-1z"/><path fill="gray" d="M14 10h1v3h-1v-1h-1v-1h1v-1z"/><path fill="#D3D3D3" d="M1 12h1v1H1v-1z"/><path fill="gray" d="M2 12h11v1H2v-1z"/><path fill="#98B7B7" d="M13 12h1v1h-1v-1z"/><path fill="rgb(255,255,255,0)" d="M0 13h1v1h1v1H0v-2z"/><path fill="gray" d="M1 13h1v1H1v-1z"/><path fill="#D3D3D3" d="M2 13h11v1H2v-1z"/><path fill="gray" d="M13 13h1v1h-1v-1z"/><path fill="rgb(255,255,255,0)" d="M14 13h1v2h-2v-1h1v-1z"/><path fill="gray" d="M2 14h11v1H2v-1z"/></svg>