<svg xmlns="http://www.w3.org/2000/svg" preserveAspectRatio="xMinYMin meet" viewBox="0 0 12 32"><path fill="rgb(255,255,255,0)" d="M0 0h4v8H2v2H0V0z"/><path fill="#C3A20B" d="M4 0h4v2H4V0z"/><path fill="rgb(255,255,255,0)" d="M8 0h4v10h-2V8H8V0z"/><path fill="#EDE335" d="M4 2h2v6H4V2z"/><path fill="#E7DA05" d="M6 2h2v6H6V2z"/><path fill="#F8F181" d="M2 8h2v6h2v14H4v2H2V8z"/><path fill="#E7DA05" d="M4 8h2v2H4V8z"/><path fill="#AD7E0F" d="M6 8h2v4H6V8z"/><path fill="#F8F181" d="M8 8h2v2H8V8z"/><path fill="#E7DA05" d="M0 10h2v20H0V10z"/><path fill="#FFF" d="M4 10h2v4H4v-4z"/><path fill="#E7DA05" d="M8 10h2v2H8v-2z"/><path fill="#F8F181" d="M10 10h2v20h-2V10z"/><path fill="#E7DA05" d="M6 12h2v16H6V12z"/><path fill="#AD7E0F" d="M8 12h2v18H4v-2h4V12z"/><path fill="rgb(255,255,255,0)" d="M0 30h2v2H0v-2z"/><path fill="#E7DA05" d="M2 30h8v2H2v-2z"/><path fill="rgb(255,255,255,0)" d="M10 30h2v2h-2v-2z"/></svg>