<svg xmlns="http://www.w3.org/2000/svg" preserveAspectRatio="xMinYMin meet" viewBox="0 0 12 32"><path fill="rgb(255,255,255,0)" d="M0 0h4v8H2v2H0V0z"/><path fill="#B6900F" d="M4 0h4v2H4V0z"/><path fill="rgb(255,255,255,0)" d="M8 0h4v10h-2V8H8V0z"/><path fill="#FFB900" d="M4 2h2v2H4V2z"/><path fill="#E7B305" d="M6 2h2v2H6V2z"/><path fill="#EDC335" d="M4 4h2v4H4V4z"/><path fill="#D09308" d="M6 4h2v4H6V4z"/><path fill="#F8DD81" d="M2 8h2v6H2V8z"/><path fill="#E7B305" d="M4 8h2v2H4V8z"/><path fill="#AD630F" d="M6 8h2v4H6V8z"/><path fill="#F8DD81" d="M8 8h2v2H8V8z"/><path fill="#E7B305" d="M0 10h2v2H0v-2z"/><path fill="#FFF" d="M4 10h2v4H4v-4z"/><path fill="#E7B305" d="M8 10h2v2H8v-2z"/><path fill="#F8DD81" d="M10 10h2v2h-2v-2z"/><path fill="#C29D21" d="M0 12h2v2H0v-2z"/><path fill="#E7B305" d="M6 12h2v2H6v-2z"/><path fill="#AD630F" d="M8 12h2v2H8v-2z"/><path fill="#987A17" d="M10 12h2v2h-2v-2z"/><path fill="#FEEFBA" d="M0 14h2v12H0V14z"/><path fill="#987A17" d="M2 14h4v2H2v-2z"/><path fill="#C29D21" d="M6 14h4v2H6v-2z"/><path fill="#FFF" d="M10 14h2v12h-2V14zM2 16h2v12H2V16z"/><path fill="#FEEFBA" d="M4 16h6v12H4V16z"/><path fill="#C29D21" d="M0 26h2v2H0v-2z"/><path fill="#F8DD81" d="M10 26h2v4h-2v-4z"/><path fill="#E7B305" d="M0 28h2v2H0v-2z"/><path fill="#685107" d="M2 28h4v2H2v-2z"/><path fill="#C29D21" d="M6 28h4v2H6v-2z"/><path fill="rgb(255,255,255,0)" d="M0 30h2v2H0v-2z"/><path fill="#E7B305" d="M2 30h8v2H2v-2z"/><path fill="rgb(255,255,255,0)" d="M10 30h2v2h-2v-2z"/></svg>