<svg xmlns="http://www.w3.org/2000/svg" preserveAspectRatio="xMinYMin meet" viewBox="0 0 12 32"><path fill="rgb(255,255,255,0)" d="M0 0h4v8H2v2H0V0z"/><path fill="#7041A1" d="M4 0h4v2H4V0z"/><path fill="rgb(255,255,255,0)" d="M8 0h4v10h-2V8H8V0z"/><path fill="#DE7CA5" d="M4 2h2v2H4V2z"/><path fill="#C964A5" d="M6 2h2v4H6V2z"/><path fill="#E5AF9F" d="M4 4h2v4H4V4z"/><path fill="#DE7CA5" d="M6 6h2v2h2v8H8v-2H4v-2h4v-2H6V6zM2 8h2v2H2V8z"/><path fill="#AA41A5" d="M4 8h2v2H4V8zM0 10h2v2H0v-2z"/><path fill="#FFF" d="M2 10h2v4H2v-4z"/><path fill="#E5AF9F" d="M4 10h2v2H4v-2z"/><path fill="#C964A5" d="M6 10h2v2H6v-2z"/><path fill="#F1FF97" d="M10 10h2v4h-2v-4z"/><path fill="#DE7CA5" d="M0 12h2v6H0v-6z"/><path fill="#F1FF97" d="M2 14h2v4h2v2H2v-6z"/><path fill="#FFF" d="M4 14h2v4H4v-4z"/><path fill="#AA41A5" d="M6 14h2v2H6v-2z"/><path fill="#FEFF9F" d="M10 14h2v2h-2v-2z"/><path fill="#DE7CA5" d="M6 16h2v4H6v-4z"/><path fill="#AA41A5" d="M8 16h2v4H8v-4z"/><path fill="#F1FF97" d="M10 16h2v2h-2v-2z"/><path fill="#C285A3" d="M0 18h2v2H0v-2z"/><path fill="#8F5BA5" d="M10 18h2v2h-2v-2z"/><path fill="#F9FFBB" d="M0 20h2v2H0v-2z"/><path fill="#8F5BA5" d="M2 20h4v2H2v-2z"/><path fill="#C285A3" d="M6 20h4v2H6v-2z"/><path fill="#FFF" d="M10 20h2v2h-2v-2z"/><path fill="#C285A3" d="M0 22h2v2H0v-2z"/><path fill="#FFF" d="M2 22h2v2H2v-2z"/><path fill="#F9FFBB" d="M4 22h6v2H4v-2z"/><path fill="#8F5BA5" d="M10 22h2v2h-2v-2z"/><path fill="#DE7CA5" d="M0 24h2v6H0v-6z"/><path fill="#4C41A0" d="M2 24h4v2H2v-2z"/><path fill="#C285A3" d="M6 24h4v2H6v-2z"/><path fill="#F1FF97" d="M10 24h2v6h-2v-6zM2 26h4v2H4v2H2v-4z"/><path fill="#DE7CA5" d="M6 26h2v2H6v-2z"/><path fill="#AA41A5" d="M8 26h2v4H4v-2h4v-2z"/><path fill="rgb(255,255,255,0)" d="M0 30h2v2H0v-2z"/><path fill="#DE7CA5" d="M2 30h8v2H2v-2z"/><path fill="rgb(255,255,255,0)" d="M10 30h2v2h-2v-2z"/></svg>