<svg xmlns="http://www.w3.org/2000/svg" preserveAspectRatio="xMinYMin meet" viewBox="0 0 12 32"><path fill="rgb(255,255,255,0)" d="M0 0h4v8H2v2H0V0z"/><path fill="#8B6E11" d="M4 0h4v2H4V0z"/><path fill="rgb(255,255,255,0)" d="M8 0h4v10h-2V8H8V0z"/><path fill="#BFAE59" d="M4 2h2v4H4V2z"/><path fill="#BEBA7E" d="M6 2h2v2H6V2z"/><path fill="#B3AB7B" d="M6 4h2v4H6V4z"/><path fill="#BEBA7E" d="M4 6h2v4H4V6z"/><path fill="#673313" d="M2 8h2v2H2V8z"/><path fill="#869099" d="M6 8h4v2H6V8z"/><path fill="#979888" d="M0 10h2v2H0v-2z"/><path fill="#498172" d="M2 10h2v2H2v-2z"/><path fill="#A49677" d="M4 10h2v2H4v-2z"/><path fill="#BEBA7E" d="M6 10h2v2H6v-2z"/><path fill="#7F858C" d="M8 10h4v2H8v-2z"/><path fill="#C29D21" d="M0 12h2v2H0v-2z"/><path fill="#E1DFBF" d="M2 12h2v2H2v-2z"/><path fill="#BEBA7E" d="M4 12h2v2H4v-2z"/><path fill="#A49677" d="M6 12h2v2H6v-2z"/><path fill="#E1DFBF" d="M8 12h2v2H8v-2z"/><path fill="#987A17" d="M10 12h2v2h-2v-2z"/><path fill="#FEEFBA" d="M0 14h2v12H0V14z"/><path fill="#987A17" d="M2 14h4v2H2v-2z"/><path fill="#C29D21" d="M6 14h4v2H6v-2z"/><path fill="#FFF" d="M10 14h2v12h-2V14zM2 16h2v12H2V16z"/><path fill="#FEEFBA" d="M4 16h6v12H4V16z"/><path fill="#C29D21" d="M0 26h2v2H0v-2z"/><path fill="#E1DFBF" d="M10 26h2v4h-2v-4z"/><path fill="#BEBA7E" d="M0 28h2v2H0v-2z"/><path fill="#685107" d="M2 28h4v2H2v-2z"/><path fill="#C29D21" d="M6 28h4v2H6v-2z"/><path fill="rgb(255,255,255,0)" d="M0 30h2v2H0v-2z"/><path fill="#BEBA7E" d="M2 30h8v2H2v-2z"/><path fill="rgb(255,255,255,0)" d="M10 30h2v2h-2v-2z"/></svg>