<svg xmlns="http://www.w3.org/2000/svg" preserveAspectRatio="xMinYMin meet" viewBox="0 0 12 32"><path fill="rgb(255,255,255,0)" d="M0 0h4v8H2v2H0V0z"/><path fill="#681A38" d="M4 0h4v2H4V0z"/><path fill="rgb(255,255,255,0)" d="M8 0h4v10h-2V8H8V0z"/><path fill="#B50D21" d="M4 2h2v2H4V2z"/><path fill="#83152F" d="M6 2h2v4H6V2z"/><path fill="#D05B44" d="M4 4h2v4H4V4z"/><path fill="#B50D21" d="M6 6h2v2H6V6z"/><path fill="#FAD57B" d="M2 8h2v6h2v2H2V8z"/><path fill="#B50D21" d="M4 8h2v2H4V8z"/><path fill="#372347" d="M6 8h2v4H6V8z"/><path fill="#FAD57B" d="M8 8h2v2H8V8z"/><path fill="#B50D21" d="M0 10h2v4H0v-4z"/><path fill="#FFF" d="M4 10h2v4H4v-4z"/><path fill="#B50D21" d="M8 10h2v2H8v-2z"/><path fill="#FAD57B" d="M10 10h2v4h-2v-4z"/><path fill="#B50D21" d="M6 12h2v4H6v-4z"/><path fill="#372347" d="M8 12h2v4H8v-4z"/><path fill="#48413E" d="M0 14h2v2H0v-2z"/><path fill="#283531" d="M10 14h2v2h-2v-2z"/><path fill="#FFFDDE" d="M0 16h2v6H0v-6z"/><path fill="#283531" d="M2 16h4v2H2v-2z"/><path fill="#48413E" d="M6 16h4v2H6v-2z"/><path fill="#FFF" d="M10 16h2v6h-2v-6zM2 18h2v6H2v-6z"/><path fill="#FFFDDE" d="M4 18h6v6H4v-6z"/><path fill="#48413E" d="M0 22h2v2H0v-2z"/><path fill="#283531" d="M10 22h2v2h-2v-2z"/><path fill="#B50D21" d="M0 24h2v6H0v-6z"/><path fill="#2E1217" d="M2 24h4v2H2v-2z"/><path fill="#48413E" d="M6 24h4v2H6v-2z"/><path fill="#FAD57B" d="M10 24h2v6h-2v-6zM2 26h4v2H4v2H2v-4z"/><path fill="#B50D21" d="M6 26h2v2H6v-2z"/><path fill="#372347" d="M8 26h2v4H4v-2h4v-2z"/><path fill="rgb(255,255,255,0)" d="M0 30h2v2H0v-2z"/><path fill="#B50D21" d="M2 30h8v2H2v-2z"/><path fill="rgb(255,255,255,0)" d="M10 30h2v2h-2v-2z"/></svg>