<svg xmlns="http://www.w3.org/2000/svg" preserveAspectRatio="xMinYMin meet" viewBox="0 0 12 32"><path fill="rgb(255,255,255,0)" d="M0 0h4v8H2v2H0V0z"/><path fill="#B5B5B5" d="M4 0h4v2H4V0z"/><path fill="rgb(255,255,255,0)" d="M8 0h4v10h-2V8H8V0z"/><path fill="#C9C9C9" d="M4 2h2v6H4V2z"/><path fill="#F2F2F2" d="M6 2h2v6h2v2H6V2zM2 8h2v4H2V8z"/><path fill="#8F8F8F" d="M4 8h2v2H4V8zM0 10h2v2H0v-2z"/><path fill="#C25D21" d="M4 10h4v2h2v2H2v-2h2v-2z"/><path fill="#8F8F8F" d="M8 10h2v2H8v-2z"/><path fill="#F2F2F2" d="M10 10h2v2h-2v-2z"/><path fill="#E75905" d="M0 12h2v2H0v-2z"/><path fill="#F8AD81" d="M10 12h2v2h-2v-2z"/><path fill="#C25D21" d="M0 14h2v2H0v-2z"/><path fill="#F8AD81" d="M2 14h4v2H2v-2z"/><path fill="#E75905" d="M6 14h2v2H6v-2z"/><path fill="#AD240F" d="M8 14h2v2H8v-2z"/><path fill="#984717" d="M10 14h2v2h-2v-2z"/><path fill="#FED4BA" d="M0 16h2v2H0v-2z"/><path fill="#984717" d="M2 16h4v2H2v-2z"/><path fill="#C25D21" d="M6 16h4v2H6v-2z"/><path fill="#FFF" d="M10 16h2v4h-2v-4z"/><path fill="#D1964A" d="M0 18h2v2H0v-2z"/><path fill="#FFF" d="M2 18h2v2H2v-2z"/><path fill="#D1964A" d="M4 18h4v2h4v2H6v2H4v-2H2v-2h2v-2z"/><path fill="#FED4BA" d="M8 18h2v2H8v-2zM0 20h2v2H0v-2z"/><path fill="#C25D21" d="M0 22h2v2H0v-2z"/><path fill="#FFF" d="M2 22h2v2H2v-2z"/><path fill="#FED4BA" d="M6 22h4v2H6v-2z"/><path fill="#984717" d="M10 22h2v2h-2v-2z"/><path fill="#E75905" d="M0 24h2v6H0v-6z"/><path fill="#682A07" d="M2 24h4v2H2v-2z"/><path fill="#C25D21" d="M6 24h4v2H6v-2z"/><path fill="#F8AD81" d="M10 24h2v6h-2v-6zM2 26h4v2H4v2H2v-4z"/><path fill="#E75905" d="M6 26h2v2H6v-2z"/><path fill="#AD240F" d="M8 26h2v4H4v-2h4v-2z"/><path fill="rgb(255,255,255,0)" d="M0 30h2v2H0v-2z"/><path fill="#E75905" d="M2 30h8v2H2v-2z"/><path fill="rgb(255,255,255,0)" d="M10 30h2v2h-2v-2z"/></svg>