<svg xmlns="http://www.w3.org/2000/svg" viewBox="192.3 173.5 258.1 294.4"><path fill="#fff" d="M422 231v155H218V231h204z"/><path fill="#7289da" d="M279 313c0 9 7 16 15 16s14-7 14-16c1-9-6-16-14-16-9 0-15 7-15 16zm53 0c0 9 7 16 15 16s14-7 14-16-6-16-14-16c-9 0-15 7-15 16z"/><path fill="#7289da" d="M223 175c-16 0-30 13-30 29v197c0 16 14 30 30 30h165l-8-27 19 17 17 16 31 28V204c0-16-13-29-29-29H223zm129 177c19-5 26-17 26-17l-16 9-21 6a102 102 0 01-59-6l-11-5-1-1-1-1-4-2s7 12 25 17l-9 12c-32-1-45-22-45-22 0-47 21-85 21-85 21-15 41-15 41-15l2 2c-27 8-39 19-39 19l9-4c16-7 28-9 33-9l2-1a123 123 0 0173 14s-11-11-36-18l2-3s20 0 41 15c0 0 21 38 21 85 0 0-12 21-44 22l-10-12z"/></svg>