<svg xmlns="http://www.w3.org/2000/svg" fill="none" viewBox="0 0 71 55"><g clip-path="url(#clip0)"><path fill="#fff" d="M60.1 4.9A58.55 58.55 0 0045.65.42a.22.22 0 00-.23.1 40.78 40.78 0 00-1.8 3.7 54.05 54.05 0 00-16.23 0 37.4 37.4 0 00-1.83-3.7.23.23 0 00-.23-.1c-5.07.87-9.92 2.4-14.45 4.48a.2.2 0 00-.1.08C1.58 18.73-.94 32.14.3 45.39c0 .07.05.13.1.17a58.88 58.88 0 0017.72 8.96c.1.03.2 0 .25-.08a42.08 42.08 0 003.63-5.9.22.22 0 00-.12-.31 38.77 38.77 0 01-5.54-2.64.23.23 0 01-.02-.38l1.1-.86a.22.22 0 01.23-.03 41.99 41.99 0 0035.68 0 .22.22 0 01.23.02c.36.3.73.59 1.1.87.13.1.12.3-.02.38a36.38 36.38 0 01-5.54 2.63.23.23 0 00-.12.32 47.25 47.25 0 003.63 5.9c.05.07.15.1.24.08 5.8-1.8 11.69-4.5 17.76-8.96.06-.04.09-.1.1-.17C72.16 30.08 68.2 16.78 60.2 5a.18.18 0 00-.1-.1zM23.73 37.33c-3.5 0-6.38-3.22-6.38-7.16 0-3.95 2.82-7.16 6.38-7.16 3.58 0 6.43 3.24 6.38 7.16 0 3.94-2.83 7.16-6.38 7.16zm23.59 0c-3.5 0-6.38-3.22-6.38-7.16 0-3.95 2.82-7.16 6.38-7.16 3.58 0 6.43 3.24 6.38 7.16 0 3.94-2.8 7.16-6.38 7.16z"/></g><defs><clipPath id="clip0"><path fill="#fff" d="M0 0h71v55H0z"/></clipPath></defs></svg>