<?xml version="1.0" encoding="utf-8"?>
<!-- generated at drububu.com  -->
<!DOCTYPE svg PUBLIC "-//W3C//DTD SVG 1.1//EN" "http://www.w3.org/Graphics/SVG/1.1/DTD/svg11.dtd">
<svg version="1.1" preserveAspectRatio="xMinYMin meet" xmlns="http://www.w3.org/2000/svg" xmlns:xlink="http://www.w3.org/1999/xlink" x="0px" y="0px" width="22px" height="16px" viewBox="0 0 22 16">
<path d="M0 0h2v2h-2v-2z" fill="rgba(255,255,255,0)"/>
<path d="M2 0h14v2h-14v-2z" fill="rgb(37,37,37)"/>
<path d="M16 0h6v4h-2v-2h-4v-2z" fill="rgba(255,255,255,0)"/>
<path d="M0 2h2v10h-2v-10z" fill="rgb(37,37,37)"/>
<path d="M2 2h4v2h-4v-2z" fill="rgb(255,248,137)"/>
<path d="M6 2h2v2h-2v-2z" fill="rgb(255,248,153)"/>
<path d="M8 2h2v2h-2v-2z" fill="rgb(255,254,249)"/>
<path d="M10 2h2v2h-2v-2z" fill="rgb(255,247,216)"/>
<path d="M12 2h2v2h-2v-2z" fill="rgb(255,243,198)"/>
<path d="M14 2h2v2h-2v-2z" fill="rgb(255,255,255)"/>
<path d="M16 2h4v2h-4v-2z" fill="rgb(37,37,37)"/>
<path d="M2 4h2v2h-2v-2z" fill="rgb(255,225,68)"/>
<path d="M4 4h6v2h-6v-2z" fill="rgb(255,242,119)"/>
<path d="M10 4h2v2h-2v-2z" fill="rgb(255,225,68)"/>
<path d="M12 4h2v2h-2v-2z" fill="rgb(255,249,229)"/>
<path d="M14 4h2v2h-2v-2z" fill="rgb(255,243,198)"/>
<path d="M16 4h2v2h-2v-2z" fill="rgb(255,247,216)"/>
<path d="M18 4h2v2h-2v-2z" fill="rgb(255,238,171)"/>
<path d="M20 4h2v4h-2v-4z" fill="rgb(37,37,37)"/>
<path d="M2 6h2v2h-2v-2z" fill="rgb(255,204,0)"/>
<path d="M4 6h6v2h-6v-2z" fill="rgb(255,248,137)"/>
<path d="M10 6h2v2h-2v-2z" fill="rgb(255,253,228)"/>
<path d="M12 6h2v2h-2v-2z" fill="rgb(255,204,0)"/>
<path d="M14 6h2v2h-2v-2z" fill="rgb(255,238,171)"/>
<path d="M16 6h2v2h-2v-2z" fill="rgb(37,37,37)"/>
<path d="M18 6h2v2h-2v-2z" fill="rgb(255,226,113)"/>
<path d="M2 8h2v2h-2v-2z" fill="rgb(255,226,113)"/>
<path d="M4 8h4v2h-4v-2z" fill="rgb(255,242,130)"/>
<path d="M8 8h2v2h-2v-2z" fill="rgb(255,249,169)"/>
<path d="M10 8h2v2h-2v-2z" fill="rgb(255,242,130)"/>
<path d="M12 8h2v2h-2v-2z" fill="rgb(255,226,113)"/>
<path d="M14 8h2v2h-2v-2z" fill="rgb(255,243,198)"/>
<path d="M16 8h2v2h-2v-2z" fill="rgb(255,204,0)"/>
<path d="M18 8h2v2h-2v-2z" fill="rgb(37,37,37)"/>
<path d="M20 8h2v8h-8v-2h2v-2h2v-2h2v-2z" fill="rgba(255,255,255,0)"/>
<path d="M2 10h4v2h-4v-2z" fill="rgb(255,248,137)"/>
<path d="M6 10h2v2h-2v-2z" fill="rgb(255,248,153)"/>
<path d="M8 10h6v2h-6v-2z" fill="rgb(255,248,137)"/>
<path d="M14 10h2v2h-2v-2z" fill="rgb(255,248,153)"/>
<path d="M16 10h2v2h-2v-2z" fill="rgb(37,37,37)"/>
<path d="M0 12h2v2h2v2h-4v-4z" fill="rgba(255,255,255,0)"/>
<path d="M2 12h2v2h-2v-2z" fill="rgb(37,37,37)"/>
<path d="M4 12h2v2h-2v-2z" fill="rgb(255,204,0)"/>
<path d="M6 12h2v2h-2v-2z" fill="rgb(255,226,68)"/>
<path d="M8 12h2v2h-2v-2z" fill="rgb(255,215,34)"/>
<path d="M10 12h4v2h-4v-2z" fill="rgb(255,204,0)"/>
<path d="M14 12h2v2h-2v-2z" fill="rgb(37,37,37)"/>
<path d="M4 14h10v2h-10v-2z" fill="rgb(37,37,37)"/>
</svg>