<svg xmlns="http://www.w3.org/2000/svg" width="22" height="16" preserveAspectRatio="xMinYMin meet"><path fill="rgba(255,255,255,0)" d="M0 0h2v2H0V0z"/><path fill="#252525" d="M2 0h14v2H2V0z"/><path fill="rgba(255,255,255,0)" d="M16 0h6v4h-2V2h-4V0z"/><path fill="#252525" d="M0 2h2v10H0V2z"/><path fill="#FFF889" d="M2 2h4v2H2V2z"/><path fill="#FFF899" d="M6 2h2v2H6V2z"/><path fill="#FFFEF9" d="M8 2h2v2H8V2z"/><path fill="#FFF7D8" d="M10 2h2v2h-2V2z"/><path fill="#FFF3C6" d="M12 2h2v2h-2V2z"/><path fill="#FFF" d="M14 2h2v2h-2V2z"/><path fill="#252525" d="M16 2h4v2h-4V2z"/><path fill="#FFE144" d="M2 4h2v2H2V4z"/><path fill="#FFF277" d="M4 4h6v2H4V4z"/><path fill="#FFE144" d="M10 4h2v2h-2V4z"/><path fill="#FFF9E5" d="M12 4h2v2h-2V4z"/><path fill="#FFF3C6" d="M14 4h2v2h-2V4z"/><path fill="#FFF7D8" d="M16 4h2v2h-2V4z"/><path fill="#FFEEAB" d="M18 4h2v2h-2V4z"/><path fill="#252525" d="M20 4h2v4h-2V4z"/><path fill="#FC0" d="M2 6h2v2H2V6z"/><path fill="#FFF889" d="M4 6h6v2H4V6z"/><path fill="#FFFDE4" d="M10 6h2v2h-2V6z"/><path fill="#FC0" d="M12 6h2v2h-2V6z"/><path fill="#FFEEAB" d="M14 6h2v2h-2V6z"/><path fill="#252525" d="M16 6h2v2h-2V6z"/><path fill="#FFE271" d="M18 6h2v2h-2V6zM2 8h2v2H2V8z"/><path fill="#FFF282" d="M4 8h4v2H4V8z"/><path fill="#FFF9A9" d="M8 8h2v2H8V8z"/><path fill="#FFF282" d="M10 8h2v2h-2V8z"/><path fill="#FFE271" d="M12 8h2v2h-2V8z"/><path fill="#FFF3C6" d="M14 8h2v2h-2V8z"/><path fill="#FC0" d="M16 8h2v2h-2V8z"/><path fill="#252525" d="M18 8h2v2h-2V8z"/><path fill="rgba(255,255,255,0)" d="M20 8h2v8h-8v-2h2v-2h2v-2h2V8z"/><path fill="#FFF889" d="M2 10h4v2H2v-2z"/><path fill="#FFF899" d="M6 10h2v2H6v-2z"/><path fill="#FFF889" d="M8 10h6v2H8v-2z"/><path fill="#FFF899" d="M14 10h2v2h-2v-2z"/><path fill="#252525" d="M16 10h2v2h-2v-2z"/><path fill="rgba(255,255,255,0)" d="M0 12h2v2h2v2H0v-4z"/><path fill="#252525" d="M2 12h2v2H2v-2z"/><path fill="#FC0" d="M4 12h2v2H4v-2z"/><path fill="#FFE244" d="M6 12h2v2H6v-2z"/><path fill="#FFD722" d="M8 12h2v2H8v-2z"/><path fill="#FC0" d="M10 12h4v2h-4v-2z"/><path fill="#252525" d="M14 12h2v2h-2v-2zM4 14h10v2H4v-2z"/></svg>