<svg xmlns="http://www.w3.org/2000/svg" width="22" height="16" preserveAspectRatio="xMinYMin meet"><path fill="rgba(255,255,255,0)" d="M0 0h2v2H0V0z"/><path fill="#3C2020" d="M2 0h14v2H2V0z"/><path fill="rgba(255,255,255,0)" d="M16 0h6v4h-2V2h-4V0z"/><path fill="#541C1C" d="M0 2h2v2H0V2z"/><path fill="#E40303" d="M2 2h14v2H2V2z"/><path fill="#541C1C" d="M16 2h4v2h-4V2z"/><path fill="#5B3E1B" d="M0 4h2v2H0V4z"/><path fill="#FF8C00" d="M2 4h18v2H2V4z"/><path fill="#5B3E1B" d="M20 4h2v2h-2V4z"/><path fill="#5B571B" d="M0 6h2v2H0V6z"/><path fill="#FFED00" d="M2 6h14v2H2V6z"/><path fill="#5B571B" d="M16 6h2v2h-2V6z"/><path fill="#FFED00" d="M18 6h2v2h-2V6z"/><path fill="#5B571B" d="M20 6h2v2h-2V6z"/><path fill="#1B3B25" d="M0 8h2v2H0V8z"/><path fill="#008026" d="M2 8h16v2H2V8z"/><path fill="#1B3B25" d="M18 8h2v2h-2V8z"/><path fill="rgba(255,255,255,0)" d="M20 8h2v8h-8v-2h2v-2h2v-2h2V8z"/><path fill="#1B2F5B" d="M0 10h2v2H0v-2z"/><path fill="#004DFF" d="M2 10h14v2H2v-2z"/><path fill="#1B2F5B" d="M16 10h2v2h-2v-2z"/><path fill="rgba(255,255,255,0)" d="M0 12h2v2h2v2H0v-4z"/><path fill="#391D3D" d="M2 12h2v2H2v-2z"/><path fill="#750787" d="M4 12h10v2H4v-2z"/><path fill="#391D3D" d="M14 12h2v2h-2v-2z"/><path fill="#2F2131" d="M4 14h10v2H4v-2z"/></svg>