<?xml version="1.0" encoding="utf-8"?>
<!-- generated at drububu.com  -->
<!DOCTYPE svg PUBLIC "-//W3C//DTD SVG 1.1//EN" "http://www.w3.org/Graphics/SVG/1.1/DTD/svg11.dtd">
<svg version="1.1" preserveAspectRatio="xMinYMin meet" xmlns="http://www.w3.org/2000/svg" xmlns:xlink="http://www.w3.org/1999/xlink" x="0px" y="0px" width="22px" height="16px" viewBox="0 0 22 16">
<path d="M0 0h2v2h-2v-2z" fill="rgba(255,255,255,0)"/>
<path d="M2 0h14v2h-14v-2z" fill="rgb(60,32,32)"/>
<path d="M16 0h6v4h-2v-2h-4v-2z" fill="rgba(255,255,255,0)"/>
<path d="M0 2h2v2h-2v-2z" fill="rgb(84,28,28)"/>
<path d="M2 2h14v2h-14v-2z" fill="rgb(228,3,3)"/>
<path d="M16 2h4v2h-4v-2z" fill="rgb(84,28,28)"/>
<path d="M0 4h2v2h-2v-2z" fill="rgb(91,62,27)"/>
<path d="M2 4h18v2h-18v-2z" fill="rgb(255,140,0)"/>
<path d="M20 4h2v2h-2v-2z" fill="rgb(91,62,27)"/>
<path d="M0 6h2v2h-2v-2z" fill="rgb(91,87,27)"/>
<path d="M2 6h14v2h-14v-2z" fill="rgb(255,237,0)"/>
<path d="M16 6h2v2h-2v-2z" fill="rgb(91,87,27)"/>
<path d="M18 6h2v2h-2v-2z" fill="rgb(255,237,0)"/>
<path d="M20 6h2v2h-2v-2z" fill="rgb(91,87,27)"/>
<path d="M0 8h2v2h-2v-2z" fill="rgb(27,59,37)"/>
<path d="M2 8h16v2h-16v-2z" fill="rgb(0,128,38)"/>
<path d="M18 8h2v2h-2v-2z" fill="rgb(27,59,37)"/>
<path d="M20 8h2v8h-8v-2h2v-2h2v-2h2v-2z" fill="rgba(255,255,255,0)"/>
<path d="M0 10h2v2h-2v-2z" fill="rgb(27,47,91)"/>
<path d="M2 10h14v2h-14v-2z" fill="rgb(0,77,255)"/>
<path d="M16 10h2v2h-2v-2z" fill="rgb(27,47,91)"/>
<path d="M0 12h2v2h2v2h-4v-4z" fill="rgba(255,255,255,0)"/>
<path d="M2 12h2v2h-2v-2z" fill="rgb(57,29,61)"/>
<path d="M4 12h10v2h-10v-2z" fill="rgb(117,7,135)"/>
<path d="M14 12h2v2h-2v-2z" fill="rgb(57,29,61)"/>
<path d="M4 14h10v2h-10v-2z" fill="rgb(47,33,49)"/>
</svg>