<svg xmlns="http://www.w3.org/2000/svg" width="22" height="18" preserveAspectRatio="xMinYMin meet"><path fill="#57533B" d="M0 0h2v2H0V0z"/><path fill="rgba(255,255,255,0)" d="M2 0h6v2H6v2H4V2H2V0z"/><path fill="#57533B" d="M8 0h2v2H8V0z"/><path fill="rgba(255,255,255,0)" d="M10 0h6v2h-2v2h-2V2h-2V0z"/><path fill="#57533B" d="M16 0h2v2h-2V0z"/><path fill="rgba(255,255,255,0)" d="M18 0h4v8h-2V6h-2V0z"/><path fill="#4B472D" d="M0 2h2v2H0V2z"/><path fill="#454126" d="M2 2h2v2H2V2z"/><path fill="#4B472D" d="M6 2h2v2H6V2z"/><path fill="#FFDF61" d="M8 2h2v2H8V2z"/><path fill="#4B472D" d="M10 2h2v2h-2V2z"/><path fill="#454126" d="M14 2h2v2h-2V2z"/><path fill="#4B472D" d="M16 2h2v2h-2V2z"/><path fill="#403B20" d="M0 4h2v10H0V4z"/><path fill="#FFD840" d="M2 4h2v2H2V4z"/><path fill="#403B20" d="M4 4h2v2H4V4z"/><path fill="#FFD840" d="M6 4h2v2H6V4z"/><path fill="#FC0" d="M8 4h2v2H8V4z"/><path fill="#FFD840" d="M10 4h2v2h-2V4z"/><path fill="#403B20" d="M12 4h2v2h-2V4z"/><path fill="#FFD840" d="M14 4h2v2h-2V4z"/><path fill="#403B20" d="M16 4h2v4h-2V4z"/><path fill="#FC0" d="M2 6h6v2H2V6z"/><path fill="#D1D404" d="M8 6h2v2H8V6z"/><path fill="#FC0" d="M10 6h6v2h-6V6z"/><path fill="#4B472D" d="M18 6h2v2h-2V6z"/><path fill="#FFE800" d="M2 8h2v2H2V8z"/><path fill="#FF3C00" d="M4 8h2v2H4V8z"/><path fill="#D1EB04" d="M6 8h2v2H6V8z"/><path fill="#01FF21" d="M8 8h2v2H8V8z"/><path fill="#D1E404" d="M10 8h2v2h-2V8z"/><path fill="#FF3C00" d="M12 8h2v2h-2V8z"/><path fill="#FFED00" d="M14 8h2v2h-2V8z"/><path fill="#FFD840" d="M16 8h2v2h-2V8z"/><path fill="#FFE16F" d="M18 8h2v2h-2V8z"/><path fill="#4B472D" d="M20 8h2v2h-2V8z"/><path fill="#FC0" d="M2 10h2v2H2v-2z"/><path fill="#A55600" d="M4 10h2v2H4v-2z"/><path fill="#E0D203" d="M6 10h2v2H6v-2z"/><path fill="#3A8210" d="M8 10h2v2H8v-2z"/><path fill="#E0D203" d="M10 10h2v2h-2v-2z"/><path fill="#A55600" d="M12 10h2v2h-2v-2z"/><path fill="#FC0" d="M14 10h2v2h-2v-2z"/><path fill="#574E1B" d="M16 10h2v2h-2v-2z"/><path fill="#FFD840" d="M18 10h2v2h-2v-2z"/><path fill="#403B20" d="M20 10h2v2h-2v-2z"/><path fill="#FFED00" d="M2 12h2v2H2v-2z"/><path fill="#FFE800" d="M4 12h2v2H4v-2z"/><path fill="#FFE100" d="M6 12h2v2H6v-2z"/><path fill="#E0EA03" d="M8 12h2v2H8v-2z"/><path fill="#FFF100" d="M10 12h2v2h-2v-2z"/><path fill="#FFE800" d="M12 12h2v2h-2v-2z"/><path fill="#FFE100" d="M14 12h2v2h-2v-2z"/><path fill="#FC0" d="M16 12h2v2h-2v-2z"/><path fill="#403B20" d="M18 12h2v2h-2v-2z"/><path fill="rgba(255,255,255,0)" d="M20 12h2v6h-6v-2h2v-2h2v-2z"/><path fill="#5B5B5B" d="M0 14h2v2H0v-2z"/><path fill="#FFF" d="M2 14h2v2H2v-2z"/><path fill="#C3C3C3" d="M4 14h2v2H4v-2z"/><path fill="#DFDFDF" d="M6 14h2v2H6v-2z"/><path fill="#FFF" d="M8 14h2v2H8v-2z"/><path fill="#DFDFDF" d="M10 14h2v2h-2v-2z"/><path fill="#FFF" d="M12 14h2v2h-2v-2z"/><path fill="#C3C3C3" d="M14 14h2v2h-2v-2z"/><path fill="#5B5B5B" d="M16 14h2v2h-2v-2z"/><path fill="rgba(255,255,255,0)" d="M0 16h2v2H0v-2z"/><path fill="#5B5B5B" d="M2 16h14v2H2v-2z"/></svg>