<?xml version="1.0" encoding="utf-8"?>
<!-- generated at drububu.com  -->
<!DOCTYPE svg PUBLIC "-//W3C//DTD SVG 1.1//EN" "http://www.w3.org/Graphics/SVG/1.1/DTD/svg11.dtd">
<svg version="1.1" preserveAspectRatio="xMinYMin meet" xmlns="http://www.w3.org/2000/svg" xmlns:xlink="http://www.w3.org/1999/xlink" x="0px" y="0px" width="22px" height="16px" viewBox="0 0 22 16">
<path d="M0 0h8v2h-2v2h-2v2h-2v2h-2v-8z" fill="rgba(255,255,255,0)"/>
<path d="M8 0h10v2h-10v-2z" fill="rgb(37,37,37)"/>
<path d="M18 0h4v4h-2v-2h-2v-2z" fill="rgba(255,255,255,0)"/>
<path d="M6 2h2v2h-2v-2z" fill="rgb(37,37,37)"/>
<path d="M8 2h10v2h-10v-2z" fill="rgb(192,192,192)"/>
<path d="M18 2h2v2h-2v-2z" fill="rgb(37,37,37)"/>
<path d="M4 4h2v2h-2v-2z" fill="rgb(37,37,37)"/>
<path d="M6 4h14v2h-14v-2z" fill="rgb(255,255,255)"/>
<path d="M20 4h2v10h-2v-10z" fill="rgb(37,37,37)"/>
<path d="M2 6h2v2h-2v-2z" fill="rgb(37,37,37)"/>
<path d="M4 6h2v2h-2v-2z" fill="rgb(255,255,255)"/>
<path d="M6 6h14v2h-14v-2z" fill="rgb(255,204,0)"/>
<path d="M0 8h2v4h-2v-4z" fill="rgb(37,37,37)"/>
<path d="M2 8h2v2h2v2h-4v-4z" fill="rgb(255,255,255)"/>
<path d="M4 8h2v2h-2v-2z" fill="rgb(37,37,37)"/>
<path d="M6 8h14v2h-14v-2z" fill="rgb(255,255,255)"/>
<path d="M6 10h14v2h-14v-2z" fill="rgb(255,204,0)"/>
<path d="M0 12h2v2h4v2h-6v-4z" fill="rgba(255,255,255,0)"/>
<path d="M2 12h4v2h-4v-2z" fill="rgb(37,37,37)"/>
<path d="M6 12h14v2h-14v-2z" fill="rgb(255,255,255)"/>
<path d="M6 14h14v2h-14v-2z" fill="rgb(37,37,37)"/>
<path d="M20 14h2v2h-2v-2z" fill="rgba(255,255,255,0)"/>
</svg>