<svg xmlns="http://www.w3.org/2000/svg" width="22" height="16" preserveAspectRatio="xMinYMin meet"><path fill="rgba(255,255,255,0)" d="M0 0h2v2H0V0z"/><path fill="#3F3F3F" d="M2 0h14v2H2V0z"/><path fill="rgba(255,255,255,0)" d="M16 0h6v4h-2V2h-4V0z"/><path fill="#3F3F3F" d="M0 2h2v4H0V2z"/><path fill="#FFF" d="M2 2h1v1H2V2z"/><path fill="#191919" d="M3 2h1v1H3V2z"/><path fill="#FFF" d="M4 2h3v1H6v1h1v2H4V4h1V3H4V2z"/><path fill="#191919" d="M7 2h1v1H7V2z"/><path fill="#FFF" d="M8 2h2v2h6v2H8V4h1V3H8V2z"/><path d="M10 2h6v2h-6V2z"/><path fill="#262626" d="M16 2h4v2h-4V2z"/><path fill="#191919" d="M2 3h1v1H2V3z"/><path d="M3 3h1v2H3V3z"/><path fill="#191919" d="M4 3h1v1H4V3zM6 3h1v1H6V3z"/><path d="M7 3h1v2H7V3z"/><path fill="#191919" d="M8 3h1v1H8V3z"/><path fill="#FFF" d="M2 4h1v2H2V4z"/><path fill="#D8D8D8" d="M16 4h2v2h-2V4z"/><path fill="#E5E5E5" d="M18 4h2v4h-2V4z"/><path fill="#3F3F3F" d="M20 4h2v2h-2V4zM3 5h1v1H3V5zM7 5h1v1H7V5z"/><path fill="#262626" d="M0 6h2v2H0V6z"/><path d="M2 6h14v2H2V6z"/><path fill="#262626" d="M16 6h2v2h-2V6zM20 6h2v2h-2V6z"/><path fill="#3F3F3F" d="M0 8h2v2H0V8z"/><path fill="#FFF" d="M2 8h14v2H2V8z"/><path fill="#D8D8D8" d="M16 8h2v2h-2V8z"/><path fill="#3F3F3F" d="M18 8h2v2h-2V8z"/><path fill="rgba(255,255,255,0)" d="M20 8h2v8h-8v-2h2v-2h2v-2h2V8z"/><path fill="#262626" d="M0 10h2v2H0v-2z"/><path d="M2 10h14v2H2v-2z"/><path fill="#262626" d="M16 10h2v2h-2v-2z"/><path fill="rgba(255,255,255,0)" d="M0 12h2v2h2v2H0v-4z"/><path fill="#3F3F3F" d="M2 12h2v2H2v-2z"/><path fill="#E5E5E5" d="M4 12h10v2H4v-2z"/><path fill="#3F3F3F" d="M14 12h2v2h-2v-2z"/><path fill="#262626" d="M4 14h10v2H4v-2z"/></svg>