<svg xmlns="http://www.w3.org/2000/svg" width="22" height="22" preserveAspectRatio="xMinYMin meet"><path fill="rgba(255,255,255,0)" d="M0 0h8v2H4v2H2v4H0V0z"/><path fill="#1F1B1A" d="M8 0h4v2H8V0z"/><path fill="rgba(255,255,255,0)" d="M12 0h10v10h-2V8h-4V4h-2V2h-2V0z"/><path fill="#1F1B1A" d="M4 2h4v2H4V2z"/><path fill="#E8E7DC" d="M8 2h2v2H8V2z"/><path fill="#FFF" d="M10 2h2v2h2v2H6V4h4V2z"/><path fill="#1F1B1A" d="M12 2h2v2h-2V2zM2 4h2v4H2V4z"/><path fill="#B2B2B2" d="M4 4h2v2H4V4z"/><path fill="#1F1B1A" d="M14 4h2v4h-2V4z"/><path fill="#FFFEFA" d="M4 6h8v2H4V6z"/><path fill="#E8E7DC" d="M12 6h2v2h-2V6z"/><path d="M0 8h2v10H0V8z"/><path fill="#D9D9D9" d="M2 8h2v2H2V8z"/><path fill="#E8E7DC" d="M4 8h8v2H4V8z"/><path fill="#D9D9D9" d="M12 8h2v2h-2V8z"/><path fill="#B2B2B2" d="M14 8h2v2h-2V8z"/><path d="M16 8h4v2h-4V8z"/><path fill="#282623" d="M2 10h12v2H2v-2z"/><path fill="#191817" d="M14 10h2v2h-2v-2z"/><path fill="#66645A" d="M16 10h4v4h-2v-2h-2v-2z"/><path d="M20 10h2v4h-2v-4z"/><path fill="#3B3A34" d="M2 12h2v4H2v-4z"/><path fill="#6DB9C8" d="M4 12h4v2H4v-2z"/><path fill="#3B3A34" d="M8 12h2v4h4v2H4v-2h4v-4z"/><path fill="#6DB9C8" d="M10 12h4v2h-4v-2z"/><path fill="#48463F" d="M14 12h2v4h-2v-4z"/><path d="M16 12h2v2h-2v-2zM4 14h2v2H4v-2z"/><path fill="#ABF3FE" d="M6 14h2v2H6v-2z"/><path d="M10 14h2v2h-2v-2z"/><path fill="#ABF3FE" d="M12 14h2v2h-2v-2z"/><path fill="#66645A" d="M16 14h2v2h-2v-2z"/><path d="M18 14h2v2h-2v-2z"/><path fill="rgba(255,255,255,0)" d="M20 14h2v8h-8v-2h2v-2h2v-2h2v-2z"/><path fill="#302D28" d="M2 16h2v2H2v-2z"/><path fill="#413E38" d="M14 16h2v2h-2v-2z"/><path d="M16 16h2v2h-2v-2z"/><path fill="rgba(255,255,255,0)" d="M0 18h2v2h2v2H0v-4z"/><path d="M2 18h2v2H2v-2z"/><path fill="#A08720" d="M4 18h2v2H4v-2z"/><path fill="#FFD53D" d="M6 18h6v2H6v-2z"/><path fill="#766016" d="M12 18h2v2h-2v-2z"/><path d="M14 18h2v2h-2v-2zM4 20h10v2H4v-2z"/></svg>