<?xml version="1.0" encoding="utf-8"?>
<!-- generated at drububu.com  -->
<!DOCTYPE svg PUBLIC "-//W3C//DTD SVG 1.1//EN" "http://www.w3.org/Graphics/SVG/1.1/DTD/svg11.dtd">
<svg version="1.1" preserveAspectRatio="xMinYMin meet" xmlns="http://www.w3.org/2000/svg" xmlns:xlink="http://www.w3.org/1999/xlink" x="0px" y="0px" width="22px" height="16px" viewBox="0 0 22 16">
<path d="M0 0h2v2h-2v-2z" fill="rgba(255,255,255,0)"/>
<path d="M2 0h14v2h-14v-2z" fill="rgb(37,37,37)"/>
<path d="M16 0h6v4h-2v-2h-4v-2z" fill="rgba(255,255,255,0)"/>
<path d="M0 2h2v10h-2v-10z" fill="rgb(37,37,37)"/>
<path d="M2 2h1v1h-1v-1z" fill="rgb(197,211,223)"/>
<path d="M3 2h1v1h-1v-1z" fill="rgb(189,208,227)"/>
<path d="M4 2h1v1h-1v-1z" fill="rgb(183,210,224)"/>
<path d="M5 2h1v1h-1v-1z" fill="rgb(195,210,223)"/>
<path d="M6 2h1v1h-1v-1z" fill="rgb(182,211,229)"/>
<path d="M7 2h1v1h-1v-1z" fill="rgb(182,219,218)"/>
<path d="M8 2h1v1h-1v-1z" fill="rgb(188,223,221)"/>
<path d="M9 2h1v1h-1v-1z" fill="rgb(179,218,224)"/>
<path d="M10 2h1v1h-1v-1z" fill="rgb(191,209,225)"/>
<path d="M11 2h1v1h-1v-1z" fill="rgb(181,226,216)"/>
<path d="M12 2h1v1h-1v-1z" fill="rgb(178,219,211)"/>
<path d="M13 2h1v1h-1v-1z" fill="rgb(197,213,214)"/>
<path d="M14 2h1v1h-1v-1z" fill="rgb(178,225,223)"/>
<path d="M15 2h1v1h-1v-1z" fill="rgb(194,219,219)"/>
<path d="M16 2h4v2h-4v-2z" fill="rgb(37,37,37)"/>
<path d="M2 3h1v1h-1v-1z" fill="rgb(185,212,215)"/>
<path d="M3 3h1v1h-1v-1z" fill="rgb(183,213,220)"/>
<path d="M4 3h1v1h-1v-1z" fill="rgb(196,210,213)"/>
<path d="M5 3h1v1h-1v-1z" fill="rgb(183,214,224)"/>
<path d="M6 3h1v1h-1v-1z" fill="rgb(191,221,224)"/>
<path d="M7 3h1v1h-1v-1z" fill="rgb(190,220,227)"/>
<path d="M8 3h1v1h-1v-1z" fill="rgb(197,218,228)"/>
<path d="M9 3h1v1h-1v-1z" fill="rgb(190,216,225)"/>
<path d="M10 3h1v1h-1v-1z" fill="rgb(178,214,217)"/>
<path d="M11 3h1v1h-1v-1z" fill="rgb(183,224,229)"/>
<path d="M12 3h1v1h-1v-1z" fill="rgb(254,255,8)"/>
<path d="M13 3h1v1h-1v-1z" fill="rgb(190,214,212)"/>
<path d="M14 3h1v1h-1v-1z" fill="rgb(191,215,215)"/>
<path d="M15 3h1v1h-1v-1z" fill="rgb(195,222,218)"/>
<path d="M2 4h1v1h-1v-1z" fill="rgb(197,217,217)"/>
<path d="M3 4h1v1h-1v-1z" fill="rgb(188,225,228)"/>
<path d="M4 4h1v1h-1v-1z" fill="rgb(195,213,214)"/>
<path d="M5 4h1v1h-1v-1z" fill="rgb(193,215,221)"/>
<path d="M6 4h1v1h-1v-1z" fill="rgb(182,224,226)"/>
<path d="M7 4h1v1h-1v-1z" fill="rgb(196,213,227)"/>
<path d="M8 4h1v1h-1v-1z" fill="rgb(183,216,218)"/>
<path d="M9 4h1v1h-1v-1z" fill="rgb(183,223,223)"/>
<path d="M10 4h1v1h-1v-1z" fill="rgb(255,245,14)"/>
<path d="M11 4h1v1h-1v-1z" fill="rgb(255,255,0)"/>
<path d="M12 4h1v1h-1v-1z" fill="rgb(255,255,5)"/>
<path d="M13 4h1v1h-1v-1z" fill="rgb(247,249,2)"/>
<path d="M14 4h1v1h-1v-1z" fill="rgb(244,255,2)"/>
<path d="M15 4h1v1h-1v-1z" fill="rgb(183,214,220)"/>
<path d="M16 4h4v4h-2v-2h-2v-2z" fill="rgb(188,218,221)"/>
<path d="M20 4h2v4h-2v-4z" fill="rgb(37,37,37)"/>
<path d="M2 5h1v1h-1v-1z" fill="rgb(188,224,213)"/>
<path d="M3 5h1v1h-1v-1z" fill="rgb(195,225,225)"/>
<path d="M4 5h1v1h-1v-1z" fill="rgb(193,216,225)"/>
<path d="M5 5h1v1h-1v-1z" fill="rgb(180,210,223)"/>
<path d="M6 5h1v1h-1v-1z" fill="rgb(252,255,4)"/>
<path d="M7 5h1v1h-1v-1z" fill="rgb(188,224,217)"/>
<path d="M8 5h1v1h-1v-1z" fill="rgb(196,211,214)"/>
<path d="M9 5h1v1h-1v-1z" fill="rgb(248,255,0)"/>
<path d="M10 5h1v1h-1v-1z" fill="rgb(243,252,3)"/>
<path d="M11 5h1v1h-1v-1z" fill="rgb(248,255,11)"/>
<path d="M12 5h1v1h-1v-1z" fill="rgb(99,107,1)"/>
<path d="M13 5h1v1h-1v-1z" fill="rgb(57,50,4)"/>
<path d="M14 5h1v1h-1v-1z" fill="rgb(242,248,0)"/>
<path d="M15 5h1v1h-1v-1z" fill="rgb(179,219,215)"/>
<path d="M2 6h1v1h-1v-1z" fill="rgb(196,223,230)"/>
<path d="M3 6h1v1h-1v-1z" fill="rgb(182,222,224)"/>
<path d="M4 6h1v1h-1v-1z" fill="rgb(185,217,217)"/>
<path d="M5 6h1v1h-1v-1z" fill="rgb(183,218,214)"/>
<path d="M6 6h1v1h-1v-1z" fill="rgb(248,245,0)"/>
<path d="M7 6h1v1h-1v-1z" fill="rgb(242,242,6)"/>
<path d="M8 6h1v1h-1v-1z" fill="rgb(242,198,15)"/>
<path d="M9 6h1v1h-1v-1z" fill="rgb(246,193,11)"/>
<path d="M10 6h1v1h-1v-1z" fill="rgb(247,179,1)"/>
<path d="M11 6h1v1h-1v-1z" fill="rgb(253,255,3)"/>
<path d="M12 6h1v1h-1v-1z" fill="rgb(253,255,0)"/>
<path d="M13 6h1v1h-1v-1z" fill="rgb(101,105,0)"/>
<path d="M14 6h1v1h-1v-1z" fill="rgb(250,255,0)"/>
<path d="M15 6h1v1h-1v-1z" fill="rgb(188,215,220)"/>
<path d="M16 6h2v2h-2v-2z" fill="rgb(37,37,37)"/>
<path d="M2 7h1v1h-1v-1z" fill="rgb(179,210,222)"/>
<path d="M3 7h1v1h-1v-1z" fill="rgb(189,227,230)"/>
<path d="M4 7h1v1h-1v-1z" fill="rgb(187,217,215)"/>
<path d="M5 7h1v1h-1v-1z" fill="rgb(195,213,220)"/>
<path d="M6 7h1v1h-1v-1z" fill="rgb(255,247,0)"/>
<path d="M7 7h1v1h-1v-1z" fill="rgb(255,252,0)"/>
<path d="M8 7h1v1h-1v-1z" fill="rgb(247,255,7)"/>
<path d="M9 7h1v1h-1v-1z" fill="rgb(241,192,11)"/>
<path d="M10 7h1v1h-1v-1z" fill="rgb(248,186,12)"/>
<path d="M11 7h1v1h-1v-1z" fill="rgb(255,186,15)"/>
<path d="M12 7h1v1h-1v-1z" fill="rgb(250,249,6)"/>
<path d="M13 7h1v1h-1v-1z" fill="rgb(246,242,11)"/>
<path d="M14 7h1v1h-1v-1z" fill="rgb(191,224,227)"/>
<path d="M15 7h1v1h-1v-1z" fill="rgb(196,224,215)"/>
<path d="M2 8h1v1h-1v-1z" fill="rgb(192,219,217)"/>
<path d="M3 8h1v1h-1v-1z" fill="rgb(184,212,216)"/>
<path d="M4 8h1v1h-1v-1z" fill="rgb(187,211,229)"/>
<path d="M5 8h1v1h-1v-1z" fill="rgb(182,220,212)"/>
<path d="M6 8h1v1h-1v-1z" fill="rgb(254,247,0)"/>
<path d="M7 8h1v1h-1v-1z" fill="rgb(246,250,11)"/>
<path d="M8 8h1v1h-1v-1z" fill="rgb(255,246,6)"/>
<path d="M9 8h1v1h-1v-1z" fill="rgb(243,246,5)"/>
<path d="M10 8h1v1h-1v-1z" fill="rgb(240,190,11)"/>
<path d="M11 8h1v1h-1v-1z" fill="rgb(183,216,227)"/>
<path d="M12 8h1v1h-1v-1z" fill="rgb(189,212,227)"/>
<path d="M13 8h1v1h-1v-1z" fill="rgb(193,225,213)"/>
<path d="M14 8h1v1h-1v-1z" fill="rgb(196,215,228)"/>
<path d="M15 8h1v1h-1v-1z" fill="rgb(183,211,223)"/>
<path d="M16 8h2v2h-2v-2z" fill="rgb(188,218,221)"/>
<path d="M18 8h2v2h-2v-2z" fill="rgb(37,37,37)"/>
<path d="M20 8h2v8h-8v-2h2v-2h2v-2h2v-2z" fill="rgba(255,255,255,0)"/>
<path d="M2 9h1v1h-1v-1z" fill="rgb(187,211,218)"/>
<path d="M3 9h1v1h-1v-1z" fill="rgb(190,226,223)"/>
<path d="M4 9h1v1h-1v-1z" fill="rgb(190,227,214)"/>
<path d="M5 9h1v1h-1v-1z" fill="rgb(182,209,221)"/>
<path d="M6 9h1v1h-1v-1z" fill="rgb(250,255,0)"/>
<path d="M7 9h1v1h-1v-1z" fill="rgb(250,249,0)"/>
<path d="M8 9h1v1h-1v-1z" fill="rgb(255,255,6)"/>
<path d="M9 9h1v1h-1v-1z" fill="rgb(253,242,1)"/>
<path d="M10 9h1v1h-1v-1z" fill="rgb(245,243,5)"/>
<path d="M11 9h1v1h-1v-1z" fill="rgb(252,255,8)"/>
<path d="M12 9h1v1h-1v-1z" fill="rgb(185,208,223)"/>
<path d="M13 9h1v1h-1v-1z" fill="rgb(180,225,225)"/>
<path d="M14 9h1v1h-1v-1z" fill="rgb(184,216,227)"/>
<path d="M15 9h1v1h-1v-1z" fill="rgb(196,211,221)"/>
<path d="M2 10h1v1h-1v-1z" fill="rgb(192,218,228)"/>
<path d="M3 10h1v1h-1v-1z" fill="rgb(185,213,213)"/>
<path d="M4 10h1v1h-1v-1z" fill="rgb(181,216,214)"/>
<path d="M5 10h1v1h-1v-1z" fill="rgb(245,243,0)"/>
<path d="M6 10h1v1h-1v-1z" fill="rgb(255,255,6)"/>
<path d="M7 10h1v1h-1v-1z" fill="rgb(245,243,0)"/>
<path d="M8 10h1v1h-1v-1z" fill="rgb(242,248,6)"/>
<path d="M9 10h1v1h-1v-1z" fill="rgb(245,244,0)"/>
<path d="M10 10h1v1h-1v-1z" fill="rgb(255,255,14)"/>
<path d="M11 10h1v1h-1v-1z" fill="rgb(255,249,12)"/>
<path d="M12 10h1v1h-1v-1z" fill="rgb(194,218,212)"/>
<path d="M13 10h1v1h-1v-1z" fill="rgb(189,212,226)"/>
<path d="M14 10h1v1h-1v-1z" fill="rgb(190,227,228)"/>
<path d="M15 10h1v1h-1v-1z" fill="rgb(190,214,212)"/>
<path d="M16 10h2v2h-2v-2z" fill="rgb(37,37,37)"/>
<path d="M2 11h1v1h-1v-1z" fill="rgb(191,218,229)"/>
<path d="M3 11h1v1h-1v-1z" fill="rgb(184,218,227)"/>
<path d="M4 11h1v1h-1v-1z" fill="rgb(186,216,214)"/>
<path d="M5 11h1v1h-1v-1z" fill="rgb(190,224,214)"/>
<path d="M6 11h1v1h-1v-1z" fill="rgb(191,208,225)"/>
<path d="M7 11h1v1h-1v-1z" fill="rgb(36,31,41)"/>
<path d="M8 11h1v1h-1v-1z" fill="rgb(182,212,220)"/>
<path d="M9 11h1v1h-1v-1z" fill="rgb(180,209,211)"/>
<path d="M10 11h1v1h-1v-1z" fill="rgb(179,223,215)"/>
<path d="M11 11h1v1h-1v-1z" fill="rgb(39,34,45)"/>
<path d="M12 11h1v1h-1v-1z" fill="rgb(38,38,27)"/>
<path d="M13 11h1v1h-1v-1z" fill="rgb(197,223,215)"/>
<path d="M14 11h1v1h-1v-1z" fill="rgb(187,212,218)"/>
<path d="M15 11h1v1h-1v-1z" fill="rgb(186,212,220)"/>
<path d="M0 12h2v2h2v2h-4v-4z" fill="rgba(255,255,255,0)"/>
<path d="M2 12h2v2h-1v-1h-1v-1z" fill="rgb(37,37,37)"/>
<path d="M4 12h1v1h-1v-1z" fill="rgb(190,225,227)"/>
<path d="M5 12h1v1h-1v-1z" fill="rgb(194,225,211)"/>
<path d="M6 12h1v1h-1v-1z" fill="rgb(31,32,28)"/>
<path d="M7 12h1v1h-1v-1z" fill="rgb(194,227,225)"/>
<path d="M8 12h1v1h-1v-1z" fill="rgb(190,223,223)"/>
<path d="M9 12h1v1h-1v-1z" fill="rgb(178,227,219)"/>
<path d="M10 12h1v1h-1v-1z" fill="rgb(190,222,230)"/>
<path d="M11 12h1v1h-1v-1z" fill="rgb(179,219,228)"/>
<path d="M12 12h1v1h-1v-1z" fill="rgb(41,29,40)"/>
<path d="M13 12h1v1h-1v-1z" fill="rgb(194,210,218)"/>
<path d="M14 12h1v1h-1v-1z" fill="rgb(39,33,33)"/>
<path d="M15 12h1v1h-1v-1z" fill="rgb(45,38,35)"/>
<path d="M2 13h1v1h-1v-1z" fill="rgb(28,29,29)"/>
<path d="M4 13h1v1h-1v-1z" fill="rgb(189,212,230)"/>
<path d="M5 13h1v1h-1v-1z" fill="rgb(195,208,213)"/>
<path d="M6 13h1v1h-1v-1z" fill="rgb(179,219,212)"/>
<path d="M7 13h1v1h-1v-1z" fill="rgb(196,224,218)"/>
<path d="M8 13h1v1h-1v-1z" fill="rgb(192,216,221)"/>
<path d="M9 13h1v1h-1v-1z" fill="rgb(189,210,220)"/>
<path d="M10 13h1v1h-1v-1z" fill="rgb(178,223,218)"/>
<path d="M11 13h1v1h-1v-1z" fill="rgb(190,222,222)"/>
<path d="M12 13h1v1h-1v-1z" fill="rgb(187,216,227)"/>
<path d="M13 13h1v1h-1v-1z" fill="rgb(179,217,225)"/>
<path d="M14 13h1v1h-1v-1z" fill="rgb(40,44,40)"/>
<path d="M15 13h1v1h-1v-1z" fill="rgb(41,40,31)"/>
<path d="M4 14h10v2h-10v-2z" fill="rgb(37,37,37)"/>
</svg>