<svg xmlns="http://www.w3.org/2000/svg" width="22" height="16" preserveAspectRatio="xMinYMin meet"><path fill="rgba(255,255,255,0)" d="M0 0h2v2H0V0z"/><path fill="#9C281B" d="M2 0h14v2H2V0z"/><path fill="rgba(255,255,255,0)" d="M16 0h6v4h-2V2h-4V0z"/><path fill="#9C281B" d="M0 2h2v4H0V2z"/><path fill="#EE531B" d="M2 2h2v2H2V2z"/><path fill="#EF5E1E" d="M4 2h2v2H4V2z"/><path fill="#F06C22" d="M6 2h6v2H6V2z"/><path fill="#EF5E1E" d="M12 2h2v2h-2V2z"/><path fill="#EE531B" d="M14 2h2v2h-2V2z"/><path fill="#9C281B" d="M16 2h4v2h-4V2z"/><path fill="#EE3516" d="M2 4h6v2H2V4z"/><path fill="#EF4A25" d="M8 4h2v2H8V4z"/><path fill="#EE3516" d="M10 4h6v2h-6V4z"/><path fill="#EE4C25" d="M16 4h4v2h-4V4z"/><path fill="#9C281B" d="M20 4h2v2h-2V4z"/><path fill="#A23322" d="M0 6h2v2H0V6z"/><path fill="#F3711B" d="M2 6h2v2H2V6z"/><path fill="#F6861E" d="M4 6h2v2H4V6z"/><path fill="#F9A221" d="M6 6h6v2H6V6z"/><path fill="#F6861E" d="M12 6h2v2h-2V6z"/><path fill="#F3711B" d="M14 6h2v2h-2V6z"/><path fill="#A23322" d="M16 6h2v2h-2V6z"/><path fill="#F37722" d="M18 6h2v2h-2V6z"/><path fill="#A23322" d="M20 6h2v2h-2V6z"/><path fill="#A83F29" d="M0 8h2v4H0V8z"/><path fill="#EE3516" d="M2 8h4v2H2V8z"/><path fill="#EF4A25" d="M6 8h6v2H6V8z"/><path fill="#EE3516" d="M12 8h4v2h-4V8z"/><path fill="#F6921F" d="M16 8h2v2h-2V8z"/><path fill="#A83F29" d="M18 8h2v2h-2V8z"/><path fill="rgba(255,255,255,0)" d="M20 8h2v8h-8v-2h2v-2h2v-2h2V8z"/><path fill="#F9AF19" d="M2 10h2v2H2v-2z"/><path fill="#FED81B" d="M4 10h10v2H4v-2z"/><path fill="#F9AF19" d="M14 10h2v2h-2v-2z"/><path fill="#A83F29" d="M16 10h2v2h-2v-2z"/><path fill="rgba(255,255,255,0)" d="M0 12h2v2h2v2H0v-4z"/><path fill="#A83F29" d="M2 12h2v2H2v-2z"/><path fill="#F9B770" d="M4 12h2v2H4v-2z"/><path fill="#FDE38F" d="M6 12h6v2H6v-2z"/><path fill="#F9B770" d="M12 12h2v2h-2v-2z"/><path fill="#A83F29" d="M14 12h2v2h-2v-2zM4 14h10v2H4v-2z"/></svg>