<svg xmlns="http://www.w3.org/2000/svg" width="22" height="16" preserveAspectRatio="xMinYMin meet"><path fill="rgba(255,255,255,0)" d="M0 0h2v2H0V0z"/><path fill="#252525" d="M2 0h8v2H2V0z"/><path fill="#5B5B5B" d="M10 0h2v2h-2V0z"/><path fill="#252525" d="M12 0h4v2h-4V0z"/><path fill="rgba(255,255,255,0)" d="M16 0h6v4h-2V2h-4V0z"/><path fill="#5B5B5B" d="M0 2h2v2H0V2z"/><path fill="#FFF" d="M2 2h2v2H2V2z"/><path fill="#F4F3F8" d="M4 2h2v2H4V2z"/><path fill="#FFF" d="M6 2h8v2H6V2z"/><path fill="#EAEBEC" d="M14 2h2v2h-2V2z"/><path fill="#252525" d="M16 2h2v2h-2V2z"/><path fill="#5B5B5B" d="M18 2h2v2h-2V2z"/><path fill="#252525" d="M0 4h2v6H0V4z"/><path fill="#FFE64F" d="M2 4h2v2H2V4z"/><path fill="#F5CD37" d="M4 4h2v2H4V4z"/><path fill="#FED63F" d="M6 4h2v2H6V4z"/><path fill="#FFE64A" d="M8 4h2v2H8V4z"/><path fill="#F2CA32" d="M10 4h2v2h-2V4z"/><path fill="#FFDF45" d="M12 4h2v2h-2V4z"/><path fill="#FFDE47" d="M14 4h2v2h-2V4z"/><path fill="#FEFFFD" d="M16 4h2v2h-2V4z"/><path fill="#FFFEFE" d="M18 4h2v2h-2V4z"/><path fill="#252525" d="M20 4h2v4h-2V4z"/><path fill="#FAFBFB" d="M2 6h2v2H2V6z"/><path fill="#FFF" d="M4 6h6v2H4V6z"/><path fill="#F9FEFA" d="M10 6h2v2h-2V6z"/><path fill="#FFF" d="M12 6h2v2h-2V6z"/><path fill="#F7F8F8" d="M14 6h2v2h-2V6z"/><path fill="#5B5B5B" d="M16 6h2v2h-2V6z"/><path fill="#FBFCFD" d="M18 6h2v2h-2V6z"/><path fill="#F2C82F" d="M2 8h2v2H2V8z"/><path fill="#FCD33C" d="M4 8h2v2H4V8z"/><path fill="#FFE148" d="M6 8h2v2H6V8z"/><path fill="#FAD33C" d="M8 8h2v2H8V8z"/><path fill="#F6CE36" d="M10 8h2v2h-2V8z"/><path fill="#FCD53D" d="M12 8h2v2h-2V8z"/><path fill="#FFE249" d="M14 8h2v2h-2V8z"/><path fill="#F3F1F2" d="M16 8h2v2h-2V8z"/><path fill="#252525" d="M18 8h2v2h-2V8z"/><path fill="rgba(255,255,255,0)" d="M20 8h2v8h-8v-2h2v-2h2v-2h2V8z"/><path fill="#5B5B5B" d="M0 10h2v2H0v-2z"/><path fill="#F2EFF3" d="M2 10h2v2H2v-2z"/><path fill="#FFFFFE" d="M4 10h2v2H4v-2z"/><path fill="#FCFBFF" d="M6 10h2v2H6v-2z"/><path fill="#F6F7F8" d="M8 10h2v2H8v-2z"/><path fill="#FFF" d="M10 10h6v2h-6v-2z"/><path fill="#252525" d="M16 10h2v2h-2v-2z"/><path fill="rgba(255,255,255,0)" d="M0 12h2v2h2v2H0v-4z"/><path fill="#252525" d="M2 12h2v2H2v-2z"/><path fill="#CCCBCC" d="M4 12h2v2H4v-2z"/><path fill="#CACBCA" d="M6 12h2v2H6v-2z"/><path fill="#D7DAD7" d="M8 12h2v2H8v-2z"/><path fill="#BEBCBD" d="M10 12h2v2h-2v-2z"/><path fill="#D0D2D3" d="M12 12h2v2h-2v-2z"/><path fill="#5B5B5B" d="M14 12h2v2h-2v-2zM4 14h2v2H4v-2z"/><path fill="#252525" d="M6 14h4v2H6v-2z"/><path fill="#5B5B5B" d="M10 14h2v2h-2v-2z"/><path fill="#252525" d="M12 14h2v2h-2v-2z"/></svg>