<?xml version="1.0" encoding="utf-8"?>
<!-- generated at drububu.com  -->
<!DOCTYPE svg PUBLIC "-//W3C//DTD SVG 1.1//EN" "http://www.w3.org/Graphics/SVG/1.1/DTD/svg11.dtd">
<svg version="1.1" preserveAspectRatio="xMinYMin meet" xmlns="http://www.w3.org/2000/svg" xmlns:xlink="http://www.w3.org/1999/xlink" x="0px" y="0px" width="22px" height="18px" viewBox="0 0 22 18">
<path d="M0 0h2v2h-2v-2z" fill="rgb(87,83,59)"/>
<path d="M2 0h6v2h-2v2h-2v-2h-2v-2z" fill="rgba(255,255,255,0)"/>
<path d="M8 0h2v2h-2v-2z" fill="rgb(87,83,59)"/>
<path d="M10 0h6v2h-2v2h-2v-2h-2v-2z" fill="rgba(255,255,255,0)"/>
<path d="M16 0h2v2h-2v-2z" fill="rgb(87,83,59)"/>
<path d="M18 0h4v8h-2v-2h-2v-6z" fill="rgba(255,255,255,0)"/>
<path d="M0 2h2v2h-2v-2z" fill="rgb(75,71,45)"/>
<path d="M2 2h2v2h-2v-2z" fill="rgb(69,65,38)"/>
<path d="M6 2h2v2h-2v-2z" fill="rgb(75,71,45)"/>
<path d="M8 2h2v2h-2v-2z" fill="rgb(255,223,97)"/>
<path d="M10 2h2v2h-2v-2z" fill="rgb(75,71,45)"/>
<path d="M14 2h2v2h-2v-2z" fill="rgb(69,65,38)"/>
<path d="M16 2h2v2h-2v-2z" fill="rgb(75,71,45)"/>
<path d="M0 4h2v10h-2v-10z" fill="rgb(64,59,32)"/>
<path d="M2 4h2v2h-2v-2z" fill="rgb(255,216,64)"/>
<path d="M4 4h2v2h-2v-2z" fill="rgb(64,59,32)"/>
<path d="M6 4h2v2h-2v-2z" fill="rgb(255,216,64)"/>
<path d="M8 4h2v2h-2v-2z" fill="rgb(255,204,0)"/>
<path d="M10 4h2v2h-2v-2z" fill="rgb(255,216,64)"/>
<path d="M12 4h2v2h-2v-2z" fill="rgb(64,59,32)"/>
<path d="M14 4h2v2h-2v-2z" fill="rgb(255,216,64)"/>
<path d="M16 4h2v4h-2v-4z" fill="rgb(64,59,32)"/>
<path d="M2 6h6v2h-6v-2z" fill="rgb(255,204,0)"/>
<path d="M8 6h2v2h-2v-2z" fill="rgb(209,212,4)"/>
<path d="M10 6h6v2h-6v-2z" fill="rgb(255,204,0)"/>
<path d="M18 6h2v2h-2v-2z" fill="rgb(75,71,45)"/>
<path d="M2 8h2v2h-2v-2z" fill="rgb(255,232,0)"/>
<path d="M4 8h2v2h-2v-2z" fill="rgb(255,60,0)"/>
<path d="M6 8h2v2h-2v-2z" fill="rgb(209,235,4)"/>
<path d="M8 8h2v2h-2v-2z" fill="rgb(1,255,33)"/>
<path d="M10 8h2v2h-2v-2z" fill="rgb(209,228,4)"/>
<path d="M12 8h2v2h-2v-2z" fill="rgb(255,60,0)"/>
<path d="M14 8h2v2h-2v-2z" fill="rgb(255,237,0)"/>
<path d="M16 8h2v2h-2v-2z" fill="rgb(255,216,64)"/>
<path d="M18 8h2v2h-2v-2z" fill="rgb(255,225,111)"/>
<path d="M20 8h2v2h-2v-2z" fill="rgb(75,71,45)"/>
<path d="M2 10h2v2h-2v-2z" fill="rgb(255,204,0)"/>
<path d="M4 10h2v2h-2v-2z" fill="rgb(165,86,0)"/>
<path d="M6 10h2v2h-2v-2z" fill="rgb(224,210,3)"/>
<path d="M8 10h2v2h-2v-2z" fill="rgb(58,130,16)"/>
<path d="M10 10h2v2h-2v-2z" fill="rgb(224,210,3)"/>
<path d="M12 10h2v2h-2v-2z" fill="rgb(165,86,0)"/>
<path d="M14 10h2v2h-2v-2z" fill="rgb(255,204,0)"/>
<path d="M16 10h2v2h-2v-2z" fill="rgb(87,78,27)"/>
<path d="M18 10h2v2h-2v-2z" fill="rgb(255,216,64)"/>
<path d="M20 10h2v2h-2v-2z" fill="rgb(64,59,32)"/>
<path d="M2 12h2v2h-2v-2z" fill="rgb(255,237,0)"/>
<path d="M4 12h2v2h-2v-2z" fill="rgb(255,232,0)"/>
<path d="M6 12h2v2h-2v-2z" fill="rgb(255,225,0)"/>
<path d="M8 12h2v2h-2v-2z" fill="rgb(224,234,3)"/>
<path d="M10 12h2v2h-2v-2z" fill="rgb(255,241,0)"/>
<path d="M12 12h2v2h-2v-2z" fill="rgb(255,232,0)"/>
<path d="M14 12h2v2h-2v-2z" fill="rgb(255,225,0)"/>
<path d="M16 12h2v2h-2v-2z" fill="rgb(255,204,0)"/>
<path d="M18 12h2v2h-2v-2z" fill="rgb(64,59,32)"/>
<path d="M20 12h2v6h-6v-2h2v-2h2v-2z" fill="rgba(255,255,255,0)"/>
<path d="M0 14h2v2h-2v-2z" fill="rgb(91,91,91)"/>
<path d="M2 14h2v2h-2v-2z" fill="rgb(255,255,255)"/>
<path d="M4 14h2v2h-2v-2z" fill="rgb(195,195,195)"/>
<path d="M6 14h2v2h-2v-2z" fill="rgb(223,223,223)"/>
<path d="M8 14h2v2h-2v-2z" fill="rgb(255,255,255)"/>
<path d="M10 14h2v2h-2v-2z" fill="rgb(223,223,223)"/>
<path d="M12 14h2v2h-2v-2z" fill="rgb(255,255,255)"/>
<path d="M14 14h2v2h-2v-2z" fill="rgb(195,195,195)"/>
<path d="M16 14h2v2h-2v-2z" fill="rgb(91,91,91)"/>
<path d="M0 16h2v2h-2v-2z" fill="rgba(255,255,255,0)"/>
<path d="M2 16h14v2h-14v-2z" fill="rgb(91,91,91)"/>
</svg>