<?xml version="1.0" encoding="utf-8"?>
<!-- generated at drububu.com  -->
<!DOCTYPE svg PUBLIC "-//W3C//DTD SVG 1.1//EN" "http://www.w3.org/Graphics/SVG/1.1/DTD/svg11.dtd">
<svg version="1.1" preserveAspectRatio="xMinYMin meet" xmlns="http://www.w3.org/2000/svg" xmlns:xlink="http://www.w3.org/1999/xlink" x="0px" y="0px" width="22px" height="16px" viewBox="0 0 22 16">
<path d="M0 0h2v2h-2v-2z" fill="rgba(255,255,255,0)"/>
<path d="M2 0h14v2h-14v-2z" fill="rgb(156,40,27)"/>
<path d="M16 0h6v4h-2v-2h-4v-2z" fill="rgba(255,255,255,0)"/>
<path d="M0 2h2v4h-2v-4z" fill="rgb(156,40,27)"/>
<path d="M2 2h2v2h-2v-2z" fill="rgb(238,83,27)"/>
<path d="M4 2h2v2h-2v-2z" fill="rgb(239,94,30)"/>
<path d="M6 2h6v2h-6v-2z" fill="rgb(240,108,34)"/>
<path d="M12 2h2v2h-2v-2z" fill="rgb(239,94,30)"/>
<path d="M14 2h2v2h-2v-2z" fill="rgb(238,83,27)"/>
<path d="M16 2h4v2h-4v-2z" fill="rgb(156,40,27)"/>
<path d="M2 4h6v2h-6v-2z" fill="rgb(238,53,22)"/>
<path d="M8 4h2v2h-2v-2z" fill="rgb(239,74,37)"/>
<path d="M10 4h6v2h-6v-2z" fill="rgb(238,53,22)"/>
<path d="M16 4h4v2h-4v-2z" fill="rgb(238,76,37)"/>
<path d="M20 4h2v2h-2v-2z" fill="rgb(156,40,27)"/>
<path d="M0 6h2v2h-2v-2z" fill="rgb(162,51,34)"/>
<path d="M2 6h2v2h-2v-2z" fill="rgb(243,113,27)"/>
<path d="M4 6h2v2h-2v-2z" fill="rgb(246,134,30)"/>
<path d="M6 6h6v2h-6v-2z" fill="rgb(249,162,33)"/>
<path d="M12 6h2v2h-2v-2z" fill="rgb(246,134,30)"/>
<path d="M14 6h2v2h-2v-2z" fill="rgb(243,113,27)"/>
<path d="M16 6h2v2h-2v-2z" fill="rgb(162,51,34)"/>
<path d="M18 6h2v2h-2v-2z" fill="rgb(243,119,34)"/>
<path d="M20 6h2v2h-2v-2z" fill="rgb(162,51,34)"/>
<path d="M0 8h2v4h-2v-4z" fill="rgb(168,63,41)"/>
<path d="M2 8h4v2h-4v-2z" fill="rgb(238,53,22)"/>
<path d="M6 8h6v2h-6v-2z" fill="rgb(239,74,37)"/>
<path d="M12 8h4v2h-4v-2z" fill="rgb(238,53,22)"/>
<path d="M16 8h2v2h-2v-2z" fill="rgb(246,146,31)"/>
<path d="M18 8h2v2h-2v-2z" fill="rgb(168,63,41)"/>
<path d="M20 8h2v8h-8v-2h2v-2h2v-2h2v-2z" fill="rgba(255,255,255,0)"/>
<path d="M2 10h2v2h-2v-2z" fill="rgb(249,175,25)"/>
<path d="M4 10h10v2h-10v-2z" fill="rgb(254,216,27)"/>
<path d="M14 10h2v2h-2v-2z" fill="rgb(249,175,25)"/>
<path d="M16 10h2v2h-2v-2z" fill="rgb(168,63,41)"/>
<path d="M0 12h2v2h2v2h-4v-4z" fill="rgba(255,255,255,0)"/>
<path d="M2 12h2v2h-2v-2z" fill="rgb(168,63,41)"/>
<path d="M4 12h2v2h-2v-2z" fill="rgb(249,183,112)"/>
<path d="M6 12h6v2h-6v-2z" fill="rgb(253,227,143)"/>
<path d="M12 12h2v2h-2v-2z" fill="rgb(249,183,112)"/>
<path d="M14 12h2v2h-2v-2z" fill="rgb(168,63,41)"/>
<path d="M4 14h10v2h-10v-2z" fill="rgb(168,63,41)"/>
</svg>