<?xml version="1.0" encoding="utf-8"?>
<!-- generated at drububu.com  -->
<!DOCTYPE svg PUBLIC "-//W3C//DTD SVG 1.1//EN" "http://www.w3.org/Graphics/SVG/1.1/DTD/svg11.dtd">
<svg version="1.1" preserveAspectRatio="xMinYMin meet" xmlns="http://www.w3.org/2000/svg" xmlns:xlink="http://www.w3.org/1999/xlink" x="0px" y="0px" width="22px" height="16px" viewBox="0 0 22 16">
<path d="M0 0h2v2h-2v-2z" fill="rgba(255,255,255,0)"/>
<path d="M2 0h8v2h-8v-2z" fill="rgb(37,37,37)"/>
<path d="M10 0h2v2h-2v-2z" fill="rgb(91,91,91)"/>
<path d="M12 0h4v2h-4v-2z" fill="rgb(37,37,37)"/>
<path d="M16 0h6v4h-2v-2h-4v-2z" fill="rgba(255,255,255,0)"/>
<path d="M0 2h2v2h-2v-2z" fill="rgb(91,91,91)"/>
<path d="M2 2h2v2h-2v-2z" fill="rgb(255,255,255)"/>
<path d="M4 2h2v2h-2v-2z" fill="rgb(244,243,248)"/>
<path d="M6 2h8v2h-8v-2z" fill="rgb(255,255,255)"/>
<path d="M14 2h2v2h-2v-2z" fill="rgb(234,235,236)"/>
<path d="M16 2h2v2h-2v-2z" fill="rgb(37,37,37)"/>
<path d="M18 2h2v2h-2v-2z" fill="rgb(91,91,91)"/>
<path d="M0 4h2v6h-2v-6z" fill="rgb(37,37,37)"/>
<path d="M2 4h2v2h-2v-2z" fill="rgb(255,230,79)"/>
<path d="M4 4h2v2h-2v-2z" fill="rgb(245,205,55)"/>
<path d="M6 4h2v2h-2v-2z" fill="rgb(254,214,63)"/>
<path d="M8 4h2v2h-2v-2z" fill="rgb(255,230,74)"/>
<path d="M10 4h2v2h-2v-2z" fill="rgb(242,202,50)"/>
<path d="M12 4h2v2h-2v-2z" fill="rgb(255,223,69)"/>
<path d="M14 4h2v2h-2v-2z" fill="rgb(255,222,71)"/>
<path d="M16 4h2v2h-2v-2z" fill="rgb(254,255,253)"/>
<path d="M18 4h2v2h-2v-2z" fill="rgb(255,254,254)"/>
<path d="M20 4h2v4h-2v-4z" fill="rgb(37,37,37)"/>
<path d="M2 6h2v2h-2v-2z" fill="rgb(250,251,251)"/>
<path d="M4 6h6v2h-6v-2z" fill="rgb(255,255,255)"/>
<path d="M10 6h2v2h-2v-2z" fill="rgb(249,254,250)"/>
<path d="M12 6h2v2h-2v-2z" fill="rgb(255,255,255)"/>
<path d="M14 6h2v2h-2v-2z" fill="rgb(247,248,248)"/>
<path d="M16 6h2v2h-2v-2z" fill="rgb(91,91,91)"/>
<path d="M18 6h2v2h-2v-2z" fill="rgb(251,252,253)"/>
<path d="M2 8h2v2h-2v-2z" fill="rgb(242,200,47)"/>
<path d="M4 8h2v2h-2v-2z" fill="rgb(252,211,60)"/>
<path d="M6 8h2v2h-2v-2z" fill="rgb(255,225,72)"/>
<path d="M8 8h2v2h-2v-2z" fill="rgb(250,211,60)"/>
<path d="M10 8h2v2h-2v-2z" fill="rgb(246,206,54)"/>
<path d="M12 8h2v2h-2v-2z" fill="rgb(252,213,61)"/>
<path d="M14 8h2v2h-2v-2z" fill="rgb(255,226,73)"/>
<path d="M16 8h2v2h-2v-2z" fill="rgb(243,241,242)"/>
<path d="M18 8h2v2h-2v-2z" fill="rgb(37,37,37)"/>
<path d="M20 8h2v8h-8v-2h2v-2h2v-2h2v-2z" fill="rgba(255,255,255,0)"/>
<path d="M0 10h2v2h-2v-2z" fill="rgb(91,91,91)"/>
<path d="M2 10h2v2h-2v-2z" fill="rgb(242,239,243)"/>
<path d="M4 10h2v2h-2v-2z" fill="rgb(255,255,254)"/>
<path d="M6 10h2v2h-2v-2z" fill="rgb(252,251,255)"/>
<path d="M8 10h2v2h-2v-2z" fill="rgb(246,247,248)"/>
<path d="M10 10h6v2h-6v-2z" fill="rgb(255,255,255)"/>
<path d="M16 10h2v2h-2v-2z" fill="rgb(37,37,37)"/>
<path d="M0 12h2v2h2v2h-4v-4z" fill="rgba(255,255,255,0)"/>
<path d="M2 12h2v2h-2v-2z" fill="rgb(37,37,37)"/>
<path d="M4 12h2v2h-2v-2z" fill="rgb(204,203,204)"/>
<path d="M6 12h2v2h-2v-2z" fill="rgb(202,203,202)"/>
<path d="M8 12h2v2h-2v-2z" fill="rgb(215,218,215)"/>
<path d="M10 12h2v2h-2v-2z" fill="rgb(190,188,189)"/>
<path d="M12 12h2v2h-2v-2z" fill="rgb(208,210,211)"/>
<path d="M14 12h2v2h-2v-2z" fill="rgb(91,91,91)"/>
<path d="M4 14h2v2h-2v-2z" fill="rgb(91,91,91)"/>
<path d="M6 14h4v2h-4v-2z" fill="rgb(37,37,37)"/>
<path d="M10 14h2v2h-2v-2z" fill="rgb(91,91,91)"/>
<path d="M12 14h2v2h-2v-2z" fill="rgb(37,37,37)"/>
</svg>