<svg xmlns="http://www.w3.org/2000/svg" width="22" height="16" preserveAspectRatio="xMinYMin meet"><path fill="rgba(255,255,255,0)" d="M0 0h2v2H0V0z"/><path fill="#263F91" d="M2 0h14v2H2V0z"/><path fill="rgba(255,255,255,0)" d="M16 0h6v4h-2V2h-4V0z"/><path fill="#263F91" d="M0 2h2v10H0V2z"/><path fill="#7289DA" d="M2 2h14v2H2V2z"/><path fill="#263F91" d="M16 2h4v2h-4V2z"/><path fill="#A9B8E9" d="M2 4h2v2H2V4z"/><path fill="#FFF" d="M4 4h10v2h2v4h-4V6h-2v4h2v2H6v-2H2V6h2V4z"/><path fill="#A9B8E9" d="M14 4h6v4h-2V6h-4V4z"/><path fill="#263F91" d="M20 4h2v4h-2V4z"/><path fill="#7289DA" d="M6 6h2v2H6V6zM10 6h2v2h-2V6z"/><path fill="#263F91" d="M16 6h2v2h-2V6z"/><path fill="#E0E6F8" d="M6 8h2v2H6V8zM10 8h2v2h-2V8z"/><path fill="#A9B8E9" d="M16 8h2v2h-2V8z"/><path fill="#263F91" d="M18 8h2v2h-2V8z"/><path fill="rgba(255,255,255,0)" d="M20 8h2v8h-8v-2h2v-2h2v-2h2V8z"/><path fill="#A9B8E9" d="M2 10h2v2H2v-2z"/><path fill="#E0E6F8" d="M4 10h2v2H4v-2zM12 10h2v2h-2v-2z"/><path fill="#A9B8E9" d="M14 10h2v2h-2v-2z"/><path fill="#263F91" d="M16 10h2v2h-2v-2z"/><path fill="rgba(255,255,255,0)" d="M0 12h2v2h2v2H0v-4z"/><path fill="#263F91" d="M2 12h2v2H2v-2z"/><path fill="#A9B8E9" d="M4 12h10v2H4v-2z"/><path fill="#263F91" d="M14 12h2v2h-2v-2zM4 14h10v2H4v-2z"/></svg>