<?xml version="1.0" encoding="utf-8"?>
<!-- generated at drububu.com  -->
<!DOCTYPE svg PUBLIC "-//W3C//DTD SVG 1.1//EN" "http://www.w3.org/Graphics/SVG/1.1/DTD/svg11.dtd">
<svg version="1.1" preserveAspectRatio="xMinYMin meet" xmlns="http://www.w3.org/2000/svg" xmlns:xlink="http://www.w3.org/1999/xlink" x="0px" y="0px" width="22px" height="22px" viewBox="0 0 22 22">
<path d="M0 0h8v2h-4v2h-2v4h-2v-8z" fill="rgba(255,255,255,0)"/>
<path d="M8 0h4v2h-4v-2z" fill="rgb(31,27,26)"/>
<path d="M12 0h10v10h-2v-2h-4v-4h-2v-2h-2v-2z" fill="rgba(255,255,255,0)"/>
<path d="M4 2h4v2h-4v-2z" fill="rgb(31,27,26)"/>
<path d="M8 2h2v2h-2v-2z" fill="rgb(232,231,220)"/>
<path d="M10 2h2v2h2v2h-8v-2h4v-2z" fill="rgb(255,255,255)"/>
<path d="M12 2h2v2h-2v-2z" fill="rgb(31,27,26)"/>
<path d="M2 4h2v4h-2v-4z" fill="rgb(31,27,26)"/>
<path d="M4 4h2v2h-2v-2z" fill="rgb(178,178,178)"/>
<path d="M14 4h2v4h-2v-4z" fill="rgb(31,27,26)"/>
<path d="M4 6h8v2h-8v-2z" fill="rgb(255,254,250)"/>
<path d="M12 6h2v2h-2v-2z" fill="rgb(232,231,220)"/>
<path d="M0 8h2v10h-2v-10z" fill="rgb(0,0,0)"/>
<path d="M2 8h2v2h-2v-2z" fill="rgb(217,217,217)"/>
<path d="M4 8h8v2h-8v-2z" fill="rgb(232,231,220)"/>
<path d="M12 8h2v2h-2v-2z" fill="rgb(217,217,217)"/>
<path d="M14 8h2v2h-2v-2z" fill="rgb(178,178,178)"/>
<path d="M16 8h4v2h-4v-2z" fill="rgb(0,0,0)"/>
<path d="M2 10h12v2h-12v-2z" fill="rgb(40,38,35)"/>
<path d="M14 10h2v2h-2v-2z" fill="rgb(25,24,23)"/>
<path d="M16 10h4v4h-2v-2h-2v-2z" fill="rgb(102,100,90)"/>
<path d="M20 10h2v4h-2v-4z" fill="rgb(0,0,0)"/>
<path d="M2 12h2v4h-2v-4z" fill="rgb(59,58,52)"/>
<path d="M4 12h4v2h-4v-2z" fill="rgb(109,185,200)"/>
<path d="M8 12h2v4h4v2h-10v-2h4v-4z" fill="rgb(59,58,52)"/>
<path d="M10 12h4v2h-4v-2z" fill="rgb(109,185,200)"/>
<path d="M14 12h2v4h-2v-4z" fill="rgb(72,70,63)"/>
<path d="M16 12h2v2h-2v-2z" fill="rgb(0,0,0)"/>
<path d="M4 14h2v2h-2v-2z" fill="rgb(0,0,0)"/>
<path d="M6 14h2v2h-2v-2z" fill="rgb(171,243,254)"/>
<path d="M10 14h2v2h-2v-2z" fill="rgb(0,0,0)"/>
<path d="M12 14h2v2h-2v-2z" fill="rgb(171,243,254)"/>
<path d="M16 14h2v2h-2v-2z" fill="rgb(102,100,90)"/>
<path d="M18 14h2v2h-2v-2z" fill="rgb(0,0,0)"/>
<path d="M20 14h2v8h-8v-2h2v-2h2v-2h2v-2z" fill="rgba(255,255,255,0)"/>
<path d="M2 16h2v2h-2v-2z" fill="rgb(48,45,40)"/>
<path d="M14 16h2v2h-2v-2z" fill="rgb(65,62,56)"/>
<path d="M16 16h2v2h-2v-2z" fill="rgb(0,0,0)"/>
<path d="M0 18h2v2h2v2h-4v-4z" fill="rgba(255,255,255,0)"/>
<path d="M2 18h2v2h-2v-2z" fill="rgb(0,0,0)"/>
<path d="M4 18h2v2h-2v-2z" fill="rgb(160,135,32)"/>
<path d="M6 18h6v2h-6v-2z" fill="rgb(255,213,61)"/>
<path d="M12 18h2v2h-2v-2z" fill="rgb(118,96,22)"/>
<path d="M14 18h2v2h-2v-2z" fill="rgb(0,0,0)"/>
<path d="M4 20h10v2h-10v-2z" fill="rgb(0,0,0)"/>
</svg>