<?xml version="1.0" encoding="utf-8"?>
<!-- generated at drububu.com  -->
<!DOCTYPE svg PUBLIC "-//W3C//DTD SVG 1.1//EN" "http://www.w3.org/Graphics/SVG/1.1/DTD/svg11.dtd">
<svg version="1.1" preserveAspectRatio="xMinYMin meet" xmlns="http://www.w3.org/2000/svg" xmlns:xlink="http://www.w3.org/1999/xlink" x="0px" y="0px" width="22px" height="18px" viewBox="0 0 22 18">
<path d="M0 0h2v2h-2v-2z" fill="rgba(255,255,255,0)"/>
<path d="M2 0h2v2h-2v-2z" fill="rgb(49,31,19)"/>
<path d="M4 0h10v2h-10v-2z" fill="rgb(59,40,27)"/>
<path d="M14 0h2v2h-2v-2z" fill="rgb(49,31,19)"/>
<path d="M16 0h6v4h-2v-2h-4v-2z" fill="rgba(255,255,255,0)"/>
<path d="M0 2h2v2h-2v-2z" fill="rgb(41,24,13)"/>
<path d="M2 2h2v2h-2v-2z" fill="rgb(247,239,233)"/>
<path d="M4 2h2v2h-2v-2z" fill="rgb(255,247,242)"/>
<path d="M6 2h2v2h-2v-2z" fill="rgb(251,243,237)"/>
<path d="M8 2h4v2h-4v-2z" fill="rgb(255,247,242)"/>
<path d="M12 2h2v2h-2v-2z" fill="rgb(251,243,237)"/>
<path d="M14 2h2v2h-2v-2z" fill="rgb(255,247,242)"/>
<path d="M16 2h2v2h-2v-2z" fill="rgb(41,24,13)"/>
<path d="M18 2h2v2h-2v-2z" fill="rgb(59,40,27)"/>
<path d="M0 4h2v2h-2v-2z" fill="rgb(49,31,19)"/>
<path d="M2 4h14v2h-14v-2z" fill="rgb(240,232,226)"/>
<path d="M16 4h2v2h-2v-2z" fill="rgb(255,247,242)"/>
<path d="M18 4h2v2h-2v-2z" fill="rgb(247,239,233)"/>
<path d="M20 4h2v4h-2v-4z" fill="rgb(59,40,27)"/>
<path d="M0 6h2v6h-2v-6z" fill="rgb(59,40,27)"/>
<path d="M2 6h4v2h-4v-2z" fill="rgb(255,247,242)"/>
<path d="M6 6h2v2h-2v-2z" fill="rgb(251,243,237)"/>
<path d="M8 6h2v2h-2v-2z" fill="rgb(255,247,242)"/>
<path d="M10 6h2v2h-2v-2z" fill="rgb(251,243,237)"/>
<path d="M12 6h4v2h-4v-2z" fill="rgb(255,247,242)"/>
<path d="M16 6h2v2h-2v-2z" fill="rgb(226,218,211)"/>
<path d="M18 6h2v2h-2v-2z" fill="rgb(255,247,242)"/>
<path d="M2 8h14v2h-14v-2z" fill="rgb(240,232,226)"/>
<path d="M16 8h2v2h-2v-2z" fill="rgb(251,243,237)"/>
<path d="M18 8h2v2h-2v-2z" fill="rgb(41,24,13)"/>
<path d="M20 8h2v2h-2v-2z" fill="rgb(140,133,127)"/>
<path d="M2 10h2v2h-2v-2z" fill="rgb(251,243,237)"/>
<path d="M4 10h8v4h-4v-2h-4v-2z" fill="rgb(255,247,242)"/>
<path d="M12 10h2v2h-2v-2z" fill="rgb(251,243,237)"/>
<path d="M14 10h2v2h-2v-2z" fill="rgb(255,247,242)"/>
<path d="M16 10h2v2h-2v-2z" fill="rgb(59,40,27)"/>
<path d="M18 10h4v8h-6v-2h2v-6z" fill="rgba(255,255,255,0)"/>
<path d="M0 12h2v2h-2v-2z" fill="rgb(49,31,19)"/>
<path d="M2 12h2v2h-2v-2z" fill="rgb(255,247,242)"/>
<path d="M4 12h2v2h-2v-2z" fill="rgb(247,239,233)"/>
<path d="M6 12h2v2h-2v-2z" fill="rgb(240,232,226)"/>
<path d="M12 12h2v2h-2v-2z" fill="rgb(247,239,233)"/>
<path d="M14 12h2v2h-2v-2z" fill="rgb(59,40,27)"/>
<path d="M16 12h2v2h-2v-2z" fill="rgb(25,10,0)"/>
<path d="M0 14h2v2h-2v-2z" fill="rgb(41,24,13)"/>
<path d="M2 14h2v2h-2v-2z" fill="rgb(240,232,226)"/>
<path d="M4 14h2v2h-2v-2z" fill="rgb(41,24,13)"/>
<path d="M6 14h2v2h-2v-2z" fill="rgb(59,40,27)"/>
<path d="M8 14h2v2h-2v-2z" fill="rgb(226,218,211)"/>
<path d="M10 14h2v2h-2v-2z" fill="rgb(41,24,13)"/>
<path d="M12 14h2v2h-2v-2z" fill="rgb(240,232,226)"/>
<path d="M14 14h2v2h-2v-2z" fill="rgb(41,24,13)"/>
<path d="M16 14h2v2h-2v-2z" fill="rgb(241,240,239)"/>
<path d="M0 16h2v2h-2v-2z" fill="rgb(140,133,127)"/>
<path d="M2 16h2v2h-2v-2z" fill="rgb(25,10,0)"/>
<path d="M4 16h2v2h-2v-2z" fill="rgba(255,255,255,0)"/>
<path d="M6 16h2v2h-2v-2z" fill="rgb(241,240,239)"/>
<path d="M8 16h2v2h-2v-2z" fill="rgb(25,10,0)"/>
<path d="M10 16h2v2h-2v-2z" fill="rgb(241,240,239)"/>
<path d="M12 16h2v2h-2v-2z" fill="rgb(25,10,0)"/>
<path d="M14 16h2v2h-2v-2z" fill="rgb(140,133,127)"/>
</svg>