<svg xmlns="http://www.w3.org/2000/svg" width="22" height="24" preserveAspectRatio="xMinYMin meet"><path fill="rgba(255,255,255,0)" d="M0 0h4v2H2v2h2v2h4v2H2v2H0V0z"/><path fill="#BFBFBF" d="M4 0h4v2H4V0z"/><path fill="rgba(255,255,255,0)" d="M8 0h2v2H8V0z"/><path fill="#999" d="M10 0h4v2h-4V0z"/><path fill="rgba(255,255,255,0)" d="M14 0h8v12h-2v-2h-4V8h-6V6h4V4h2V2h-2V0z"/><path fill="#B2B2B2" d="M2 2h6v2H2V2z"/><path fill="#999" d="M8 2h2v2H8V2z"/><path fill="#B2B2B2" d="M10 2h6v2h-6V2z"/><path fill="#999" d="M4 4h4v2H4V4z"/><path fill="#B2B2B2" d="M8 4h2v4H8V4z"/><path fill="#BFBFBF" d="M10 4h4v2h-4V4z"/><path fill="#252525" d="M2 8h14v2H2V8zM0 10h2v10H0V10z"/><path fill="#D6FFEC" d="M2 10h6v2H2v-2z"/><path fill="#BEFFE1" d="M8 10h4v2H8v-2z"/><path fill="#D6FFEC" d="M12 10h4v2h-4v-2z"/><path fill="#252525" d="M16 10h4v2h-4v-2z"/><path fill="#BEE562" d="M2 12h2v2H2v-2z"/><path fill="#D6EE9D" d="M4 12h4v2H4v-2z"/><path fill="#BEE562" d="M8 12h8v2H8v-2z"/><path fill="#D6FFEC" d="M16 12h2v2h-2v-2z"/><path fill="#BEFFE1" d="M18 12h2v2h-2v-2z"/><path fill="#252525" d="M20 12h2v4h-2v-4z"/><path fill="#BEFFE1" d="M2 14h14v2H2v-2z"/><path fill="#252525" d="M16 14h2v2h-2v-2z"/><path fill="#D6FFEC" d="M18 14h2v2h-2v-2z"/><path fill="#BEE562" d="M2 16h2v2H2v-2z"/><path fill="#D6EE9D" d="M4 16h2v2H4v-2z"/><path fill="#BEE562" d="M6 16h4v2H6v-2z"/><path fill="#D6EE9D" d="M10 16h6v2h-6v-2z"/><path fill="#BEFFE1" d="M16 16h2v2h-2v-2z"/><path fill="#252525" d="M18 16h2v2h-2v-2z"/><path fill="rgba(255,255,255,0)" d="M20 16h2v8h-8v-2h2v-2h2v-2h2v-2z"/><path fill="#D6FFEC" d="M2 18h6v2H2v-2z"/><path fill="#BEFFE1" d="M8 18h2v2H8v-2z"/><path fill="#D6FFEC" d="M10 18h4v2h-4v-2z"/><path fill="#BEFFE1" d="M14 18h2v2h-2v-2z"/><path fill="#252525" d="M16 18h2v2h-2v-2z"/><path fill="rgba(255,255,255,0)" d="M0 20h2v2h2v2H0v-4z"/><path fill="#252525" d="M2 20h2v2H2v-2z"/><path fill="#C3EBD8" d="M4 20h4v2H4v-2z"/><path fill="#9FDFC2" d="M8 20h6v2H8v-2z"/><path fill="#252525" d="M14 20h2v2h-2v-2zM4 22h10v2H4v-2z"/></svg>