<?xml version="1.0" encoding="utf-8"?>
<!-- generated at drububu.com  -->
<!DOCTYPE svg PUBLIC "-//W3C//DTD SVG 1.1//EN" "http://www.w3.org/Graphics/SVG/1.1/DTD/svg11.dtd">
<svg version="1.1" preserveAspectRatio="xMinYMin meet" xmlns="http://www.w3.org/2000/svg" xmlns:xlink="http://www.w3.org/1999/xlink" x="0px" y="0px" width="22px" height="24px" viewBox="0 0 22 24">
<path d="M0 0h4v2h-2v2h2v2h4v2h-6v2h-2v-10z" fill="rgba(255,255,255,0)"/>
<path d="M4 0h4v2h-4v-2z" fill="rgb(191,191,191)"/>
<path d="M8 0h2v2h-2v-2z" fill="rgba(255,255,255,0)"/>
<path d="M10 0h4v2h-4v-2z" fill="rgb(153,153,153)"/>
<path d="M14 0h8v12h-2v-2h-4v-2h-6v-2h4v-2h2v-2h-2v-2z" fill="rgba(255,255,255,0)"/>
<path d="M2 2h6v2h-6v-2z" fill="rgb(178,178,178)"/>
<path d="M8 2h2v2h-2v-2z" fill="rgb(153,153,153)"/>
<path d="M10 2h6v2h-6v-2z" fill="rgb(178,178,178)"/>
<path d="M4 4h4v2h-4v-2z" fill="rgb(153,153,153)"/>
<path d="M8 4h2v4h-2v-4z" fill="rgb(178,178,178)"/>
<path d="M10 4h4v2h-4v-2z" fill="rgb(191,191,191)"/>
<path d="M2 8h14v2h-14v-2z" fill="rgb(37,37,37)"/>
<path d="M0 10h2v10h-2v-10z" fill="rgb(37,37,37)"/>
<path d="M2 10h6v2h-6v-2z" fill="rgb(214,255,236)"/>
<path d="M8 10h4v2h-4v-2z" fill="rgb(190,255,225)"/>
<path d="M12 10h4v2h-4v-2z" fill="rgb(214,255,236)"/>
<path d="M16 10h4v2h-4v-2z" fill="rgb(37,37,37)"/>
<path d="M2 12h2v2h-2v-2z" fill="rgb(190,229,98)"/>
<path d="M4 12h4v2h-4v-2z" fill="rgb(214,238,157)"/>
<path d="M8 12h8v2h-8v-2z" fill="rgb(190,229,98)"/>
<path d="M16 12h2v2h-2v-2z" fill="rgb(214,255,236)"/>
<path d="M18 12h2v2h-2v-2z" fill="rgb(190,255,225)"/>
<path d="M20 12h2v4h-2v-4z" fill="rgb(37,37,37)"/>
<path d="M2 14h14v2h-14v-2z" fill="rgb(190,255,225)"/>
<path d="M16 14h2v2h-2v-2z" fill="rgb(37,37,37)"/>
<path d="M18 14h2v2h-2v-2z" fill="rgb(214,255,236)"/>
<path d="M2 16h2v2h-2v-2z" fill="rgb(190,229,98)"/>
<path d="M4 16h2v2h-2v-2z" fill="rgb(214,238,157)"/>
<path d="M6 16h4v2h-4v-2z" fill="rgb(190,229,98)"/>
<path d="M10 16h6v2h-6v-2z" fill="rgb(214,238,157)"/>
<path d="M16 16h2v2h-2v-2z" fill="rgb(190,255,225)"/>
<path d="M18 16h2v2h-2v-2z" fill="rgb(37,37,37)"/>
<path d="M20 16h2v8h-8v-2h2v-2h2v-2h2v-2z" fill="rgba(255,255,255,0)"/>
<path d="M2 18h6v2h-6v-2z" fill="rgb(214,255,236)"/>
<path d="M8 18h2v2h-2v-2z" fill="rgb(190,255,225)"/>
<path d="M10 18h4v2h-4v-2z" fill="rgb(214,255,236)"/>
<path d="M14 18h2v2h-2v-2z" fill="rgb(190,255,225)"/>
<path d="M16 18h2v2h-2v-2z" fill="rgb(37,37,37)"/>
<path d="M0 20h2v2h2v2h-4v-4z" fill="rgba(255,255,255,0)"/>
<path d="M2 20h2v2h-2v-2z" fill="rgb(37,37,37)"/>
<path d="M4 20h4v2h-4v-2z" fill="rgb(195,235,216)"/>
<path d="M8 20h6v2h-6v-2z" fill="rgb(159,223,194)"/>
<path d="M14 20h2v2h-2v-2z" fill="rgb(37,37,37)"/>
<path d="M4 22h10v2h-10v-2z" fill="rgb(37,37,37)"/>
</svg>