<?xml version="1.0" encoding="utf-8"?>
<!-- generated at drububu.com  -->
<!DOCTYPE svg PUBLIC "-//W3C//DTD SVG 1.1//EN" "http://www.w3.org/Graphics/SVG/1.1/DTD/svg11.dtd">
<svg version="1.1" preserveAspectRatio="xMinYMin meet" xmlns="http://www.w3.org/2000/svg" xmlns:xlink="http://www.w3.org/1999/xlink" x="0px" y="0px" width="22px" height="16px" viewBox="0 0 22 16">
<path d="M0 0h2v2h-2v-2z" fill="rgba(255,255,255,0)"/>
<path d="M2 0h2v2h-2v-2z" fill="rgb(84,84,84)"/>
<path d="M4 0h2v2h-2v-2z" fill="rgb(94,94,94)"/>
<path d="M6 0h6v2h-6v-2z" fill="rgb(84,84,84)"/>
<path d="M12 0h2v2h-2v-2z" fill="rgb(94,94,94)"/>
<path d="M14 0h2v2h-2v-2z" fill="rgb(84,84,84)"/>
<path d="M16 0h6v4h-2v-2h-4v-2z" fill="rgba(255,255,255,0)"/>
<path d="M0 2h2v6h-2v-6z" fill="rgb(84,84,84)"/>
<path d="M2 2h2v2h-2v-2z" fill="rgb(210,210,210)"/>
<path d="M4 2h2v2h-2v-2z" fill="rgb(221,221,221)"/>
<path d="M6 2h6v2h-6v-2z" fill="rgb(210,210,210)"/>
<path d="M12 2h2v2h-2v-2z" fill="rgb(221,221,221)"/>
<path d="M14 2h2v2h-2v-2z" fill="rgb(210,210,210)"/>
<path d="M16 2h2v2h-2v-2z" fill="rgb(84,84,84)"/>
<path d="M18 2h2v2h-2v-2z" fill="rgb(94,94,94)"/>
<path d="M2 4h2v2h-2v-2z" fill="rgb(255,218,63)"/>
<path d="M4 4h6v2h-6v-2z" fill="rgb(255,204,0)"/>
<path d="M10 4h2v2h-2v-2z" fill="rgb(255,218,63)"/>
<path d="M12 4h4v2h-4v-2z" fill="rgb(255,204,0)"/>
<path d="M16 4h2v2h-2v-2z" fill="rgb(210,210,210)"/>
<path d="M18 4h2v2h-2v-2z" fill="rgb(221,221,221)"/>
<path d="M20 4h2v2h-2v-2z" fill="rgb(94,94,94)"/>
<path d="M2 6h2v2h-2v-2z" fill="rgb(221,221,221)"/>
<path d="M4 6h6v2h-6v-2z" fill="rgb(210,210,210)"/>
<path d="M10 6h2v2h-2v-2z" fill="rgb(221,221,221)"/>
<path d="M12 6h4v2h-4v-2z" fill="rgb(210,210,210)"/>
<path d="M16 6h2v2h-2v-2z" fill="rgb(94,94,94)"/>
<path d="M18 6h2v2h-2v-2z" fill="rgb(210,210,210)"/>
<path d="M20 6h2v2h-2v-2z" fill="rgb(84,84,84)"/>
<path d="M0 8h2v4h-2v-4z" fill="rgb(94,94,94)"/>
<path d="M2 8h6v2h-6v-2z" fill="rgb(255,204,0)"/>
<path d="M8 8h2v2h-2v-2z" fill="rgb(255,218,63)"/>
<path d="M10 8h6v2h-6v-2z" fill="rgb(255,204,0)"/>
<path d="M16 8h2v2h-2v-2z" fill="rgb(210,210,210)"/>
<path d="M18 8h2v2h-2v-2z" fill="rgb(84,84,84)"/>
<path d="M20 8h2v8h-8v-2h2v-2h2v-2h2v-2z" fill="rgba(255,255,255,0)"/>
<path d="M2 10h6v2h-6v-2z" fill="rgb(210,210,210)"/>
<path d="M8 10h2v2h-2v-2z" fill="rgb(221,221,221)"/>
<path d="M10 10h6v2h-6v-2z" fill="rgb(210,210,210)"/>
<path d="M16 10h2v2h-2v-2z" fill="rgb(84,84,84)"/>
<path d="M0 12h2v2h2v2h-4v-4z" fill="rgba(255,255,255,0)"/>
<path d="M2 12h2v2h-2v-2z" fill="rgb(84,84,84)"/>
<path d="M4 12h4v2h-4v-2z" fill="rgb(132,132,132)"/>
<path d="M8 12h2v2h-2v-2z" fill="rgb(191,191,191)"/>
<path d="M10 12h2v2h-2v-2z" fill="rgb(165,165,165)"/>
<path d="M12 12h2v2h-2v-2z" fill="rgb(132,132,132)"/>
<path d="M14 12h2v2h-2v-2z" fill="rgb(84,84,84)"/>
<path d="M4 14h2v2h-2v-2z" fill="rgb(84,84,84)"/>
<path d="M6 14h2v2h-2v-2z" fill="rgb(94,94,94)"/>
<path d="M8 14h6v2h-6v-2z" fill="rgb(84,84,84)"/>
</svg>