<?xml version="1.0" encoding="utf-8"?>
<!-- generated at drububu.com  -->
<!DOCTYPE svg PUBLIC "-//W3C//DTD SVG 1.1//EN" "http://www.w3.org/Graphics/SVG/1.1/DTD/svg11.dtd">
<svg version="1.1" preserveAspectRatio="xMinYMin meet" xmlns="http://www.w3.org/2000/svg" xmlns:xlink="http://www.w3.org/1999/xlink" x="0px" y="0px" width="22px" height="16px" viewBox="0 0 22 16">
<path d="M0 0h2v2h-2v-2z" fill="rgba(255,255,255,0)"/>
<path d="M2 0h14v2h-14v-2z" fill="rgb(37,37,37)"/>
<path d="M16 0h6v4h-2v-2h-4v-2z" fill="rgba(255,255,255,0)"/>
<path d="M0 2h2v10h-2v-10z" fill="rgb(37,37,37)"/>
<path d="M2 2h5v2h-5v-2z" fill="rgb(0,127,14)"/>
<path d="M7 2h2v2h-2v-2z" fill="rgb(0,68,6)"/>
<path d="M9 2h7v2h-7v-2z" fill="rgb(0,127,14)"/>
<path d="M16 2h4v2h-4v-2z" fill="rgb(37,37,37)"/>
<path d="M2 4h5v2h-5v-2z" fill="rgb(255,204,0)"/>
<path d="M7 4h2v2h-2v-2z" fill="rgb(216,173,0)"/>
<path d="M9 4h7v2h-7v-2z" fill="rgb(255,204,0)"/>
<path d="M16 4h4v4h-2v-2h-2v-2z" fill="rgb(0,127,14)"/>
<path d="M20 4h2v4h-2v-4z" fill="rgb(37,37,37)"/>
<path d="M2 6h2v2h-2v-2z" fill="rgb(0,68,6)"/>
<path d="M4 6h2v2h-2v-2z" fill="rgb(0,97,9)"/>
<path d="M6 6h6v2h-6v-2z" fill="rgb(0,127,14)"/>
<path d="M12 6h2v2h-2v-2z" fill="rgb(0,97,9)"/>
<path d="M14 6h2v2h-2v-2z" fill="rgb(0,68,6)"/>
<path d="M16 6h2v2h-2v-2z" fill="rgb(37,37,37)"/>
<path d="M2 8h7v2h-7v-2z" fill="rgb(255,204,0)"/>
<path d="M9 8h2v2h-2v-2z" fill="rgb(216,173,0)"/>
<path d="M11 8h5v2h-5v-2z" fill="rgb(255,204,0)"/>
<path d="M16 8h2v2h-2v-2z" fill="rgb(0,127,14)"/>
<path d="M18 8h2v2h-2v-2z" fill="rgb(37,37,37)"/>
<path d="M20 8h2v8h-8v-2h2v-2h2v-2h2v-2z" fill="rgba(255,255,255,0)"/>
<path d="M2 10h7v2h-7v-2z" fill="rgb(0,127,14)"/>
<path d="M9 10h2v2h-2v-2z" fill="rgb(0,68,6)"/>
<path d="M11 10h5v2h-5v-2z" fill="rgb(0,127,14)"/>
<path d="M16 10h2v2h-2v-2z" fill="rgb(37,37,37)"/>
<path d="M0 12h2v2h2v2h-4v-4z" fill="rgba(255,255,255,0)"/>
<path d="M2 12h2v2h-2v-2z" fill="rgb(37,37,37)"/>
<path d="M4 12h10v2h-10v-2z" fill="rgb(0,76,7)"/>
<path d="M14 12h2v2h-2v-2z" fill="rgb(37,37,37)"/>
<path d="M4 14h10v2h-10v-2z" fill="rgb(37,37,37)"/>
</svg>