<svg xmlns="http://www.w3.org/2000/svg" preserveAspectRatio="xMinYMin meet" viewBox="0 0 31 25"><path fill="rgb(255,255,255,0)" d="M0 0h1v1H0V0z"/><path fill="#9A99A8" d="M1 0h1v1H1V0z"/><path d="M2 0h27v1H2V0z"/><path fill="#9A99A8" d="M29 0h1v1h-1V0z"/><path fill="rgb(255,255,255,0)" d="M30 0h1v1h-1V0z"/><path fill="#9A99A8" d="M0 1h1v1H0V1z"/><path d="M1 1h1v1H1V1z"/><path fill="#B1950D" d="M2 1h1v1H2V1z"/><path fill="#DAB805" d="M3 1h1v1H3V1z"/><path fill="#D9B805" d="M4 1h1v1H4V1z"/><path fill="#D7B201" d="M5 1h1v1H5V1z"/><path fill="#DEBA06" d="M6 1h1v1H6V1z"/><path fill="#D7B404" d="M7 1h1v1H7V1z"/><path fill="#D5B504" d="M8 1h1v1H8V1z"/><path fill="#DAB907" d="M9 1h1v1H9V1z"/><path fill="#D4B400" d="M10 1h1v1h-1V1z"/><path fill="#D7B509" d="M11 1h1v1h-1V1z"/><path fill="#D4B300" d="M12 1h1v1h-1V1z"/><path fill="#D7B405" d="M13 1h1v1h-1V1z"/><path fill="#DBBA05" d="M14 1h1v1h-1V1z"/><path fill="#D5B600" d="M15 1h1v1h-1V1z"/><path fill="#D5B503" d="M16 1h1v1h-1V1z"/><path fill="#D8B101" d="M17 1h1v1h-1V1z"/><path fill="#D5B806" d="M18 1h1v1h-1V1z"/><path fill="#D5B907" d="M19 1h1v1h-1V1z"/><path fill="#D8B303" d="M20 1h1v1h-1V1z"/><path fill="#D5B306" d="M21 1h1v1h-1V1z"/><path fill="#DABA07" d="M22 1h1v1h-1V1z"/><path fill="#D8B705" d="M23 1h1v1h-1V1z"/><path fill="#D9BA04" d="M24 1h1v1h-1V1z"/><path fill="#DAB804" d="M25 1h1v1h-1V1z"/><path fill="#DEB706" d="M26 1h1v1h-1V1z"/><path fill="#D9B807" d="M27 1h1v1h-1V1z"/><path fill="#B1950D" d="M28 1h1v1h-1V1z"/><path d="M29 1h1v1h-1V1z"/><path fill="#9A99A8" d="M30 1h1v1h-1V1z"/><path d="M0 2h1v16H0V2z"/><path fill="#B1950D" d="M1 2h1v1H1V2z"/><path fill="#D2B401" d="M2 2h1v1H2V2z"/><path fill="#D8B909" d="M3 2h1v1H3V2z"/><path fill="#D9B806" d="M4 2h1v1H4V2z"/><path fill="#D6B501" d="M5 2h1v1H5V2z"/><path fill="#D6B504" d="M6 2h1v1H6V2z"/><path fill="#DBBA03" d="M7 2h1v1H7V2z"/><path fill="#D9B603" d="M8 2h1v1H8V2z"/><path fill="#D8B503" d="M9 2h1v1H9V2z"/><path fill="#DBB305" d="M10 2h1v1h-1V2z"/><path fill="#D7B703" d="M11 2h1v1h-1V2z"/><path fill="#DAB404" d="M12 2h1v1h-1V2z"/><path fill="#DCB607" d="M13 2h1v1h-1V2z"/><path fill="#D5B201" d="M14 2h1v1h-1V2z"/><path fill="#DEBA09" d="M15 2h1v1h-1V2z"/><path fill="#D7B401" d="M16 2h1v1h-1V2z"/><path fill="#D8B403" d="M17 2h1v1h-1V2z"/><path fill="#DABB0A" d="M18 2h1v1h-1V2z"/><path fill="#D7B402" d="M19 2h1v1h-1V2z"/><path fill="#D5B300" d="M20 2h1v1h-1V2z"/><path fill="#D5B200" d="M21 2h1v1h-1V2z"/><path fill="#D8B704" d="M22 2h1v1h-1V2z"/><path fill="#DCB707" d="M23 2h1v1h-1V2z"/><path fill="#D6B703" d="M24 2h1v1h-1V2z"/><path fill="#D9B606" d="M25 2h1v1h-1V2z"/><path fill="#D9B604" d="M26 2h1v1h-1V2z"/><path fill="#D8B808" d="M27 2h1v1h-1V2z"/><path fill="#DDBC09" d="M28 2h1v1h-1V2z"/><path fill="#B1950D" d="M29 2h1v1h-1V2z"/><path d="M30 2h1v16h-1V2z"/><path fill="#D8B504" d="M1 3h1v1H1V3z"/><path fill="#D5B602" d="M2 3h1v1H2V3z"/><path fill="#DBBA04" d="M3 3h1v1H3V3z"/><path fill="#D5B702" d="M4 3h1v1H4V3z"/><path fill="#D9B506" d="M5 3h1v1H5V3z"/><path fill="#D7B606" d="M6 3h1v1H6V3z"/><path fill="#D6B200" d="M7 3h1v1H7V3z"/><path fill="#D9B605" d="M8 3h1v1H8V3z"/><path fill="#D7B303" d="M9 3h1v1H9V3z"/><path fill="#D7BB08" d="M10 3h1v1h-1V3z"/><path fill="#D7B701" d="M11 3h1v1h-1V3z"/><path fill="#D6B500" d="M12 3h1v1h-1V3z"/><path fill="#D6B101" d="M13 3h1v1h-1V3z"/><path fill="#D1AC00" d="M14 3h1v1h-1V3z"/><path fill="#D8B706" d="M15 3h1v1h-1V3z"/><path fill="#D8B503" d="M16 3h1v1h-1V3z"/><path fill="#D5B201" d="M17 3h1v1h-1V3z"/><path fill="#D6B405" d="M18 3h1v1h-1V3z"/><path fill="#D3AD00" d="M19 3h1v1h-1V3z"/><path fill="#D5B103" d="M20 3h1v1h-1V3z"/><path fill="#D5B602" d="M21 3h1v1h-1V3z"/><path fill="#D4B104" d="M22 3h1v1h-1V3z"/><path fill="#D9B503" d="M23 3h1v1h-1V3z"/><path fill="#D7B904" d="M24 3h1v1h-1V3z"/><path fill="#D8B805" d="M25 3h1v1h-1V3z"/><path fill="#D3B200" d="M26 3h1v1h-1V3z"/><path fill="#D6B501" d="M27 3h1v1h-1V3z"/><path fill="#DAB907" d="M28 3h1v1h-1V3z"/><path fill="#DCBA09" d="M29 3h1v1h-1V3z"/><path fill="#D6B800" d="M1 4h1v1H1V4z"/><path fill="#D7B702" d="M2 4h1v1H2V4z"/><path fill="#493D17" d="M3 4h1v1H3V4z"/><path fill="#DBB706" d="M4 4h1v1H4V4z"/><path d="M5 4h2v5H6V5H5V4z"/><path fill="#493D17" d="M7 4h1v1H7V4z"/><path fill="#292117" d="M8 4h1v1H8V4z"/><path d="M9 4h2v1h-1v4H9V4z"/><path fill="#D8B603" d="M11 4h1v1h-1V4z"/><path d="M12 4h1v1h-1V4z"/><path fill="#544713" d="M13 4h1v1h-1V4z"/><path fill="#D9B707" d="M14 4h1v1h-1V4z"/><path fill="#493D17" d="M15 4h1v1h-1V4z"/><path fill="#D9BA05" d="M16 4h1v1h-1V4z"/><path d="M17 4h2v4h-1V5h-1V4z"/><path fill="#282117" d="M19 4h1v1h-1V4z"/><path fill="#DCB903" d="M20 4h1v1h-1V4z"/><path fill="#493D17" d="M21 4h1v1h-1V4z"/><path fill="#D5AF01" d="M22 4h1v1h-1V4z"/><path fill="#DFB808" d="M23 4h1v1h-1V4z"/><path fill="#493D17" d="M24 4h1v1h-1V4z"/><path fill="#DAB507" d="M25 4h1v1h-1V4z"/><path fill="#DCB504" d="M26 4h1v1h-1V4z"/><path fill="#282117" d="M27 4h1v1h-1V4z"/><path fill="#DAB805" d="M28 4h1v1h-1V4z"/><path fill="#D7B405" d="M29 4h1v1h-1V4z"/><path fill="#DDBC07" d="M1 5h1v1H1V5z"/><path d="M2 5h1v4H2V5z"/><path fill="#AB8F0C" d="M3 5h1v1H3V5z"/><path d="M4 5h1v4H4V5z"/><path fill="#D7B402" d="M5 5h1v1H5V5z"/><path fill="#D8B403" d="M7 5h1v1H7V5z"/><path fill="#DBB605" d="M8 5h1v1H8V5z"/><path fill="#DCBC08" d="M10 5h1v1h-1V5z"/><path d="M11 5h1v1h1v1h-1v1h-1V5z"/><path fill="#C2A30B" d="M12 5h1v1h-1V5z"/><path fill="#D8B604" d="M13 5h1v3h-2V7h1V5z"/><path d="M14 5h1v3h-1V5z"/><path fill="#C2A30B" d="M15 5h1v1h-1V5z"/><path d="M16 5h1v4h-1V5z"/><path fill="#DAB708" d="M17 5h1v1h-1V5z"/><path fill="#C2A30B" d="M19 5h1v1h-1V5z"/><path fill="#D8B600" d="M20 5h1v1h-1V5z"/><path d="M21 5h1v4h-1V5z"/><path fill="#D9B906" d="M22 5h1v1h-1V5z"/><path d="M23 5h1v3h-1V5z"/><path fill="#D8B604" d="M24 5h1v1h-1V5z"/><path fill="#493D17" d="M25 5h1v1h-1V5z"/><path d="M26 5h1v3h-2V7h1V5z"/><path fill="#BD9E0D" d="M27 5h1v1h-1V5z"/><path d="M28 5h1v4h-1V5z"/><path fill="#D4B302" d="M29 5h1v1h-1V5z"/><path fill="#D4B605" d="M1 6h1v1H1V6z"/><path fill="#282117" d="M3 6h1v1H3V6z"/><path fill="#DCB806" d="M5 6h1v1H5V6z"/><path fill="#D9B606" d="M7 6h1v1H7V6z"/><path fill="#D5B403" d="M8 6h1v1H8V6z"/><path fill="#D9B705" d="M10 6h1v1h-1V6z"/><path fill="#DCB605" d="M15 6h1v1h-1V6z"/><path fill="#D5B205" d="M17 6h1v1h-1V6z"/><path fill="#D8B505" d="M19 6h1v1h-1V6z"/><path fill="#DCB703" d="M20 6h1v1h-1V6z"/><path fill="#D4B201" d="M22 6h1v1h-1V6z"/><path fill="#BD9E0D" d="M24 6h1v1h-1V6z"/><path fill="#292117" d="M25 6h1v1h-1V6z"/><path fill="#DAB404" d="M27 6h1v1h-1V6z"/><path fill="#DAB703" d="M29 6h1v1h-1V6z"/><path fill="#D5B203" d="M1 7h1v1H1V7z"/><path fill="#BD9E0D" d="M3 7h1v1H3V7z"/><path fill="#D7B200" d="M5 7h1v1H5V7z"/><path fill="#DCBA06" d="M7 7h1v1H7V7z"/><path fill="#DAB904" d="M8 7h1v1H8V7z"/><path fill="#D8B302" d="M10 7h1v1h-1V7z"/><path fill="#D6B502" d="M15 7h1v1h-1V7z"/><path fill="#D8B603" d="M17 7h1v1h-1V7z"/><path fill="#D9B703" d="M19 7h1v1h-1V7z"/><path fill="#DDBB07" d="M20 7h1v1h-1V7z"/><path fill="#D8B400" d="M22 7h1v1h-1V7z"/><path fill="#AB8F0C" d="M24 7h1v1h-1V7z"/><path fill="#D6B401" d="M27 7h1v1h-1V7z"/><path fill="#DAB604" d="M29 7h1v1h-1V7z"/><path fill="#DBB503" d="M1 8h1v1H1V8z"/><path fill="#D7B506" d="M3 8h1v1H3V8z"/><path fill="#D9B500" d="M5 8h1v1H5V8z"/><path fill="#D8B401" d="M7 8h1v1H7V8z"/><path fill="#DAB908" d="M8 8h1v1H8V8z"/><path fill="#D8B705" d="M10 8h1v1h-1V8z"/><path fill="#C2A30B" d="M11 8h1v1h-1V8z"/><path d="M12 8h2v1h-2V8z"/><path fill="#292117" d="M14 8h1v1h-1V8z"/><path fill="#D5B602" d="M15 8h1v1h-1V8z"/><path fill="#DBBE08" d="M17 8h1v1h-1V8z"/><path fill="#544713" d="M18 8h1v1h-1V8z"/><path fill="#DCB607" d="M19 8h1v1h-1V8z"/><path fill="#D7B603" d="M20 8h1v1h-1V8z"/><path fill="#DDB907" d="M22 8h1v1h-1V8z"/><path fill="#C2A30B" d="M23 8h1v1h-1V8z"/><path d="M24 8h1v1h-1V8z"/><path fill="#D8B903" d="M25 8h1v1h-1V8z"/><path fill="#544713" d="M26 8h1v1h-1V8z"/><path fill="#D8B906" d="M27 8h1v1h-1V8z"/><path fill="#D9B806" d="M29 8h1v1h-1V8z"/><path fill="#DBBB06" d="M1 9h1v1H1V9z"/><path fill="#D4B101" d="M2 9h1v1H2V9z"/><path fill="#DCBB05" d="M3 9h1v1H3V9z"/><path fill="#D8B807" d="M4 9h1v1H4V9z"/><path fill="#D7B605" d="M5 9h1v1H5V9z"/><path fill="#DAB502" d="M6 9h1v1H6V9z"/><path fill="#D7B303" d="M7 9h1v1H7V9z"/><path fill="#D7B604" d="M8 9h1v1H8V9z"/><path fill="#D9B706" d="M9 9h1v1H9V9z"/><path fill="#D6B703" d="M10 9h1v1h-1V9z"/><path fill="#D8BA05" d="M11 9h1v1h-1V9z"/><path fill="#DAB807" d="M12 9h1v1h-1V9z"/><path fill="#DCB806" d="M13 9h1v1h-1V9z"/><path fill="#D1AF00" d="M14 9h1v1h-1V9z"/><path fill="#D9B502" d="M15 9h1v1h-1V9z"/><path fill="#DABA06" d="M16 9h1v1h-1V9z"/><path fill="#D4AF02" d="M17 9h1v1h-1V9z"/><path fill="#DDB808" d="M18 9h1v1h-1V9z"/><path fill="#D7B905" d="M19 9h1v1h-1V9z"/><path fill="#DCB806" d="M20 9h1v1h-1V9z"/><path fill="#DBBF08" d="M21 9h1v1h-1V9z"/><path fill="#DBB803" d="M22 9h1v1h-1V9z"/><path fill="#D7B503" d="M23 9h1v1h-1V9z"/><path fill="#D8B503" d="M24 9h1v1h-1V9z"/><path fill="#D5B100" d="M25 9h1v1h-1V9z"/><path fill="#D9B303" d="M26 9h1v1h-1V9z"/><path fill="#DCBB09" d="M27 9h1v1h-1V9z"/><path fill="#D8B503" d="M28 9h1v1h-1V9z"/><path fill="#D9B605" d="M29 9h1v1h-1V9z"/><path fill="#D8B805" d="M1 10h1v1H1v-1z"/><path fill="#DAB503" d="M2 10h1v1H2v-1z"/><path fill="#D2B100" d="M3 10h1v1H3v-1z"/><path fill="#D7B303" d="M4 10h1v1H4v-1z"/><path fill="#DAB908" d="M5 10h1v1H5v-1z"/><path fill="#D6B300" d="M6 10h1v1H6v-1z"/><path fill="#D8B206" d="M7 10h1v1H7v-1z"/><path fill="#D1B200" d="M8 10h1v1H8v-1z"/><path fill="#DBB90A" d="M9 10h1v1H9v-1z"/><path fill="#D8B706" d="M10 10h1v1h-1v-1z"/><path fill="#D7B101" d="M11 10h1v1h-1v-1z"/><path fill="#D8B403" d="M12 10h1v1h-1v-1z"/><path fill="#DBB706" d="M13 10h1v1h-1v-1z"/><path fill="#D7B502" d="M14 10h1v1h-1v-1z"/><path fill="#DAB806" d="M15 10h1v1h-1v-1z"/><path fill="#D7B504" d="M16 10h1v1h-1v-1z"/><path fill="#D3B004" d="M17 10h1v1h-1v-1z"/><path fill="#D7B704" d="M18 10h1v1h-1v-1z"/><path fill="#D2B302" d="M19 10h1v1h-1v-1z"/><path fill="#DCB703" d="M20 10h1v1h-1v-1z"/><path fill="#D8B602" d="M21 10h1v1h-1v-1z"/><path fill="#D8B304" d="M22 10h1v1h-1v-1z"/><path fill="#DBBB04" d="M23 10h1v1h-1v-1z"/><path fill="#D6AF00" d="M24 10h1v1h-1v-1z"/><path fill="#D8B704" d="M25 10h1v1h-1v-1z"/><path fill="#D7B603" d="M26 10h1v1h-1v-1z"/><path fill="#D7B707" d="M27 10h1v1h-1v-1z"/><path fill="#DBB903" d="M28 10h1v1h-1v-1z"/><path fill="#D7B301" d="M29 10h1v1h-1v-1z"/><path fill="#D5B100" d="M1 11h1v1H1v-1z"/><path fill="#D7B603" d="M2 11h1v1H2v-1z"/><path fill="#D9B703" d="M3 11h1v1H3v-1z"/><path fill="#D4B304" d="M4 11h1v1H4v-1z"/><path fill="#D1B301" d="M5 11h1v1H5v-1z"/><path d="M6 11h2v1H7v3H6v-4z"/><path fill="#D4AF00" d="M8 11h1v1H8v-1z"/><path fill="#D6B604" d="M9 11h1v1H9v-1z"/><path fill="#C2A30B" d="M10 11h1v1h-1v-1z"/><path d="M11 11h2v1h-2v-1z"/><path fill="#DCBA05" d="M13 11h1v1h-1v-1z"/><path d="M14 11h2v1h-1v1h1v1h-1v1h1v1h-2v-5z"/><path fill="#DAB808" d="M16 11h1v1h-1v-1z"/><path fill="#D8B604" d="M17 11h1v1h-1v-1z"/><path fill="#DBBD07" d="M18 11h1v1h-1v-1z"/><path fill="#493D17" d="M19 11h1v1h-1v-1z"/><path fill="#D9BA02" d="M20 11h1v1h-1v-1z"/><path fill="#DBB804" d="M21 11h1v1h-1v-1z"/><path d="M22 11h2v4h-1v-3h-1v-1z"/><path fill="#493D17" d="M24 11h1v1h-1v-1z"/><path fill="#D9B503" d="M25 11h1v1h-1v-1z"/><path fill="#DEBD09" d="M26 11h1v1h-1v-1z"/><path fill="#D5B402" d="M27 11h1v1h-1v-1z"/><path fill="#D7B502" d="M28 11h1v1h-1v-1z"/><path fill="#D7B605" d="M29 11h1v1h-1v-1z"/><path fill="#D5B704" d="M1 12h1v1H1v-1z"/><path fill="#D9B705" d="M2 12h1v1H2v-1z"/><path fill="#DAB909" d="M3 12h1v1H3v-1z"/><path fill="#D7B105" d="M4 12h1v1H4v-1z"/><path fill="#D7B704" d="M5 12h1v1H5v-1z"/><path fill="#AB8F0C" d="M7 12h1v1H7v-1z"/><path fill="#544713" d="M8 12h1v1H8v-1z"/><path fill="#DAB705" d="M9 12h1v1H9v-1z"/><path d="M10 12h1v3h-1v-3z"/><path fill="#D9B704" d="M11 12h2v1h-2v-1z"/><path fill="#DCB804" d="M13 12h1v1h-1v-1z"/><path fill="#D8B604" d="M15 12h1v1h-1v-1z"/><path fill="#493D17" d="M16 12h1v1h-1v-1z"/><path fill="#DDBC08" d="M17 12h1v1h-1v-1z"/><path d="M18 12h1v4h-1v-4z"/><path fill="#D8B604" d="M19 12h1v1h-1v-1z"/><path d="M20 12h1v4h-1v-4z"/><path fill="#D7B502" d="M21 12h1v1h-1v-1z"/><path fill="#D6B300" d="M22 12h1v1h-1v-1z"/><path fill="#C2A30B" d="M24 12h1v1h-1v-1z"/><path fill="#DABA05" d="M25 12h1v1h-1v-1z"/><path fill="#DDB606" d="M26 12h1v1h-1v-1z"/><path fill="#D7B505" d="M27 12h1v1h-1v-1z"/><path fill="#D7B604" d="M28 12h1v1h-1v-1z"/><path fill="#D8B603" d="M29 12h1v1h-1v-1z"/><path fill="#DEBD08" d="M1 13h1v1H1v-1z"/><path fill="#DAB402" d="M2 13h1v1H2v-1z"/><path fill="#D6B102" d="M3 13h1v1H3v-1z"/><path fill="#DBBC07" d="M4 13h1v1H4v-1z"/><path fill="#D8B704" d="M5 13h1v1H5v-1z"/><path fill="#BD9E0D" d="M7 13h1v1H7v-1z"/><path d="M8 13h1v2H8v-2z"/><path fill="#DEB907" d="M9 13h1v1H9v-1z"/><path fill="#544713" d="M11 13h1v1h-1v-1z"/><path fill="#D8B809" d="M12 13h1v1h-1v-1z"/><path fill="#D9B406" d="M13 13h1v1h-1v-1z"/><path fill="#D2B101" d="M16 13h1v1h-1v-1z"/><path fill="#DABA07" d="M17 13h1v1h-1v-1z"/><path fill="#282117" d="M19 13h1v1h-1v-1z"/><path fill="#D4B506" d="M21 13h1v1h-1v-1z"/><path fill="#D9B604" d="M22 13h1v1h-1v-1z"/><path fill="#DFBC08" d="M24 13h1v1h-1v-1z"/><path fill="#D7B608" d="M25 13h1v1h-1v-1z"/><path fill="#D4AF00" d="M26 13h1v1h-1v-1z"/><path fill="#D5B302" d="M27 13h1v1h-1v-1z"/><path fill="#D7B804" d="M28 13h1v1h-1v-1z"/><path fill="#DBBC06" d="M29 13h1v1h-1v-1z"/><path fill="#DCB806" d="M1 14h1v1H1v-1z"/><path fill="#D9B505" d="M2 14h1v1H2v-1z"/><path fill="#D9B808" d="M3 14h1v1H3v-1z"/><path fill="#D6B303" d="M4 14h1v1H4v-1z"/><path fill="#D4B300" d="M5 14h1v1H5v-1z"/><path fill="#D8B604" d="M7 14h1v1H7v-1z"/><path fill="#DAB805" d="M9 14h1v1H9v-1z"/><path fill="#C2A30B" d="M11 14h1v1h-1v-1z"/><path fill="#D3B501" d="M12 14h1v1h-1v-1z"/><path fill="#E2BF0B" d="M13 14h1v1h-1v-1z"/><path fill="#AB8F0C" d="M15 14h1v1h-1v-1z"/><path d="M16 14h1v1h-1v-1z"/><path fill="#D8B505" d="M17 14h1v1h-1v-1z"/><path fill="#C2A30B" d="M19 14h1v1h-1v-1z"/><path fill="#D9B604" d="M21 14h1v1h-1v-1z"/><path fill="#D7B404" d="M22 14h1v1h-1v-1z"/><path fill="#D7B606" d="M24 14h1v1h-1v-1z"/><path fill="#D8B804" d="M25 14h1v1h-1v-1z"/><path fill="#DCBA07" d="M26 14h1v1h-1v-1z"/><path fill="#D6B805" d="M27 14h1v1h-1v-1z"/><path fill="#D7B706" d="M28 14h1v1h-1v-1z"/><path fill="#DEBE07" d="M29 14h1v1h-1v-1z"/><path fill="#DABB08" d="M1 15h1v1H1v-1z"/><path fill="#D8B200" d="M2 15h1v1H2v-1z"/><path fill="#DFBE09" d="M3 15h1v1H3v-1z"/><path fill="#D8B404" d="M4 15h1v1H4v-1z"/><path fill="#D9B603" d="M5 15h1v1H5v-1z"/><path fill="#282117" d="M6 15h1v1H6v-1z"/><path d="M7 15h1v1H7v-1z"/><path fill="#D9B705" d="M8 15h1v1H8v-1z"/><path fill="#DBB607" d="M9 15h1v1H9v-1z"/><path fill="#D7B504" d="M10 15h1v1h-1v-1z"/><path d="M11 15h2v1h-2v-1z"/><path fill="#D8B705" d="M13 15h1v1h-1v-1z"/><path fill="#D4B603" d="M16 15h1v1h-1v-1z"/><path fill="#D8B302" d="M17 15h1v1h-1v-1z"/><path fill="#D4B001" d="M19 15h1v1h-1v-1z"/><path fill="#DFB908" d="M21 15h1v1h-1v-1z"/><path fill="#DAB605" d="M22 15h1v1h-1v-1z"/><path fill="#282117" d="M23 15h1v1h-1v-1z"/><path fill="#D9BA07" d="M24 15h1v1h-1v-1z"/><path fill="#D6B507" d="M25 15h1v1h-1v-1z"/><path fill="#D6B501" d="M26 15h1v1h-1v-1z"/><path fill="#D8B502" d="M27 15h1v1h-1v-1z"/><path fill="#D3B400" d="M28 15h1v1h-1v-1z"/><path fill="#D6B604" d="M29 15h1v1h-1v-1z"/><path fill="#DFBE09" d="M1 16h1v1H1v-1z"/><path fill="#D8B503" d="M2 16h1v1H2v-1z"/><path fill="#D7B807" d="M3 16h1v1H3v-1z"/><path fill="#DDBB07" d="M4 16h1v1H4v-1z"/><path fill="#D7B705" d="M5 16h1v1H5v-1z"/><path fill="#DAB604" d="M6 16h1v1H6v-1z"/><path fill="#D8B704" d="M7 16h1v1H7v-1z"/><path fill="#D5B202" d="M8 16h1v1H8v-1z"/><path fill="#D8B906" d="M9 16h1v1H9v-1z"/><path fill="#D7B200" d="M10 16h1v1h-1v-1z"/><path fill="#DDB607" d="M11 16h1v1h-1v-1z"/><path fill="#DABB05" d="M12 16h1v1h-1v-1z"/><path fill="#DBB805" d="M13 16h1v1h-1v-1z"/><path fill="#DAB800" d="M14 16h1v1h-1v-1z"/><path fill="#D7B201" d="M15 16h1v1h-1v-1z"/><path fill="#DFBE09" d="M16 16h1v1h-1v-1z"/><path fill="#D5B104" d="M17 16h1v1h-1v-1z"/><path fill="#D7B504" d="M18 16h1v1h-1v-1z"/><path fill="#DAB908" d="M19 16h1v1h-1v-1z"/><path fill="#D8B602" d="M20 16h1v1h-1v-1z"/><path fill="#D6B403" d="M21 16h1v1h-1v-1z"/><path fill="#D7B000" d="M22 16h1v1h-1v-1z"/><path fill="#D9B303" d="M23 16h1v1h-1v-1z"/><path fill="#D6AE00" d="M24 16h1v1h-1v-1z"/><path fill="#DAB906" d="M25 16h1v1h-1v-1z"/><path fill="#D4B304" d="M26 16h2v1h-2v-1z"/><path fill="#DAB500" d="M28 16h1v1h-1v-1z"/><path fill="#DCBA07" d="M29 16h1v1h-1v-1z"/><path fill="#B1950D" d="M1 17h1v1H1v-1z"/><path fill="#D5B000" d="M2 17h1v1H2v-1z"/><path fill="#DCB603" d="M3 17h1v1H3v-1z"/><path fill="#DEBD06" d="M4 17h1v1H4v-1z"/><path fill="#DBBA0A" d="M5 17h1v1H5v-1z"/><path fill="#D4B603" d="M6 17h1v1H6v-1z"/><path fill="#D6B303" d="M7 17h1v1H7v-1z"/><path fill="#D4B102" d="M8 17h1v1H8v-1z"/><path fill="#D4B404" d="M9 17h1v1H9v-1z"/><path fill="#D7B504" d="M10 17h1v1h-1v-1z"/><path fill="#D7B403" d="M11 17h1v1h-1v-1z"/><path fill="#D6B603" d="M12 17h1v1h-1v-1z"/><path fill="#D2B100" d="M13 17h1v1h-1v-1z"/><path fill="#D6B401" d="M14 17h1v1h-1v-1z"/><path fill="#D7B603" d="M15 17h1v1h-1v-1z"/><path fill="#D9B702" d="M16 17h1v1h-1v-1z"/><path fill="#DAB703" d="M17 17h1v1h-1v-1z"/><path fill="#D5B302" d="M18 17h1v1h-1v-1z"/><path fill="#D6B401" d="M19 17h1v1h-1v-1z"/><path fill="#D9B909" d="M20 17h1v1h-1v-1z"/><path fill="#D9B504" d="M21 17h1v2h-1v-2z"/><path fill="#D9B702" d="M22 17h1v1h-1v-1z"/><path fill="#D7B605" d="M23 17h1v1h-1v-1z"/><path fill="#D4B400" d="M24 17h1v1h-1v-1z"/><path fill="#D7B606" d="M25 17h1v1h-1v-1z"/><path fill="#DABA08" d="M26 17h1v1h-1v-1z"/><path fill="#D7B002" d="M27 17h1v1h-1v-1z"/><path fill="#D5B405" d="M28 17h1v1h-1v-1z"/><path fill="#B1950D" d="M29 17h1v1h-1v-1z"/><path fill="#9A99A8" d="M0 18h1v1H0v-1z"/><path d="M1 18h1v1H1v-1z"/><path fill="#B1950D" d="M2 18h1v1H2v-1z"/><path fill="#D8B603" d="M3 18h1v1H3v-1z"/><path fill="#D9BD05" d="M4 18h1v1H4v-1z"/><path fill="#D7B503" d="M5 18h1v1H5v-1z"/><path fill="#D8B603" d="M6 18h1v1H6v-1z"/><path fill="#D7B503" d="M7 18h1v1H7v-1z"/><path fill="#DBB604" d="M8 18h1v1H8v-1z"/><path fill="#D8B803" d="M9 18h1v1H9v-1z"/><path fill="#DAB304" d="M10 18h1v1h-1v-1z"/><path fill="#D8B302" d="M11 18h1v1h-1v-1z"/><path fill="#D4B704" d="M12 18h1v1h-1v-1z"/><path fill="#D8B909" d="M13 18h1v1h-1v-1z"/><path fill="#D7B402" d="M14 18h1v1h-1v-1z"/><path fill="#DBBA07" d="M15 18h1v1h-1v-1z"/><path fill="#DFC00A" d="M16 18h1v1h-1v-1z"/><path fill="#D5B505" d="M17 18h1v1h-1v-1z"/><path fill="#D9B603" d="M18 18h1v1h-1v-1z"/><path fill="#D9B606" d="M19 18h1v1h-1v-1z"/><path fill="#D7B706" d="M20 18h1v1h-1v-1z"/><path fill="#D7B402" d="M22 18h1v1h-1v-1z"/><path fill="#DBBB0A" d="M23 18h1v1h-1v-1z"/><path fill="#D9B902" d="M24 18h1v1h-1v-1z"/><path fill="#D7B403" d="M25 18h1v1h-1v-1z"/><path fill="#DAB404" d="M26 18h1v1h-1v-1z"/><path fill="#D9B604" d="M27 18h1v1h-1v-1z"/><path fill="#B1950D" d="M28 18h1v1h-1v-1z"/><path d="M29 18h1v1h-1v-1z"/><path fill="#9A99A8" d="M30 18h1v1h-1v-1z"/><path fill="rgb(255,255,255,0)" d="M0 19h1v1h5v3h1v1h1v1H0v-6z"/><path fill="#9A99A8" d="M1 19h1v1H1v-1z"/><path d="M2 19h27v1H2v-1z"/><path fill="#9A99A8" d="M29 19h1v1h-1v-1z"/><path fill="rgb(255,255,255,0)" d="M30 19h1v6h-8v-1h1v-1h1v-3h5v-1z"/><path fill="#BFBFC8" d="M6 20h1v3H6v-3z"/><path fill="#000023" d="M7 20h1v4H7v-4z"/><path fill="rgb(255,255,255,0)" d="M8 20h15v3h-3v-1h-9v1H8v-3z"/><path fill="#000023" d="M23 20h1v4h-1v-4z"/><path fill="#BFBFC8" d="M24 20h1v3h-1v-3zM11 22h3v1h-3v-1z"/><path fill="#000023" d="M14 22h3v1h-3v-1z"/><path fill="#BFBFC8" d="M17 22h3v1h-3v-1z"/><path fill="#7F7F91" d="M8 23h3v1H8v-1z"/><path fill="#000023" d="M11 23h3v1h-3v-1z"/><path fill="#7F7F91" d="M14 23h3v1h-3v-1z"/><path fill="#000023" d="M17 23h3v1h-3v-1z"/><path fill="#7F7F91" d="M20 23h3v1h-3v-1z"/><path fill="#000023" d="M8 24h3v1H8v-1z"/><path fill="rgb(255,255,255,0)" d="M11 24h9v1h-9v-1z"/><path fill="#000023" d="M20 24h3v1h-3v-1z"/></svg>