<svg xmlns="http://www.w3.org/2000/svg" preserveAspectRatio="xMinYMin meet" viewBox="0 0 20 28"><path fill="rgb(255,255,255,0)" d="M0 0h12v2h-2v2H4v2H2v2H0V0z"/><path fill="#FFAEFF" d="M12 0h4v2h2v6h-2V4h-2V2h-2V0z"/><path fill="rgb(255,255,255,0)" d="M16 0h4v8h-2V2h-2V0z"/><path fill="#FFAEFF" d="M10 2h2v2h-2V2z"/><path fill="#FCF" d="M12 2h2v2h-2V2z"/><path fill="#FFAEFF" d="M4 4h6v2H4V4z"/><path fill="#FCF" d="M10 4h2v2h2V4h2v4h2v2h-2v2h-2v-2h-2v4h2v4h4v2h-2v2H4v-2H2V8h2V6h6V4z"/><path fill="#FFAEFF" d="M12 4h2v2h-2V4zM2 6h2v2H2V6zM0 8h2v12H0V8zM18 8h2v8h-2V8z"/><path d="M12 10h2v4h-2v-4zM16 10h2v4h-2v-4z"/><path fill="#F45000" d="M14 12h2v2h-2v-2z"/><path fill="#FFAEFF" d="M4 14h2v4H4v-4zM8 14h2v4H8v-4z"/><path fill="#FF9866" d="M14 14h2v2h-2v-2z"/><path fill="#F45000" d="M16 14h2v2h2v2h-6v-2h2v-2z"/><path fill="#FFAEFF" d="M6 18h2v2H6v-2zM18 18h2v2h-2v-2z"/><path fill="rgb(255,255,255,0)" d="M0 20h2v2h2v2h2v4H0v-8z"/><path fill="#FFAEFF" d="M2 20h2v2H2v-2zM16 20h2v2h-2v-2z"/><path fill="rgb(255,255,255,0)" d="M18 20h2v8h-4v-2h-2v-2h2v-2h2v-2z"/><path fill="#FFAEFF" d="M4 22h12v2H4v-2z"/><path fill="#CC4200" d="M6 24h2v2h2v2H6v-4z"/><path fill="rgb(255,255,255,0)" d="M8 24h4v4h-2v-2H8v-2z"/><path fill="#CC4200" d="M12 24h2v2h2v2h-4v-4z"/></svg>