<svg xmlns="http://www.w3.org/2000/svg" preserveAspectRatio="xMinYMin meet" viewBox="0 0 21 21"><path fill="rgb(255,255,255,0)" d="M0 0h6v3H3v3H0V0z"/><path fill="#00D321" d="M6 0h9v3H6V0z"/><path fill="rgb(255,255,255,0)" d="M15 0h6v6h-3V3h-3V0z"/><path fill="#00D321" d="M3 3h3v3H3V3z"/><path fill="#00FF21" d="M6 3h9v3H6V3z"/><path fill="#00D321" d="M15 3h3v3h-3V3z"/><path fill="#00C221" d="M0 6h3v9H0V6z"/><path fill="#00FE21" d="M3 6h3v3H3V6z"/><path fill="#00E021" d="M6 6h3v3H6V6z"/><path fill="#00E721" d="M9 6h3v3H9V6z"/><path fill="#00E021" d="M12 6h3v3h-3V6z"/><path fill="#00FE21" d="M15 6h3v3h-3V6z"/><path fill="#00D321" d="M18 6h3v9h-3V6z"/><path fill="#00F521" d="M3 9h3v3H3V9z"/><path fill="#00E721" d="M6 9h3v3H6V9z"/><path fill="#00E021" d="M9 9h3v3H9V9z"/><path fill="#00E721" d="M12 9h3v3h-3V9z"/><path fill="#00F521" d="M15 9h3v3h-3V9z"/><path fill="#00F121" d="M3 12h2v1h1v2H3v-3z"/><path fill="#00EC21" d="M5 12h1v1H5v-1z"/><path fill="#00E021" d="M6 12h3v3H6v-3z"/><path fill="#00D221" d="M9 12h3v3H9v-3z"/><path fill="#00E021" d="M12 12h3v3h-2v-2h-1v-1z"/><path fill="#00F121" d="M15 12h3v3h-3v-3z"/><path fill="#00E121" d="M12 13h1v2h-1v-2z"/><path fill="rgb(255,255,255,0)" d="M0 15h3v3h3v3H0v-6z"/><path fill="#00C221" d="M3 15h3v3H3v-3z"/><path fill="#00E921" d="M6 15h3v3H6v-3z"/><path fill="#00E221" d="M9 15h3v3H9v-3z"/><path fill="#00E921" d="M12 15h3v3h-3v-3z"/><path fill="#00D321" d="M15 15h3v3h-3v-3z"/><path fill="rgb(255,255,255,0)" d="M18 15h3v6h-6v-3h3v-3z"/><path fill="#00C221" d="M6 18h9v3H6v-3z"/></svg>