<svg xmlns="http://www.w3.org/2000/svg" preserveAspectRatio="xMinYMin meet" viewBox="0 0 21 21"><path fill="rgb(255,255,255,0)" d="M0 0h6v3H3v3H0V0z"/><path fill="#DADAEF" d="M6 0h3v3H6V0z"/><path fill="#DBDBEC" d="M9 0h3v3H9V0z"/><path fill="#DCDCEE" d="M12 0h3v3h-3V0z"/><path fill="rgb(255,255,255,0)" d="M15 0h6v6h-3V3h-3V0z"/><path fill="#DBDCF0" d="M3 3h3v3H3V3z"/><path fill="#F6F6FF" d="M6 3h3v3H6V3z"/><path fill="#F8F9FF" d="M9 3h3v3H9V3z"/><path fill="#FBFAFE" d="M12 3h3v3h-3V3z"/><path fill="#E0E0EF" d="M15 3h3v3h-3V3z"/><path fill="#D8D8EE" d="M0 6h3v3H0V6z"/><path fill="#F1F1FE" d="M3 6h3v3H3V6z"/><path fill="#E0E0EB" d="M6 6h3v3H6V6z"/><path fill="#E6E6EE" d="M9 6h3v3H9V6z"/><path fill="#EEEEF2" d="M12 6h3v3h-3V6z"/><path fill="#FFF" d="M15 6h3v3h-3V6z"/><path fill="#DDDEEE" d="M18 6h3v3h-3V6z"/><path fill="#D2D2E9" d="M0 9h3v3H0V9z"/><path fill="#F1F1FF" d="M3 9h3v3H3V9z"/><path fill="#DFDFEA" d="M6 9h3v3H6V9z"/><path fill="#E3E3EA" d="M9 9h3v3H9V9z"/><path fill="#E9E9EF" d="M12 9h3v3h-3V9z"/><path fill="#F7F7FF" d="M15 9h3v3h-3V9z"/><path fill="#DBDCED" d="M18 9h3v3h-3V9z"/><path fill="#D1D1E7" d="M0 12h3v3H0v-3z"/><path fill="#EAEBFC" d="M3 12h3v3H3v-3z"/><path fill="#E6E6F3" d="M6 12h3v3H6v-3z"/><path fill="#E2E1EB" d="M9 12h3v3H9v-3z"/><path fill="#EAEAF3" d="M12 12h3v3h-3v-3z"/><path fill="#F3F2FC" d="M15 12h3v3h-3v-3z"/><path fill="#D9D9EC" d="M18 12h3v3h-3v-3z"/><path fill="rgb(255,255,255,0)" d="M0 15h3v3h3v3H0v-6z"/><path fill="#D0D0E7" d="M3 15h3v3H3v-3z"/><path fill="#F1F1FF" d="M6 15h3v3H6v-3z"/><path fill="#F2F2FF" d="M9 15h3v3H9v-3z"/><path fill="#F2F3FF" d="M12 15h3v3h-3v-3z"/><path fill="#DCDCEF" d="M15 15h3v3h-3v-3z"/><path fill="rgb(255,255,255,0)" d="M18 15h3v6h-6v-3h3v-3z"/><path fill="#CFCFE6" d="M6 18h3v3H6v-3z"/><path fill="#D1D1E7" d="M9 18h3v3H9v-3z"/><path fill="#CFCFE5" d="M12 18h3v3h-3v-3z"/></svg>