<svg xmlns="http://www.w3.org/2000/svg" preserveAspectRatio="xMinYMin meet" viewBox="0 0 21 21"><path fill="rgb(255,255,255,0)" d="M0 0h6v3H3v3H0V0z"/><path fill="#7F7F7F" d="M6 0h3v3H6V0z"/><path fill="#9F9F9F" d="M9 0h3v3H9V0z"/><path fill="#7F7F7F" d="M12 0h3v3h-3V0z"/><path fill="rgb(255,255,255,0)" d="M15 0h6v6h-3V3h-3V0z"/><path fill="#7F7F7F" d="M3 3h3v3H3V3z"/><path fill="#9E9E9E" d="M6 3h3v3H6V3z"/><path fill="#C6C6C6" d="M9 3h3v3H9V3z"/><path fill="#929292" d="M12 3h3v3h-3V3z"/><path fill="#7F7F7F" d="M15 3h3v3h-3V3z"/><path fill="#767676" d="M0 6h3v3H0V6z"/><path fill="#929292" d="M3 6h3v3H3V6z"/><path fill="#848484" d="M6 6h3v3H6V6z"/><path fill="#A5A5A5" d="M9 6h3v3H9V6z"/><path fill="#D6D6D6" d="M12 6h3v3h-3V6z"/><path fill="#929292" d="M15 6h3v3h-3V6z"/><path fill="#7F7F7F" d="M18 6h3v3h-3V6z"/><path fill="#8D8D8D" d="M0 9h3v3H0V9z"/><path fill="#BEBEBE" d="M3 9h3v3H3V9z"/><path fill="#8E8E8E" d="M6 9h3v3H6V9z"/><path fill="#AFAFAF" d="M9 9h3v3H9V9z"/><path fill="#A5A5A5" d="M12 9h3v3h-3V9z"/><path fill="#BEBEBE" d="M15 9h3v3h-3V9z"/><path fill="#9F9F9F" d="M18 9h3v3h-3V9z"/><path fill="#767676" d="M0 12h3v3H0v-3z"/><path fill="#8D8D8D" d="M3 12h3v3H3v-3z"/><path fill="#B2B2B2" d="M6 12h3v3H6v-3z"/><path fill="#828282" d="M9 12h3v3H9v-3z"/><path fill="#737373" d="M12 12h3v3h-3v-3z"/><path fill="#9E9E9E" d="M15 12h3v3h-3v-3z"/><path fill="#7F7F7F" d="M18 12h3v3h-3v-3z"/><path fill="rgb(255,255,255,0)" d="M0 15h3v3h3v3H0v-6z"/><path fill="#7F7F7F" d="M3 15h3v3H3v-3z"/><path fill="#8A8A8A" d="M6 15h3v3H6v-3z"/><path fill="#B0B0B0" d="M9 15h3v3H9v-3z"/><path fill="#8A8A8A" d="M12 15h3v3h-3v-3z"/><path fill="#7F7F7F" d="M15 15h3v3h-3v-3z"/><path fill="rgb(255,255,255,0)" d="M18 15h3v6h-6v-3h3v-3z"/><path fill="#767676" d="M6 18h3v3H6v-3z"/><path fill="#8D8D8D" d="M9 18h3v3H9v-3z"/><path fill="#767676" d="M12 18h3v3h-3v-3z"/></svg>