<svg xmlns="http://www.w3.org/2000/svg" preserveAspectRatio="xMinYMin meet" viewBox="0 0 21 21"><path fill="rgb(255,255,255,0)" d="M0 0h6v3H3v3H0V0z"/><path fill="#991300" d="M6 0h3v3H6V0z"/><path fill="#AD0D00" d="M9 0h3v3H9V0z"/><path fill="#991300" d="M12 0h3v3h-3V0z"/><path fill="rgb(255,255,255,0)" d="M15 0h6v6h-3V3h-3V0z"/><path fill="#991300" d="M3 3h3v3H3V3z"/><path fill="#F23A07" d="M6 3h3v3H6V3z"/><path fill="#F43D09" d="M9 3h3v3H9V3z"/><path fill="#F73F0B" d="M12 3h3v3h-3V3z"/><path fill="#991300" d="M15 3h3v3h-3V3zM0 6h3v3H0V6z"/><path fill="#E35005" d="M3 6h3v3H3V6z"/><path fill="#C02B06" d="M6 6h3v3H6V6z"/><path fill="#DE4F3B" d="M9 6h3v3H9V6z"/><path fill="#FC9F85" d="M12 6h3v3h-3V6z"/><path fill="#F73F0B" d="M15 6h3v3h-3V6z"/><path fill="#991300" d="M18 6h3v3h-3V6z"/><path fill="#AD0D00" d="M0 9h3v3H0V9z"/><path fill="#E93201" d="M3 9h3v3H3V9z"/><path fill="#C22007" d="M6 9h3v3H6V9z"/><path fill="#C02208" d="M9 9h3v3H9V9z"/><path fill="#DE4F3B" d="M12 9h3v3h-3V9z"/><path fill="#F43C09" d="M15 9h3v3h-3V9z"/><path fill="#AD0D00" d="M18 9h3v3h-3V9z"/><path fill="#991300" d="M0 12h3v3H0v-3z"/><path fill="#E73000" d="M3 12h3v3H3v-3z"/><path fill="#EA928C" d="M6 12h3v3H6v-3z"/><path fill="#BD240A" d="M9 12h3v3H9v-3z"/><path fill="#BE2C06" d="M12 12h3v3h-3v-3z"/><path fill="#F13A07" d="M15 12h3v3h-3v-3z"/><path fill="#991300" d="M18 12h3v3h-3v-3z"/><path fill="rgb(255,255,255,0)" d="M0 15h3v3h3v3H0v-6z"/><path fill="#991300" d="M3 15h3v3H3v-3z"/><path fill="#E73000" d="M6 15h3v3H6v-3z"/><path fill="#E93201" d="M9 15h3v3H9v-3z"/><path fill="#EC3403" d="M12 15h3v3h-3v-3z"/><path fill="#991300" d="M15 15h3v3h-3v-3z"/><path fill="rgb(255,255,255,0)" d="M18 15h3v6h-6v-3h3v-3z"/><path fill="#991300" d="M6 18h3v3H6v-3z"/><path fill="#AD0D00" d="M9 18h3v3H9v-3z"/><path fill="#991300" d="M12 18h3v3h-3v-3z"/></svg>