<svg xmlns="http://www.w3.org/2000/svg" preserveAspectRatio="xMinYMin meet" viewBox="0 0 21 21"><path fill="rgb(255,255,255,0)" d="M0 0h6v3H3v3H0V0z"/><path fill="#D26620" d="M6 0h9v3H6V0z"/><path fill="rgb(255,255,255,0)" d="M15 0h6v6h-3V3h-3V0z"/><path fill="#D26620" d="M3 3h3v3H3V3z"/><path fill="#FF8C3B" d="M6 3h9v3H6V3z"/><path fill="#D26620" d="M15 3h3v3h-3V3z"/><path fill="#CC5100" d="M0 6h3v9H0V6z"/><path fill="#FE7B20" d="M3 6h3v3H3V6z"/><path fill="#F35D00" d="M6 6h3v3H6V6z"/><path fill="#EFBF65" d="M9 6h3v3H9V6z"/><path fill="#FEED99" d="M12 6h3v3h-3V6z"/><path fill="#FE8B3B" d="M15 6h3v3h-3V6z"/><path fill="#D26620" d="M18 6h3v9h-3V6z"/><path fill="#F97320" d="M3 9h3v3H3V9z"/><path fill="#F86900" d="M6 9h3v3H6V9z"/><path fill="#F76400" d="M9 9h3v3H9V9z"/><path fill="#EFBA51" d="M12 9h3v3h-3V9z"/><path fill="#F9843B" d="M15 9h3v3h-3V9z"/><path fill="#F87020" d="M3 12h3v3H3v-3z"/><path fill="#F8E6C5" d="M6 12h3v3H6v-3z"/><path fill="#F25A00" d="M9 12h3v3H9v-3z"/><path fill="#F86500" d="M12 12h3v3h-3v-3z"/><path fill="#F8813B" d="M15 12h3v3h-3v-3z"/><path fill="rgb(255,255,255,0)" d="M0 15h3v3h3v3H0v-6z"/><path fill="#CC5100" d="M3 15h3v3H3v-3z"/><path fill="#FF8220" d="M6 15h3v3H6v-3z"/><path fill="#FF7C20" d="M9 15h3v3H9v-3z"/><path fill="#FF8220" d="M12 15h3v3h-3v-3z"/><path fill="#CC5100" d="M15 15h3v3h-3v-3z"/><path fill="rgb(255,255,255,0)" d="M18 15h3v6h-6v-3h3v-3z"/><path fill="#CC5100" d="M6 18h9v3H6v-3z"/></svg>