<svg xmlns="http://www.w3.org/2000/svg" preserveAspectRatio="xMinYMin meet" viewBox="0 0 21 21"><path fill="rgb(255,255,255,0)" d="M0 0h6v3H3v3H0V0z"/><path fill="#57007F" d="M6 0h9v3H6V0z"/><path fill="#3B9D46" d="M15 0h3v3h-3V0z"/><path fill="#007F0E" d="M18 0h3v3h-3V0z"/><path fill="#57007F" d="M3 3h3v3H3V3z"/><path fill="#812C7F" d="M6 3h9v3H6V3z"/><path fill="#3F5806" d="M15 3h3v3h-3V3z"/><path fill="rgb(255,255,255,0)" d="M18 3h3v3h-3V3z"/><path fill="#3C007F" d="M0 6h3v3H0V6z"/><path fill="#802B7F" d="M3 6h3v3H3V6z"/><path fill="#7B217F" d="M6 6h3v3H6V6z"/><path fill="#7F3AEC" d="M9 6h3v3H9V6z"/><path fill="#A275EA" d="M12 6h3v3h-3V6z"/><path fill="#802B7F" d="M15 6h3v3h-3V6z"/><path fill="#57007F" d="M18 6h3v9h-3V6z"/><path fill="#34006E" d="M0 9h3v3H0V9z"/><path fill="#7B227F" d="M3 9h3v3H3V9z"/><path fill="#75147F" d="M6 9h3v3H6V9z"/><path fill="#710D7F" d="M9 9h3v3H9V9z"/><path fill="#7F3AEC" d="M12 9h3v3h-3V9z"/><path fill="#7B227F" d="M15 9h3v3h-3V9z"/><path fill="#2E0062" d="M0 12h3v3H0v-3z"/><path fill="#7A1E7F" d="M3 12h3v3H3v-3z"/><path fill="#A275EA" d="M6 12h3v3H6v-3z"/><path fill="#6A007F" d="M9 12h3v3H9v-3z"/><path fill="#720E7F" d="M12 12h3v3h-3v-3z"/><path fill="#7A1E7F" d="M15 12h3v3h-3v-3z"/><path fill="rgb(255,255,255,0)" d="M0 15h3v3h3v3H0v-6z"/><path fill="#290059" d="M3 15h3v3H3v-3z"/><path fill="#75167F" d="M6 15h3v3H6v-3z"/><path fill="#720F7F" d="M9 15h3v3H9v-3z"/><path fill="#75167F" d="M12 15h3v3h-3v-3z"/><path fill="#57007F" d="M15 15h3v3h-3v-3z"/><path fill="rgb(255,255,255,0)" d="M18 15h3v6h-6v-3h3v-3z"/><path fill="#2E0062" d="M6 18h3v3H6v-3z"/><path fill="#34006E" d="M9 18h3v3H9v-3z"/><path fill="#3C007F" d="M12 18h3v3h-3v-3z"/></svg>